<svg width="28" height="39" viewBox="0 0 28 39" fill="none" xmlns="http://www.w3.org/2000/svg">
<path d="M17.9954 5.70544C17.9954 2.55371 15.4428 0 12.2921 0C9.13929 0 6.58667 2.55371 6.58667 5.70544C6.58667 7.84386 7.7643 9.7049 9.50574 10.6816L9.62425 6.89787C9.62425 5.34823 10.8818 4.0918 12.4326 4.0918H12.59C13.8109 4.0918 14.8014 5.08125 14.8014 6.30226V10.8231C16.6923 9.89321 17.9954 7.95336 17.9954 5.70544Z" fill="#AAD4C8"/>
<path d="M14.8015 6.30225C14.8015 5.08124 13.811 4.0918 12.59 4.0918H12.4326C10.8819 4.0918 9.62431 5.34822 9.62431 6.89786L9.5058 10.6816L9.24456 19.022C9.18491 19.2787 9.14829 25.0765 9.14829 25.0765C8.66006 24.5778 8.11473 24.0073 7.623 23.4596C6.47843 22.1826 4.37657 21.3223 2.97874 21.1639C2.24268 21.0783 1.67892 21.1796 1.30697 21.4616C1.18483 21.5528 1.06965 21.6545 0.956585 21.764C0.237754 22.4748 -0.307759 23.6228 0.195513 24.4637C0.414214 24.831 0.788888 25.0742 1.18483 25.331C1.71222 25.6733 2.60092 26.043 3.26512 26.8932C4.38552 28.3217 6.97125 31.5168 8.56096 33.2226C8.88958 33.4281 9.5901 34.1265 9.9209 34.3033C10.9239 34.9435 11.7445 35.5472 12.0287 35.8745C12.2512 36.129 13.5635 36.8011 13.5635 36.8011C14.6246 37.4742 16.5589 38.1018 18.7896 38.1018C21.0204 38.1018 23.0413 38.2355 24.5374 36.9197H24.6207L24.6571 36.8195C26.1815 35.4261 27.1252 33.4954 27.1252 31.3593C27.1252 30.832 27.1252 28.8831 27.1252 28.5166V21.15C27.1252 20.648 27.0158 18.9717 25.6052 18.4673C24.9287 18.2267 24.2874 18.3179 23.742 18.5529L23.6129 18.5597L23.5731 18.5622C23.3288 17.6411 22.7173 17.0455 21.8112 16.8881C20.7158 16.6986 19.9582 17.0262 19.5028 17.3559C19.0486 16.3813 18.1381 15.8735 16.9091 15.9763C15.9848 16.0551 15.3002 16.5083 14.8015 17.1059V10.8231V6.30225H14.8015Z" fill="#F2F2F2"/>
</svg>
