<svg width="129" height="120" viewBox="0 0 129 120" fill="none" xmlns="http://www.w3.org/2000/svg">
<path d="M16.5532 90.0165H114.285C115.836 90.0165 117.098 88.7544 117.098 87.2036V25.1563C117.098 23.6051 115.836 22.3434 114.285 22.3434H16.5532C15.002 22.3434 13.7402 23.6055 13.7402 25.1563V87.2036C13.7402 88.7544 15.002 90.0165 16.5532 90.0165ZM14.3942 25.1563C14.3942 23.966 15.3628 22.9973 16.5532 22.9973H114.285C115.475 22.9973 116.444 23.966 116.444 25.1563V87.2036C116.444 88.3939 115.475 89.3626 114.285 89.3626H16.5532C15.3628 89.3626 14.3942 88.3939 14.3942 87.2036V25.1563Z" fill="#77C3ED"/>
<path d="M10.8787 90.4893V21.8706C10.8787 20.5616 11.9436 19.4971 13.2522 19.4971H117.586C118.895 19.4971 119.959 20.562 119.959 21.8706V90.4893C119.959 91.7982 118.894 92.8628 117.586 92.8628H13.2522C11.9436 92.8632 10.8787 91.7982 10.8787 90.4893ZM124.981 117.816C123.523 118.878 122.09 119.061 121.947 119.077H14.0673C8.56252 119.077 4.50335 117.893 2.32848 115.652C1.34253 114.636 0.938413 113.6 0.771864 112.9C1.83388 113.658 4.06318 113.967 8.13064 113.967L124.516 113.966C124.623 113.959 126.812 113.797 128.094 112.58C127.633 114.885 126.592 116.643 124.981 117.816ZM128.343 110.598C128.342 110.607 128.341 110.615 128.341 110.624C128.321 110.972 128.232 111.29 128.069 111.574C127.216 113.065 124.662 113.299 124.482 113.313H8.13064C5.06175 113.313 1.45248 113.161 0.779076 111.972C0.525648 111.524 0.659753 110.878 1.1886 109.997L1.37966 109.678C9.18149 96.6689 11.3055 93.6818 11.843 93.1671C12.2644 93.3898 12.7435 93.5171 13.2522 93.5171H117.586C118.049 93.5171 118.487 93.4093 118.88 93.2226C119.913 94.8989 125.646 104.237 127.813 108.57C128.193 109.33 128.369 110.008 128.343 110.598Z" fill="#77C3ED"/>
<path d="M93.9633 99.9745C93.9099 99.8581 93.7939 99.7831 93.6655 99.7831H93.6648C65.5707 99.835 12.2067 99.9028 10.914 99.7881C10.7791 99.7647 10.636 99.8289 10.5679 99.955L4.92867 110.443C4.87423 110.545 4.87675 110.667 4.93624 110.766C4.99536 110.865 5.10206 110.925 5.21706 110.925H98.4453C98.5567 110.925 98.6602 110.869 98.7204 110.775C98.7806 110.682 98.7889 110.564 98.7431 110.463L93.9633 99.9745ZM5.76465 110.272L11.0524 100.437C15.5647 100.566 69.5203 100.482 93.4557 100.438L97.9374 110.272H5.76465Z" fill="#77C3ED"/>
<path d="M12.0754 98.5467H92.7C92.8168 98.5467 92.9246 98.4847 92.983 98.3837C93.0414 98.2828 93.0418 98.1584 92.9841 98.0575L91.1553 94.857C91.0969 94.755 90.9888 94.6923 90.8713 94.6923H14.0671C13.9539 94.6923 13.849 94.7507 13.7896 94.8466L11.7982 98.047C11.7355 98.148 11.7322 98.2749 11.7899 98.3787C11.8472 98.4821 11.9568 98.5467 12.0754 98.5467ZM14.2488 95.3462H90.682L92.137 97.8927H12.6644L14.2488 95.3462Z" fill="#77C3ED"/>
<path d="M118.478 99.4605C118.417 99.3685 118.315 99.3102 118.202 99.3148L96.4562 99.569C96.343 99.5704 96.2389 99.6299 96.1801 99.7265C96.1217 99.8231 96.117 99.9432 96.1682 100.044L101.604 110.747C101.66 110.856 101.772 110.926 101.896 110.926H125.519C125.64 110.926 125.751 110.859 125.808 110.753C125.865 110.647 125.859 110.518 125.791 110.417L118.478 99.4605ZM102.097 110.272L96.9898 100.217L118.033 99.9713L124.908 110.272H102.097Z" fill="#77C3ED"/>
<path d="M95.3091 98.0708C95.3664 98.1761 95.4763 98.2417 95.5964 98.2417H117.492C117.612 98.2417 117.721 98.1768 117.779 98.0726C117.836 97.9681 117.833 97.8408 117.769 97.7402L115.94 94.8444C115.88 94.7496 115.775 94.6919 115.663 94.6919H94.021C93.9056 94.6919 93.7989 94.7528 93.7398 94.852C93.6807 94.9511 93.6785 95.074 93.7337 95.1753L95.3091 98.0708ZM115.483 95.3462L116.899 97.5878H95.7907L94.5715 95.3462H115.483Z" fill="#77C3ED"/>
<path d="M16.5532 90.0165H114.285C115.836 90.0165 117.098 88.7544 117.098 87.2036V25.1563C117.098 23.6051 115.836 22.3434 114.285 22.3434H16.5532C15.002 22.3434 13.7402 23.6055 13.7402 25.1563V87.2036C13.7402 88.7544 15.002 90.0165 16.5532 90.0165ZM14.3942 25.1563C14.3942 23.966 15.3628 22.9973 16.5532 22.9973H114.285C115.475 22.9973 116.444 23.966 116.444 25.1563V87.2036C116.444 88.3939 115.475 89.3626 114.285 89.3626H16.5532C15.3628 89.3626 14.3942 88.3939 14.3942 87.2036V25.1563Z" fill="white"/>
<path d="M128.398 108.277C126.22 103.921 120.475 94.5635 119.437 92.88C120.151 92.3255 120.614 91.4614 120.614 90.4895V21.8704C120.614 20.201 119.256 18.8427 117.586 18.8427H13.2521C11.5827 18.8427 10.2243 20.201 10.2243 21.8704V90.4892C10.2243 91.416 10.644 92.2459 11.3022 92.8017C10.5117 93.6709 8.27298 96.9114 0.818672 109.341L0.627608 109.66C0.0511765 110.62 -0.125825 111.398 0.0897506 112.026L0.000707836 112.023C-0.00253662 112.107 -0.0540858 114.122 1.84031 116.088C4.17019 118.505 8.2838 119.731 14.0669 119.731H121.977L121.991 119.73C122.056 119.724 128.406 119.074 128.979 110.848C128.988 110.773 128.994 110.697 128.997 110.62C128.997 110.618 128.997 110.617 128.997 110.616C129.026 109.918 128.827 109.136 128.398 108.277ZM10.8786 90.4892V21.8704C10.8786 20.5615 11.9435 19.497 13.2521 19.497H117.586C118.895 19.497 119.959 20.5619 119.959 21.8704V90.4892C119.959 91.7981 118.894 92.8627 117.586 92.8627H13.2521C11.9435 92.863 10.8786 91.7981 10.8786 90.4892ZM124.981 117.816C123.523 118.878 122.09 119.061 121.947 119.077H14.0672C8.56246 119.077 4.50329 117.893 2.32842 115.652C1.34247 114.636 0.938355 113.6 0.771806 112.9C1.83382 113.658 4.06312 113.967 8.13058 113.967L124.516 113.966C124.623 113.959 126.812 113.797 128.094 112.58C127.633 114.885 126.592 116.643 124.981 117.816ZM128.343 110.598C128.342 110.607 128.341 110.615 128.341 110.624C128.321 110.972 128.232 111.29 128.069 111.574C127.216 113.064 124.662 113.298 124.482 113.313H8.13058C5.06169 113.313 1.45242 113.161 0.779017 111.971C0.52559 111.524 0.659694 110.878 1.18854 109.997L1.3796 109.678C9.18143 96.6688 11.3055 93.6817 11.843 93.1669C12.2644 93.3897 12.7435 93.517 13.2521 93.517H117.586C118.049 93.517 118.487 93.4092 118.88 93.2224C119.913 94.8987 125.646 104.237 127.813 108.57C128.193 109.33 128.369 110.008 128.343 110.598Z" fill="white"/>
<path d="M117.769 97.7402L115.94 94.8444C115.88 94.7496 115.775 94.6919 115.663 94.6919H94.021C93.9056 94.6919 93.7989 94.7528 93.7398 94.852C93.6807 94.9511 93.6785 95.074 93.7337 95.1753L95.3087 98.0712C95.366 98.1764 95.476 98.2421 95.596 98.2421H117.492C117.611 98.2421 117.721 98.1772 117.778 98.073C117.836 97.9681 117.833 97.8408 117.769 97.7402ZM101.451 95.3462H104.784L105.898 97.5878H102.678L101.451 95.3462ZM102.27 97.5878H99.1537L97.9677 95.3462H101.041L102.27 97.5878ZM105.187 95.3462H108.269L109.457 97.5878H106.304L105.187 95.3462ZM108.677 95.3462H111.83L113.371 97.5878H109.865L108.677 95.3462ZM94.5715 95.3462H97.5596L98.7464 97.5878H95.7907L94.5715 95.3462ZM113.784 97.5878L112.261 95.3462H115.483L116.899 97.5878H113.784Z" fill="white"/>
<path d="M125.791 110.417L118.478 99.4606C118.417 99.3687 118.315 99.3103 118.202 99.315L96.4562 99.5691C96.343 99.5706 96.2389 99.63 96.1801 99.7266C96.1217 99.8233 96.117 99.9433 96.1682 100.044L101.604 110.747C101.66 110.857 101.772 110.926 101.896 110.926H125.519C125.64 110.926 125.751 110.859 125.808 110.753C125.865 110.647 125.859 110.517 125.791 110.417ZM122.691 106.95H119.291L117.755 104.581H121.11L122.691 106.95ZM106.143 104.322L105.067 102.283H108.143L109.287 104.322H106.143ZM109.432 104.581L110.76 106.95H107.53L106.28 104.581H109.432ZM108.552 102.283H111.799L113.034 104.322H109.697L108.552 102.283ZM112.211 102.283H115.733L117.048 104.322H113.448L112.211 102.283ZM111.991 101.92L110.859 100.055L114.271 100.015L115.499 101.92H111.991ZM111.579 101.92H108.348L107.324 100.096L110.451 100.06L111.579 101.92ZM107.939 101.92H104.875L103.933 100.136L106.919 100.101L107.939 101.92ZM104.461 101.92H101.39L100.468 100.176L103.521 100.14L104.461 101.92ZM104.653 102.283L105.731 104.322H102.661L101.582 102.283H104.653ZM105.868 104.581L107.12 106.95H104.051L102.798 104.581H105.868ZM107.321 107.33L108.876 110.272H105.809L104.252 107.33H107.321ZM107.731 107.33H110.974L112.624 110.272H109.284L107.731 107.33ZM111.385 107.33H114.856L116.639 110.272H113.037L111.385 107.33ZM111.172 106.95L109.842 104.581H113.191L114.626 106.95H111.172ZM113.606 104.581H117.215L118.742 106.95H115.043L113.606 104.581ZM120.937 104.322H117.587L116.265 102.283H119.576L120.937 104.322ZM119.334 101.92H116.03L114.79 100.009L118.033 99.9711L119.334 101.92ZM96.9898 100.217L100.082 100.181L100.999 101.92H97.855L96.9898 100.217ZM98.0392 102.283H101.19L102.265 104.322H99.0752L98.0392 102.283ZM99.2064 104.581H102.402L103.65 106.95H100.409L99.2064 104.581ZM100.603 107.33H103.851L105.402 110.272H102.097L100.603 107.33ZM115.273 107.33H118.986L120.883 110.272H117.059L115.273 107.33ZM121.445 110.272L119.538 107.33H122.944L124.908 110.272H121.445Z" fill="white"/>
<path d="M98.7436 110.463L93.9638 99.9746C93.9104 99.8582 93.7944 99.7832 93.666 99.7832H93.6653C65.5712 99.8351 12.2072 99.9029 10.9144 99.7883C10.7796 99.7648 10.6365 99.829 10.5684 99.9552L4.92915 110.443C4.87472 110.545 4.87724 110.667 4.93672 110.766C4.99584 110.865 5.10255 110.925 5.21755 110.925H93.502L93.5258 110.988L93.6949 110.925H98.4458C98.5572 110.925 98.6607 110.869 98.7209 110.775C98.7811 110.682 98.7894 110.564 98.7436 110.463ZM96.7115 107.582H92.6354L91.7817 105.301H95.6718L96.7115 107.582ZM21.354 104.94H17.3212L18.1287 102.462H22.1615L21.354 104.94ZM22.5408 102.462H26.5736L25.7661 104.94H21.7333L22.5408 102.462ZM21.2365 105.301L20.4932 107.582H16.4603L17.2036 105.301H21.2365ZM21.6157 105.301H25.6486L24.9053 107.582H20.8724L21.6157 105.301ZM26.0282 105.301H30.061L29.3177 107.582H25.2848L26.0282 105.301ZM30.4403 105.301H34.4731L33.7298 107.582H29.6969L30.4403 105.301ZM34.8524 105.301H38.8852L38.1419 107.582H34.109L34.8524 105.301ZM39.2648 105.301H43.2977L42.5543 107.582H38.5215L39.2648 105.301ZM75.3857 104.94H71.8135V102.462H75.1755L75.3857 104.94ZM75.5371 102.462H78.6896L79.1727 104.94H75.7473L75.5371 102.462ZM71.453 104.94H66.9105L67.1657 102.462H71.453V104.94ZM66.5482 104.94H61.9205L62.4793 102.462H66.8034L66.5482 104.94ZM61.5506 104.94H57.4453L58.0369 102.462H62.109L61.5506 104.94ZM57.0747 104.94H52.7272L53.4672 102.462H57.6667L57.0747 104.94ZM52.3512 104.94H48.2069L49.0144 102.462H53.0913L52.3512 104.94ZM47.8273 104.94H43.7945L44.602 102.462H48.6348L47.8273 104.94ZM43.4152 104.94H39.3824L40.1899 102.462H44.2227L43.4152 104.94ZM43.6769 105.301H47.7098L46.9664 107.582H42.9336L43.6769 105.301ZM48.0894 105.301H52.2434L51.562 107.582H47.3457L48.0894 105.301ZM52.6197 105.301H56.9889L56.4442 107.582H51.9384L52.6197 105.301ZM57.3595 105.301H61.4695L60.9551 107.582H56.8148L57.3595 105.301ZM61.839 105.301H66.511L66.276 107.582H61.3246L61.839 105.301ZM66.8733 105.301H71.453V107.582H66.6386L66.8733 105.301ZM71.8135 105.301H75.416L75.6096 107.582H71.8135V105.301ZM75.7779 105.301H79.243L79.6878 107.582H75.9711L75.7779 105.301ZM79.6103 105.301H83.3782L83.9417 107.582H80.0552L79.6103 105.301ZM79.54 104.94L79.057 102.462H82.6774L83.2895 104.94H79.54ZM83.0484 102.462H86.4129L87.2297 104.94H83.6601L83.0484 102.462ZM86.7928 102.462H90.3347L91.2619 104.94H87.6097L86.7928 102.462ZM86.6739 102.102L86.1295 100.451C87.3209 100.449 88.4713 100.447 89.5795 100.445L90.1995 102.102H86.6739ZM86.2943 102.102H82.9593L82.553 100.457C83.6446 100.455 84.712 100.453 85.7499 100.452L86.2943 102.102ZM82.588 102.102H78.9863L78.6669 100.463C79.863 100.461 81.0354 100.459 82.1821 100.457L82.588 102.102ZM78.6193 102.102H75.5064L75.368 100.468C76.3583 100.467 77.336 100.465 78.2999 100.464L78.6193 102.102ZM75.1449 102.102H71.8135V100.474C72.8896 100.472 73.9545 100.47 75.0064 100.469L75.1449 102.102ZM71.453 102.102H67.2028L67.3697 100.48C68.7439 100.478 70.1066 100.476 71.4527 100.474V102.102H71.453ZM66.8405 102.102H62.5604L62.9248 100.485C64.2936 100.484 65.6552 100.482 67.0074 100.48L66.8405 102.102ZM62.1909 102.102H58.1234L58.508 100.49C59.8595 100.489 61.2099 100.488 62.5553 100.486L62.1909 102.102ZM57.7524 102.102H53.5747L54.0545 100.495C55.4128 100.494 56.7751 100.492 58.1371 100.491L57.7524 102.102ZM53.1987 102.102H49.1316L49.6536 100.499C50.9878 100.498 52.3306 100.497 53.6781 100.496L53.1987 102.102ZM48.7523 102.102H44.7195L45.2408 100.502C46.5724 100.502 47.9185 100.501 49.2743 100.5L48.7523 102.102ZM44.3402 102.102H40.307L40.8272 100.505C42.1531 100.504 43.4985 100.503 44.8608 100.502L44.3402 102.102ZM39.9278 102.102H35.8949L36.4148 100.506C37.7335 100.506 39.0781 100.505 40.448 100.505L39.9278 102.102ZM39.8103 102.462L39.0028 104.94H34.9699L35.7774 102.462H39.8103ZM34.5907 104.94H30.5578L31.3653 102.462H35.3982L34.5907 104.94ZM30.1786 104.94H26.1457L26.9532 102.462H30.9861L30.1786 104.94ZM27.0704 102.102L27.5909 100.503C28.8851 100.505 30.2316 100.505 31.6234 100.505L31.1036 102.102H27.0704ZM26.6911 102.102H22.6583L23.1803 100.499C24.4532 100.501 25.7982 100.502 27.2117 100.503L26.6911 102.102ZM22.2787 102.102H18.2458L18.7707 100.49C20.0014 100.493 21.349 100.496 22.8007 100.498L22.2787 102.102ZM17.8666 102.102H13.8337L14.3644 100.473C15.4837 100.479 16.8363 100.485 18.3922 100.489L17.8666 102.102ZM17.7491 102.462L16.9416 104.94H12.9087L13.7162 102.462H17.7491ZM16.8244 105.301L16.0811 107.582H12.0482L12.7915 105.301H16.8244ZM15.9635 107.942L15.2047 110.272H11.1718L11.9307 107.942H15.9635ZM16.3428 107.942H20.3756L19.6168 110.272H15.5839L16.3428 107.942ZM20.7552 107.942H24.7881L24.0292 110.272H19.9964L20.7552 107.942ZM25.1673 107.942H29.2002L28.4413 110.272H24.4085L25.1673 107.942ZM29.5798 107.942H33.6126L32.8538 110.272H28.8209L29.5798 107.942ZM33.9919 107.942H38.0247L37.2659 110.272H33.233L33.9919 107.942ZM38.4043 107.942H42.4372L41.6783 110.272H37.6455L38.4043 107.942ZM42.8164 107.942H46.8493L46.0904 110.272H42.0576L42.8164 107.942ZM47.2285 107.942H51.4546L50.7592 110.272H46.4697L47.2285 107.942ZM51.8306 107.942H56.3577L55.8015 110.272H51.1348L51.8306 107.942ZM56.7286 107.942H60.8736L60.3484 110.272H56.1724L56.7286 107.942ZM61.2435 107.942H66.2389L65.9988 110.272H60.7179L61.2435 107.942ZM66.6015 107.942H71.453V110.272H66.3614L66.6015 107.942ZM71.8135 107.942H75.6402L75.8377 110.272H71.8135V107.942ZM76.0018 107.942H79.7581L80.2123 110.272H76.1997L76.0018 107.942ZM80.1255 107.942H84.0311L84.6064 110.272H80.5797L80.1255 107.942ZM84.402 107.942H88.22L88.9879 110.272H84.9774L84.402 107.942ZM84.313 107.582L83.7495 105.301H87.3487L88.1007 107.582H84.313ZM87.7287 105.301H91.3967L92.2504 107.582H88.4807L87.7287 105.301ZM95.5074 104.94H91.6465L90.7193 102.462H94.378L95.5074 104.94ZM94.214 102.102H90.5845L89.9641 100.444C91.1862 100.442 92.3531 100.44 93.4555 100.438L94.214 102.102ZM36.0355 100.506L35.5157 102.102H31.4828L32.003 100.506C33.3113 100.506 34.6566 100.506 36.0355 100.506ZM11.0522 100.437C11.5219 100.45 12.5341 100.462 13.9855 100.471L13.4541 102.102H10.1574L11.0522 100.437ZM9.96346 102.462H13.3366L12.5291 104.94H8.63107L9.96346 102.462ZM8.43749 105.301H12.4119L11.6686 107.582H7.21072L8.43749 105.301ZM7.01714 107.942H11.5514L10.7926 110.272H5.76478L7.01714 107.942ZM89.3675 110.272L88.5996 107.942H92.3855L93.2572 110.272H89.3675ZM93.6419 110.272L92.7702 107.942H96.8759L97.9375 110.272H93.6419Z" fill="white"/>
<path d="M92.9845 98.0571L91.1557 94.8566C91.0973 94.7546 90.9891 94.6919 90.8716 94.6919H14.0671C13.9539 94.6919 13.849 94.7503 13.7896 94.8462L11.7982 98.0467C11.7355 98.1476 11.7322 98.2745 11.7899 98.3783C11.8476 98.4821 11.9572 98.5467 12.0758 98.5467H89.5277L89.6268 98.6426L89.9639 98.5971L89.9116 98.5467H92.7C92.8168 98.5467 92.9243 98.4847 92.983 98.3837C93.0418 98.2828 93.0422 98.1584 92.9845 98.0571ZM23.3466 95.3462H27.3741L25.0774 97.8927H21.0503L23.3466 95.3462ZM20.6714 97.8924H16.6439L18.9407 95.3458H22.9677L20.6714 97.8924ZM27.753 95.3462H31.78L29.4833 97.8927H25.4562L27.753 95.3462ZM32.1589 95.3462H36.186L33.8893 97.8927H29.8622L32.1589 95.3462ZM36.5649 95.3462H40.5923L38.2956 97.8927H34.2685L36.5649 95.3462ZM40.9709 95.3462H44.9979L42.7012 97.8927H38.6741L40.9709 95.3462ZM45.3768 95.3462H49.4313L47.3264 97.8927H43.0801L45.3768 95.3462ZM49.8073 95.3462H53.9642L52.281 97.8927H47.7024L49.8073 95.3462ZM54.334 95.3462H58.3925L56.8031 97.8927H52.6509L54.334 95.3462ZM58.7616 95.3462H63.005L62.279 97.8927H57.1722L58.7616 95.3462ZM63.367 95.3462H67.5851V97.8927H62.6406L63.367 95.3462ZM67.9456 95.3462H71.251L71.8487 97.8927H67.9456V95.3462ZM71.6118 95.3462H74.6926L76.0672 97.8927H72.2099L71.6118 95.3462ZM75.0596 95.3462H78.6433L80.3845 97.8927H76.4342L75.0596 95.3462ZM79.0139 95.3462H82.3232L84.6473 97.8927H80.7551L79.0139 95.3462ZM14.2488 95.3462H18.5618L16.2651 97.8927H12.6641L14.2488 95.3462ZM85.0266 97.8924L82.7024 95.3458H86.2122L88.8503 97.8924H85.0266ZM89.2343 97.8924L86.5961 95.3458H90.6816L92.1366 97.8924H89.2343Z" fill="white"/>
<path d="M26.7683 37.1995C26.7683 37.1995 19.4394 41.2046 22.7062 47.567C22.7062 47.567 20.8601 47.6805 19.9513 49.4985C19.0425 51.3165 21.5418 53.509 21.5418 53.509C21.5418 53.509 17.6788 55.7473 18.3605 59.8375C19.0421 63.9277 23.177 66.5409 26.1086 65.1775C26.1086 65.1775 28.583 70.7446 33.9241 69.9494L49.5613 57.1309L47.4455 46.4311L31.4259 35.5946L26.7683 37.1995Z" fill="#273B6D"/>
<path d="M72.5721 37.1995C72.5721 37.1995 79.9009 41.2046 76.6341 47.567C76.6341 47.567 78.4802 47.6805 79.389 49.4985C80.2978 51.3165 77.7985 53.509 77.7985 53.509C77.7985 53.509 81.6616 55.7473 80.9799 59.8375C80.2982 63.9277 76.1633 66.5409 73.2318 65.1775C73.2318 65.1775 70.7573 70.7446 65.4162 69.9494L49.7791 57.1309L51.8948 46.4311L67.9145 35.5946L72.5721 37.1995Z" fill="#273B6D"/>
<path d="M54.7019 54.841V50.9956C54.1254 51.2079 53.4975 51.3612 52.8518 51.4707L52.8695 51.4459C52.8695 51.4459 51.3377 51.6838 49.3813 51.7079C47.4249 51.6838 45.8932 51.4459 45.8932 51.4459L45.9109 51.4707C45.2648 51.3612 44.6372 51.2079 44.0608 50.9956V54.8666C47.4628 56.2769 51.5775 56.5407 54.7019 54.841Z" fill="#D8A884"/>
<path d="M57.2439 50.4785C67.8934 46.0673 72.9505 33.8581 68.5392 23.2087C64.128 12.5592 51.9189 7.50211 41.2694 11.9134C30.6199 16.3246 25.5628 28.5337 29.9741 39.1832C34.3853 49.8327 46.5945 54.8898 57.2439 50.4785Z" fill="#EDC8A9"/>
<path d="M28.4673 29.3252C28.4673 29.3252 27.2914 28.3266 25.2084 28.5804C23.1255 28.8345 22.0588 32.1875 23.1255 34.9817C24.1922 37.7759 27.4641 38.6461 29.5117 37.9824C29.5117 37.9824 27.8512 32.8328 28.4673 29.3252Z" fill="#D8A884"/>
<path d="M70.0153 29.3252C70.0153 29.3252 71.1912 28.3266 73.2742 28.5804C75.3571 28.8345 76.4238 32.1875 75.3571 34.9817C74.2904 37.7759 71.0186 38.6461 68.9709 37.9824C68.9709 37.9824 70.6314 32.8328 70.0153 29.3252Z" fill="#D8A884"/>
<path d="M38.3363 30.4719C38.3363 31.5321 37.4769 32.3919 36.4163 32.3919C35.3561 32.3919 34.4963 31.5325 34.4963 30.4719C34.4963 29.4117 35.3558 28.5522 36.4163 28.5522C37.4769 28.5519 38.3363 29.4113 38.3363 30.4719Z" fill="#684832"/>
<path d="M64.2453 30.4719C64.2453 31.5321 63.3858 32.3919 62.3253 32.3919C61.2651 32.3919 60.4053 31.5325 60.4053 30.4719C60.4053 29.4117 61.2647 28.5522 62.3253 28.5522C63.3855 28.5519 64.2453 29.4113 64.2453 30.4719Z" fill="#684832"/>
<path d="M50.2177 38.8048C47.1095 38.8048 45.9657 36.1667 45.9188 36.0545C45.8478 35.8855 45.9274 35.6912 46.0965 35.6201C46.2652 35.5491 46.4595 35.6284 46.5305 35.7971C46.5724 35.8952 47.5605 38.1414 50.2177 38.1414C52.8691 38.1414 53.7783 35.9013 53.8154 35.8058C53.8825 35.6356 54.0743 35.5517 54.2451 35.6173C54.4157 35.6836 54.5004 35.875 54.4344 36.0455C54.4239 36.0733 53.3327 38.8048 50.2177 38.8048Z" fill="#C49474"/>
<path d="M49.7689 34.4351C49.3255 34.4351 48.9722 34.2715 48.7732 34.1067C48.6319 33.9899 48.6121 33.7808 48.7292 33.6395C48.8453 33.4993 49.053 33.4791 49.1939 33.5934C49.275 33.6568 49.996 34.168 51.026 33.1327C51.5624 32.593 51.5981 31.9441 51.5335 31.4949C51.4052 30.6042 50.7891 29.7354 49.9636 29.2822C49.8028 29.1939 49.744 28.9924 49.8324 28.8316C49.9207 28.6708 50.1226 28.6121 50.283 28.7004C51.2844 29.2501 52.0335 30.31 52.1904 31.4001C52.3122 32.2466 52.066 33.0278 51.4968 33.6006C50.8688 34.2318 50.2628 34.4351 49.7689 34.4351Z" fill="#C49474"/>
<path d="M36.9522 41.2313C39.1789 41.2313 40.984 39.4262 40.984 37.1995C40.984 34.9728 39.1789 33.1677 36.9522 33.1677C34.7255 33.1677 32.9204 34.9728 32.9204 37.1995C32.9204 39.4262 34.7255 41.2313 36.9522 41.2313Z" fill="#D69585"/>
<path d="M62.844 41.2313C65.0707 41.2313 66.8758 39.4262 66.8758 37.1995C66.8758 34.9728 65.0707 33.1677 62.844 33.1677C60.6173 33.1677 58.8123 34.9728 58.8123 37.1995C58.8123 39.4262 60.6173 41.2313 62.844 41.2313Z" fill="#D69585"/>
<path d="M51.9837 71.276C53.1892 65.6505 54.5782 60.3945 55.301 54.9975C54.8972 54.9077 54.7022 54.8897 54.7022 54.8897V54.8407C51.5774 56.5404 47.4628 56.2765 44.0604 54.8663V54.8894C44.0604 54.8894 43.8831 54.9052 43.5132 54.9853C45.6762 63.0492 47.8225 71.1217 49.6405 79.3579C50.3994 76.6308 51.3143 73.9534 51.9837 71.276Z" fill="#77C3ED"/>
<path d="M64.237 58.7995C59.2928 56.0944 56.4481 55.2526 55.301 54.9974C54.5783 60.3943 53.1893 65.65 51.9838 71.2759C51.3143 73.9533 50.3994 76.6307 49.6406 79.3585C47.8222 71.1219 45.6762 63.0497 43.5132 54.9858C42.4004 55.2274 39.5431 56.054 34.5254 58.7995C27.8411 62.4571 25.571 81.564 25.571 89.3204L25.9611 89.6896H46.758H52.005H72.802L73.192 89.3204C73.1913 81.564 70.9213 62.4571 64.237 58.7995Z" fill="white"/>
<path d="M61.5513 57.1305L51.209 68.7081L51.6968 69.144L57.287 62.8865L60.9499 65.1501L49.5619 78.7551L38.1735 65.1501L41.8369 62.8865L47.4267 69.144L47.9145 68.7081L37.5722 57.1305L37.0845 57.5663L41.3942 62.3912L37.1876 64.9907L49.156 79.2898V88.9986H49.8103V79.4772L61.9359 64.9907L57.7293 62.3912L62.039 57.5663L61.5513 57.1305Z" fill="#77C3ED"/>
<path d="M33.9243 88.9928L34.5783 89.0047C34.6532 84.8745 35.7845 73.4476 35.7956 73.333L35.145 73.2681C35.1338 73.3834 34 84.8363 33.9243 88.9928Z" fill="#77C3ED"/>
<path d="M64.2166 73.2681L63.5659 73.333C63.5771 73.448 64.7083 84.8745 64.7833 89.0047L65.4372 88.9928C65.3619 84.8363 64.2281 73.3834 64.2166 73.2681Z" fill="#77C3ED"/>
<path d="M28.4673 29.3252C28.4673 29.3252 34.5211 26.7902 35.7958 21.3035C35.7958 21.3035 38.3481 22.2181 44.0598 21.3035C49.7715 20.3889 52.8418 17.7472 54.4564 15.4105L53.0228 7.38372C53.0228 7.38372 48.9611 2.81157 40.9837 2.60825C33.0063 2.40493 27.8245 8.50125 27.8245 8.50125C27.8245 8.50125 23.0491 9.61879 21.3216 13.8863C19.5941 18.1539 22.7055 21.8118 22.7055 21.8118C22.7055 21.8118 19.8991 26.9835 24.2679 29.3256C24.2686 29.3252 25.2488 28.6086 28.4673 29.3252Z" fill="#273B6D"/>
<path d="M54.4569 15.4102C54.4569 15.4102 65.8038 29.6991 70.0151 29.3249C70.0151 29.3249 71.0699 28.3386 73.274 28.5801C73.274 28.5801 76.2801 23.2336 72.3738 20.8965C72.3738 20.8965 74.5526 16.629 72.3738 13.0727C70.195 9.51642 64.502 8.90682 64.502 8.90682C64.502 8.90682 58.3069 2.40386 53.0235 7.38265L52.2207 15.1048L54.4569 15.4102Z" fill="#273B6D"/>
<path d="M63.9017 76.7299H62.5293C62.5293 76.7299 61.0347 57.6976 54.7019 54.8666V53.5087C54.7019 53.5087 63.0643 55.2401 63.9017 76.7299Z" fill="#7C7C7C"/>
<path d="M65.7141 80.7599C67.3508 79.1232 67.3508 76.4696 65.7141 74.8329C64.0774 73.1961 61.4237 73.1961 59.787 74.8329C58.1503 76.4696 58.1503 79.1232 59.787 80.7599C61.4237 82.3966 64.0774 82.3966 65.7141 80.7599Z" fill="#5E5E5E"/>
<path d="M64.5019 77.7966C64.5019 78.7631 63.7185 79.5464 62.752 79.5464C61.7856 79.5464 61.0022 78.7631 61.0022 77.7966C61.0022 76.8301 61.7856 76.0468 62.752 76.0468C63.7185 76.0468 64.5019 76.8301 64.5019 77.7966Z" fill="#7C7C7C"/>
<path d="M34.8601 76.7299L36.2952 76.0472C36.2952 76.0472 37.7271 57.6976 44.0599 54.867V53.509C44.0599 53.509 35.6975 55.2401 34.8601 76.7299Z" fill="#7C7C7C"/>
<path d="M29.8313 86.3317C29.8313 86.3317 27.85 81.4545 30.3649 77.7966C32.8797 74.1386 37.6959 74.7864 39.4601 75.6246C41.224 76.4627 44.3106 80.54 42.4054 85.9885L41.1862 85.6839C41.1862 85.6839 42.1386 80.5782 40.9576 78.7872C39.7763 76.9963 36.8426 75.7389 32.9943 77.3395C29.146 78.9401 31.1655 85.9506 31.1655 85.9506L29.8313 86.3317Z" fill="#7C7C7C"/>
<path d="M41.1857 85.6838C41.1857 85.6838 39.9283 86.8648 40.4237 87.7033C40.919 88.5415 42.4431 88.5036 42.4049 85.9888L41.1857 85.6838Z" fill="#565656"/>
<path d="M29.8313 86.3317L31.1648 85.9507C31.1648 85.9507 31.8126 86.0978 32.1554 86.9388C32.4982 87.7798 32.1554 88.3894 30.9932 88.3894C29.8313 88.3891 29.8313 86.3317 29.8313 86.3317Z" fill="#565656"/>
<path d="M99.4642 40.7064C94.6329 40.7064 90.428 43.3835 88.2485 47.3341C85.1183 46.4898 80.3396 45.342 79.8897 46.1643C79.624 46.6503 84.1118 50.9852 86.6648 53.3922C86.6645 53.4312 86.662 53.4697 86.662 53.509C86.662 60.5798 92.3938 66.3113 99.4646 66.3113C106.535 66.3113 112.267 60.5794 112.267 53.509C112.266 46.4383 106.535 40.7064 99.4642 40.7064Z" fill="#E5826E"/>
<path d="M100.493 45.4321C96.9869 45.2161 93.4807 46.3492 93.4807 50.6106H95.2068C95.2068 50.6106 94.9872 48.6145 96.3899 47.6437C97.7926 46.6729 100.925 46.4029 102.381 47.5896C103.838 48.7764 103.622 51.4736 102.759 52.1748C101.896 52.8759 100.015 53.8471 99.2598 54.3323C98.5046 54.8179 98.2158 55.2494 98.1444 56.6521C98.0731 58.0548 98.1444 58.8637 98.1444 58.8637H99.7382C99.7382 58.8637 99.7923 56.8677 99.7382 56.544C99.6845 56.2202 99.9541 55.1413 101.518 54.4401C103.082 53.7389 104.863 52.9837 105.025 50.8799C105.187 48.7764 104 45.6476 100.493 45.4321Z" fill="white"/>
<path d="M99.0371 60.0238C98.3071 60.0238 97.7156 60.6154 97.7156 61.3454C97.7156 62.0754 98.3071 62.667 99.0371 62.667C99.7671 62.667 100.359 62.0754 100.359 61.3454C100.359 60.6154 99.7671 60.0238 99.0371 60.0238Z" fill="white"/>
<path d="M122.903 0H81.6172C80.1781 0 79.0008 1.17738 79.0008 2.61647V31.5473L77.8169 39.7694L89.8909 34.8389H122.903C124.342 34.8389 125.519 33.6616 125.519 32.2225V2.61647C125.52 1.17738 124.342 0 122.903 0Z" fill="#FFE164"/>
<path d="M120.034 5.1587H84.5476C84.4081 5.1587 84.2949 5.01234 84.2949 4.83173C84.2949 4.65112 84.4081 4.50476 84.5476 4.50476H120.034C120.174 4.50476 120.287 4.65112 120.287 4.83173C120.287 5.01198 120.174 5.1587 120.034 5.1587Z" fill="white"/>
<path d="M120.034 8.21571H84.5476C84.4081 8.21571 84.2949 8.06935 84.2949 7.88874C84.2949 7.70813 84.4081 7.56177 84.5476 7.56177H120.034C120.174 7.56177 120.287 7.70813 120.287 7.88874C120.287 8.06935 120.174 8.21571 120.034 8.21571Z" fill="white"/>
<path d="M120.034 11.2726H84.5476C84.4081 11.2726 84.2949 11.1262 84.2949 10.9456C84.2949 10.765 84.4081 10.6187 84.5476 10.6187H120.034C120.174 10.6187 120.287 10.765 120.287 10.9456C120.287 11.1262 120.174 11.2726 120.034 11.2726Z" fill="white"/>
<path d="M120.034 14.3296H84.5476C84.4081 14.3296 84.2949 14.1832 84.2949 14.0026C84.2949 13.822 84.4081 13.6757 84.5476 13.6757H120.034C120.174 13.6757 120.287 13.822 120.287 14.0026C120.287 14.1832 120.174 14.3296 120.034 14.3296Z" fill="white"/>
<path d="M120.034 17.3866H84.5476C84.4081 17.3866 84.2949 17.2402 84.2949 17.0596C84.2949 16.879 84.4081 16.7327 84.5476 16.7327H120.034C120.174 16.7327 120.287 16.879 120.287 17.0596C120.287 17.2402 120.174 17.3866 120.034 17.3866Z" fill="white"/>
<path d="M120.034 20.4436H84.5476C84.4081 20.4436 84.2949 20.2972 84.2949 20.1166C84.2949 19.936 84.4081 19.7897 84.5476 19.7897H120.034C120.174 19.7897 120.287 19.936 120.287 20.1166C120.287 20.2972 120.174 20.4436 120.034 20.4436Z" fill="white"/>
<path d="M120.034 23.3243H84.5476C84.4081 23.3243 84.2949 23.178 84.2949 22.9974C84.2949 22.8168 84.4081 22.6704 84.5476 22.6704H120.034C120.174 22.6704 120.287 22.8168 120.287 22.9974C120.287 23.178 120.174 23.3243 120.034 23.3243Z" fill="white"/>
<path d="M120.034 26.3814H84.5476C84.4081 26.3814 84.2949 26.235 84.2949 26.0544C84.2949 25.8738 84.4081 25.7274 84.5476 25.7274H120.034C120.174 25.7274 120.287 25.8738 120.287 26.0544C120.287 26.235 120.174 26.3814 120.034 26.3814Z" fill="white"/>
<path d="M120.034 29.4384H84.5476C84.4081 29.4384 84.2949 29.292 84.2949 29.1114C84.2949 28.9308 84.4081 28.7844 84.5476 28.7844H120.034C120.174 28.7844 120.287 28.9308 120.287 29.1114C120.287 29.292 120.174 29.4384 120.034 29.4384Z" fill="white"/>
</svg>
