<svg width="135" height="99" viewBox="0 0 135 99" fill="none" xmlns="http://www.w3.org/2000/svg">
<path d="M6.20935 75.7745C6.20935 78.0279 4.98583 79.9423 3.27966 80.6466L3.33462 80.922H17.1288C17.3403 80.934 17.5518 80.9401 17.7665 80.9401C24.3915 80.9401 29.718 75.3625 29.3016 68.6427C28.9415 62.889 24.2594 58.2035 18.5056 57.8471C11.7846 57.4291 6.20917 62.7534 6.20917 69.3817L6.21136 69.5999H6.20917V75.7745H6.20935Z" fill="#F2F2F2"/>
<path d="M11.0733 82.0315C5.07397 82.0315 0.208984 86.8954 0.208984 92.8954V98.1674H35.3201V92.8954C35.3201 86.8954 30.4562 82.0315 24.4558 82.0315H11.0733Z" fill="#F2F2F2"/>
<path d="M115.162 54.6149V7.10695C115.162 3.69698 112.501 0.920715 109.229 0.920715H24.6031C21.3342 0.920715 18.6708 3.6968 18.6708 7.10695V55.2759C20.0323 55.3817 21.3011 55.6206 22.462 56.0001V7.10695C22.462 5.7846 23.4215 4.70849 24.6031 4.70849H109.229C110.413 4.70849 111.373 5.7846 111.373 7.10695V55.7941C112.518 55.2545 113.787 54.8585 115.162 54.6149Z" fill="#F2F2F2"/>
<path d="M35.4873 71.2007C35.4873 75.9485 39.3357 79.7979 44.0805 79.7979C48.8321 79.7979 52.6838 75.9485 52.6838 71.2007C52.6838 66.4509 48.8321 62.5996 44.0805 62.5996C39.3357 62.5998 35.4873 66.4509 35.4873 71.2007Z" fill="#F2F2F2"/>
<path d="M55.639 69.1734C55.639 75.6014 60.8531 80.8143 67.281 80.8143C73.7122 80.8143 78.9251 75.6014 78.9251 69.1734C78.9251 62.7435 73.712 57.5304 67.281 57.5304C60.8531 57.5304 55.639 62.7435 55.639 69.1734Z" fill="#F2F2F2"/>
<path d="M60.5424 81.9138C54.4979 81.9138 49.5988 86.8125 49.5988 92.8577V98.1676H84.9652V92.8577C84.9652 86.8125 80.0684 81.9138 74.0194 81.9138H60.5424Z" fill="#F2F2F2"/>
<path d="M116.761 57.5304C110.331 57.5304 105.119 62.7435 105.119 69.1734C105.119 75.6014 110.331 80.8143 116.761 80.8143C123.191 80.8143 128.404 75.6014 128.404 69.1734C128.404 62.7435 123.191 57.5304 116.761 57.5304Z" fill="#F2F2F2"/>
<path d="M110.025 81.9138C103.98 81.9138 99.079 86.8125 99.079 92.8577V98.1676H134.443V92.8577C134.443 86.8125 129.547 81.9138 123.499 81.9138H110.025Z" fill="#F2F2F2"/>
<path d="M85.5028 80.6097C83.6281 80.6097 81.9023 81.2534 80.531 82.3268C83.9983 84.4746 86.3311 88.2688 86.4148 92.6162H97.7881C97.8586 89.1021 99.4115 85.9547 101.851 83.7618C100.372 81.8476 98.0613 80.6095 95.4565 80.6095L85.5028 80.6097Z" fill="#F2F2F2"/>
<path d="M32.7141 83.7619C35.1504 85.9549 36.7068 89.1023 36.7762 92.6164H48.1802C48.264 88.2757 50.5902 84.4845 54.0442 82.3368C52.6696 81.2585 50.9449 80.6099 49.0614 80.6099H39.1056C36.503 80.6097 34.1901 81.8478 32.7141 83.7619Z" fill="#F2F2F2"/>
<path d="M89.8457 62.6333C85.5556 62.8999 82.0619 66.3903 81.7955 70.6836C81.4827 75.6935 85.4544 79.8523 90.3931 79.8523L90.869 79.839H101.155L101.195 79.6325C99.9227 79.1076 99.0117 77.6808 99.0117 76.0016V71.3965H99.0073L99.0117 71.2341C99.0117 66.2918 94.8539 62.3217 89.8457 62.6333Z" fill="#F2F2F2"/>
<path d="M81.1237 13.505C78.1829 10.7806 73.7938 8.94524 69.1623 8.85315L69.0522 25.9461L81.1237 13.505Z" fill="#F2F2F2"/>
<path d="M65.9462 8.73761C53.8449 8.73761 44.9089 18.5486 44.9089 30.6486C44.9089 42.7483 54.7161 52.5597 66.8196 52.5597C75.3016 52.5597 83.1933 47.5483 86.1009 41.0836L66.3866 30.6486V8.74871L65.9462 8.73761Z" fill="#F2F2F2"/>
<path d="M75.8995 32.4479L80.3977 18.115L77.2422 21.3583L74.0712 31.4682L75.8995 32.4479Z" fill="#AAD4C8"/>
<path d="M73.5262 31.1758L76.3085 22.3187L73.1517 25.5601L71.6945 30.1961L73.5262 31.1758Z" fill="#AAD4C8"/>
<path d="M83.0194 36.2604L87.4568 22.1205C87.0825 21.2014 86.6463 20.3191 86.1494 19.4749L81.1865 35.2808L83.0194 36.2604Z" fill="#AAD4C8"/>
<path d="M85.3928 37.5321L88.7456 26.8543C88.5596 25.5452 88.2401 24.2642 87.8073 23.0323L83.5602 36.5506L85.3928 37.5321Z" fill="#AAD4C8"/>
<path d="M87.0074 38.3977C88.3842 35.735 88.9305 32.6081 88.9305 29.4058C88.9305 29.0616 88.9194 28.7195 88.8963 28.3782L85.9324 37.8217L87.0074 38.3977Z" fill="#AAD4C8"/>
<path d="M76.4404 32.7382L78.2733 33.7167L83.7716 16.1998C83.5315 15.9288 83.2858 15.6651 83.0303 15.4101L81.332 17.1554L76.4404 32.7382Z" fill="#AAD4C8"/>
<path d="M72.2174 26.5223L69.6886 29.12L71.1534 29.9064L72.2174 26.5223Z" fill="#AAD4C8"/>
<path d="M80.6458 34.99L85.7299 18.7897C85.274 18.071 84.7739 17.3842 84.2364 16.7372L78.8131 34.0101L80.6458 34.99Z" fill="#AAD4C8"/>
</svg>
