<svg width="69" height="108" viewBox="0 0 69 108" fill="none" xmlns="http://www.w3.org/2000/svg">
<path fill-rule="evenodd" clip-rule="evenodd" d="M54.1082 28.1301C54.8346 24.368 51.8299 24.3358 49.5578 23.576C49.6828 25.4743 48.3883 25.952 47.2795 26.6092C45.8601 25.0313 45.2648 23.8037 42.7229 25.0957C43.8652 22.9448 46.068 21.8645 46.5209 19.0206C45.1571 19.1196 44.745 18.2682 45.0012 16.7423C44.8416 15.8946 44.1584 15.5617 43.4852 15.2264C41.9556 12.3243 40.8765 13.427 36.6528 12.9505C36.8224 14.3823 35.7964 14.6237 35.893 15.9849C35.6405 15.9849 35.3881 15.9849 35.1331 15.9849C34.3758 12.1969 37.4609 11.1041 32.8598 9.15501C31.3921 9.4644 32.2583 12.0942 29.8229 11.4333C32.8462 9.23917 29.2808 9.23297 30.5827 6.12182C25.1549 5.68621 22.6687 5.55503 18.4388 3.08492C15.9699 2.89186 16.6592 5.86071 15.4007 6.88043C14.1508 6.86558 14.9774 4.77539 13.8835 4.60213C13.7572 5.73819 14.1545 7.40019 13.1261 7.63655C11.7005 6.18988 13.5741 6.26289 13.1261 3.84104C12.1138 3.84104 11.1015 3.84104 10.0904 3.84104C10.5718 7.86921 6.94957 7.78631 6.29244 10.671C8.17225 12.8478 6.92606 18.3585 4.77647 19.0194C4.18369 19.1889 3.8904 19.653 4.01539 20.5391C-0.188506 24.4695 4.18865 24.7887 2.49694 28.8874C3.25555 28.8874 4.01539 28.8874 4.77647 28.8874C5.02521 28.8874 5.27891 28.8874 5.53384 28.8874C5.16505 29.7809 4.72573 30.6039 4.01539 31.167C3.00309 30.4084 2.52663 29.1139 0.980957 28.8874C5.72318 37.3002 8.76999 47.4059 17.679 51.6568C18.7296 52.1246 17.7941 54.5799 19.1962 54.6925C20.7963 60.8467 19.237 71.023 20.7146 75.1823C20.758 75.6464 20.831 76.0807 21.4733 75.9434C20.3025 82.0679 21.2443 85.6073 22.2319 91.1217C23.6686 91.2925 23.9062 90.2653 25.2688 90.3631C25.3962 94.0299 28.7784 94.4408 28.3044 98.7127C26.7402 98.5036 27.5891 95.885 26.0286 95.6771C24.8517 99.5815 28.0309 101.641 26.7835 103.266C28.2784 103.493 28.2921 102.243 29.0606 101.746C29.459 107.473 28.3539 106.442 34.377 107.818C33.2929 104.48 35.0156 103.999 36.6541 101.746C36.1405 99.9824 33.2075 100.641 32.861 98.7127C35.6999 96.7525 35.1888 93.3839 33.6196 90.3631C38.321 91.983 35.6257 86.7483 36.6553 86.5676C44.4567 88.4697 43.6077 79.9221 38.9311 78.9803C38.9311 78.7254 38.9311 78.4717 38.9311 78.2217C39.186 78.2217 39.4373 78.2217 39.6922 78.2217C41.1673 79.2822 44.578 80.6955 46.5234 78.9803C46.6397 77.0881 45.3279 76.6302 45.0037 75.1811C47.2845 77.374 47.9502 73.6651 48.0393 71.388C51.0069 73.4114 51.3658 67.4415 51.075 63.7995C53.9857 62.4085 55.274 59.3951 60.182 60.004C64.678 54.3782 61.0483 40.6329 68.5341 37.9932C68.5341 35.7149 68.5341 33.4403 68.5341 31.1658C63.5568 30.6522 59.1066 23.8346 54.1082 28.1301Z" fill="#F2F2F2"/>
<path d="M43.8889 58.4015C39.5724 53.1792 34.2435 57.9226 34.2435 57.9226C34.2435 57.9226 28.9147 53.1804 24.5982 58.4015C20.2817 63.6239 34.2435 74.2815 34.2435 74.2815C34.2435 74.2815 48.2054 63.6239 43.8889 58.4015Z" fill="#FD7272"/>
<path d="M40.4658 64.2673C40.3259 64.2673 40.2009 64.3552 40.1539 64.4864L39.8767 65.2611L39.3062 61.8851C39.2814 61.7378 39.1602 61.6252 39.0104 61.6104C38.8619 61.5943 38.7208 61.6846 38.6689 61.8244L37.7333 64.3441H35.1493C34.9971 64.3441 34.8647 64.448 34.8276 64.5953L34.3152 66.6657L32.5913 61.9074C32.5468 61.7824 32.4317 61.697 32.2993 61.6896C32.1656 61.6809 32.0431 61.7539 31.9837 61.8715L30.761 64.3119L29.3738 59.9632C29.3292 59.8234 29.198 59.7293 29.052 59.733C28.906 59.7355 28.7785 59.8345 28.7389 59.9756L27.3925 64.8564H25.1921C25.327 65.0767 25.4681 65.2982 25.6166 65.5185H27.6449C27.7934 65.5185 27.9246 65.4195 27.9642 65.2759L29.0817 61.2255L30.3786 65.2883C30.4195 65.417 30.5346 65.5074 30.6682 65.5173C30.8043 65.5272 30.9293 65.4554 30.99 65.3353L32.2312 62.8565L34.064 67.9143C34.111 68.0455 34.236 68.1321 34.3746 68.1321C34.3808 68.1321 34.3858 68.1321 34.3919 68.1321C34.538 68.1247 34.6605 68.022 34.6964 67.8809L35.4092 65.0061H37.9635C38.1021 65.0061 38.2258 64.9208 38.2741 64.7908L38.8594 63.2142L39.4349 66.6211C39.4596 66.7696 39.5822 66.8823 39.7319 66.8959C39.8829 66.9082 40.0227 66.8191 40.0722 66.678L40.6972 64.9294H43.249C43.3851 64.7091 43.5138 64.4876 43.6351 64.2673H40.4658Z" fill="white"/>
<path d="M34.8386 2.81035C30.5221 -2.41204 25.1932 2.33019 25.1932 2.33019C25.1932 2.33019 19.8644 -2.41204 15.5479 2.81035C11.2314 8.03273 25.1932 18.6904 25.1932 18.6904C25.1932 18.6904 39.1551 8.03273 34.8386 2.81035Z" fill="#FD7272"/>
<path d="M31.4142 8.67618C31.2744 8.67618 31.1494 8.76406 31.1024 8.89648L30.8252 9.67116L30.2547 6.29518C30.2299 6.14667 30.1086 6.0353 29.9589 6.02045C29.8104 6.00436 29.6693 6.0947 29.6173 6.23454L28.6818 8.75415H26.0978C25.9456 8.75415 25.8132 8.85811 25.7761 9.00538L25.2637 11.0758L23.5398 6.31746C23.4953 6.19247 23.3802 6.10709 23.2478 6.09966C23.1141 6.091 22.9916 6.16276 22.9322 6.28156L21.7095 8.72198L20.3223 4.3733C20.2777 4.23346 20.1465 4.1394 20.0005 4.14311C19.8545 4.14559 19.727 4.24459 19.6874 4.38567L18.341 9.26649H16.1406C16.2755 9.48677 16.4166 9.7083 16.5651 9.92858H18.5934C18.7419 9.92858 18.8731 9.82958 18.9127 9.68602L20.0302 5.63559L21.3259 9.69839C21.3667 9.82709 21.4818 9.91743 21.6155 9.92733C21.7516 9.93723 21.8766 9.86547 21.9372 9.74543L23.1785 7.26664L25.0113 12.3244C25.0595 12.4556 25.1833 12.5422 25.3219 12.5422C25.3281 12.5422 25.333 12.5422 25.3392 12.5422C25.4852 12.5348 25.6077 12.4321 25.6436 12.291L26.3565 9.41624H28.9107C29.0493 9.41624 29.1731 9.32961 29.2213 9.20091L29.8067 7.62429L30.3821 11.0312C30.4069 11.1797 30.5294 11.2923 30.6791 11.3059C30.8301 11.3183 30.97 11.2292 31.0195 11.0881L31.6444 9.33951H34.1962C34.3323 9.11923 34.461 8.89771 34.5823 8.67743H31.4142V8.67618Z" fill="white"/>
</svg>
