<svg width="162" height="155" viewBox="0 0 162 155" fill="none" xmlns="http://www.w3.org/2000/svg">
<path d="M35.9579 41.283L38.2392 35.0475L41.5849 42.0435L45.8432 36.5686L48.0497 40.3903L51.6225 27.5956L54.5121 44.8111L56.7934 36.2032L58.3142 41.7394L68.808 42.0435" stroke="#F2F2F2" stroke-width="0.912504" stroke-miterlimit="10" stroke-linecap="round" stroke-linejoin="round"/>
<path opacity="0.14" d="M129.329 98.013C147.373 79.9693 147.373 50.7147 129.329 32.6711C111.285 14.6274 82.0308 14.6274 63.9871 32.6711C45.9435 50.7147 45.9435 79.9693 63.9871 98.013C82.0308 116.057 111.285 116.057 129.329 98.013Z" fill="#00D3C2"/>
<path d="M1.05167 112.032C1.05167 112.032 30.4871 102.613 36.2811 92.7156C41.5471 83.72 56.1927 81.3159 58.7202 79.4661C62.2814 76.8597 70.9459 72.1152 74.5667 71.7107C77.9847 71.3287 81.0746 73.5678 80.0731 77.2657C78.889 81.639 61.1395 88.5299 61.1395 88.5299C61.1395 88.5299 60.5327 97.7386 73.4932 100.122C86.4538 102.505 92.1147 101.661 99.1163 99.5759C106.118 97.4902 107.906 97.0434 107.906 97.0434C107.906 97.0434 109.542 91.6971 112.02 90.4583C114.701 89.1174 116.887 90.2596 117.383 91.0541C117.879 91.8486 115.019 100.036 114.1 102.469C113.181 104.902 105.998 110.388 105.998 110.388C105.352 110.88 104.821 111.508 104.441 112.226C102.98 114.991 98.8666 121.401 97.428 122.12C95.6404 123.014 90.6745 124.107 90.6745 124.107C90.6745 124.107 89.7744 126.038 85.8748 128.152C81.1982 130.687 77.7565 134.624 68.2225 134.128C62.0921 133.808 46.2674 129.104 33.3628 132.481C27.8754 133.917 0 154.453 0 154.453L1.05167 112.032Z" fill="#FFB681"/>
<g opacity="0.11">
<path opacity="0.9608" d="M97.9016 73.852C96.9007 73.2769 95.2822 73.2769 94.2813 73.852L36.8046 107.265C35.825 107.84 35.825 108.777 36.8259 109.352L66.7461 126.623C67.747 127.198 69.3655 127.198 70.3664 126.623L127.822 93.2098C128.802 92.6347 128.802 91.6978 127.801 91.123L97.9016 73.852Z" fill="#1D4B5B"/>
</g>
<g opacity="0.9608">
<path d="M128.423 88.2721V92.4518C128.466 92.4305 128.487 92.4093 128.529 92.3877V88.2084C128.508 88.2296 128.465 88.2506 128.423 88.2721Z" fill="#1D546D"/>
<path d="M128.53 88.2084V92.3878C128.955 92.111 129.168 91.7702 129.168 91.4084V87.2288C129.168 87.5905 128.955 87.9313 128.53 88.2084Z" fill="#1D546D"/>
</g>
<g opacity="0.9608">
<path d="M36.6599 103.371V107.55C36.6599 107.806 36.7664 108.062 37.0007 108.274V104.095C36.7667 103.882 36.6599 103.626 36.6599 103.371Z" fill="#1D546D"/>
<path d="M37.0005 104.094V108.274C37.107 108.381 37.2563 108.487 37.4266 108.594V104.414C37.2563 104.329 37.107 104.222 37.0005 104.094Z" fill="#1D546D"/>
</g>
<path opacity="0.9608" d="M98.5026 68.9143C97.5017 68.3395 95.8832 68.3395 94.8823 68.9143L37.4053 102.327C36.4257 102.902 36.4257 103.839 37.4266 104.414L67.3468 121.685C68.3477 122.26 69.9662 122.26 70.9671 121.685L128.423 88.272C129.402 87.697 129.402 86.7601 128.401 86.185L98.5026 68.9143Z" fill="#1D546D"/>
<g opacity="0.9608">
<path d="M67.3256 121.685V125.865C67.3681 125.886 67.4108 125.907 67.4533 125.929V121.749C67.4108 121.728 67.3681 121.706 67.3256 121.685Z" fill="#1D546D"/>
<path d="M67.4535 121.77V125.95C68.2629 126.354 69.434 126.418 70.3712 126.12V121.941C69.455 122.238 68.2838 122.175 67.4535 121.77Z" fill="#1D546D"/>
<path d="M70.3708 121.94V126.12C70.5836 126.056 70.7754 125.971 70.9459 125.865V121.685C70.7754 121.791 70.5839 121.876 70.3708 121.94Z" fill="#1D546D"/>
</g>
<path d="M128.423 88.2722L70.9458 121.685C69.9449 122.26 68.3267 122.26 67.3258 121.685L37.216 104.293C36.8506 104.03 36.6599 103.701 36.6599 103.371V107.55C36.6599 107.892 36.8636 108.232 37.2535 108.498V108.506L67.3256 125.865C68.3264 126.44 69.9446 126.44 70.9455 125.865L128.423 92.4518C128.912 92.175 129.168 91.7917 129.168 91.4084V87.2288C129.168 87.6118 128.913 87.9741 128.423 88.2722Z" fill="#164859"/>
<path d="M90.9425 72.3428L44.2838 99.4734L75.3755 117.447L122.055 90.3164L90.9425 72.3428Z" fill="#EDF8FF"/>
<path d="M114.006 81.5427C113.75 81.3937 113.324 81.3937 113.048 81.5427C112.792 81.6917 112.792 81.9472 113.048 82.0962C113.303 82.2453 113.729 82.2453 114.006 82.0962C114.283 81.926 114.283 81.6917 114.006 81.5427Z" fill="#173E49"/>
<path d="M107.787 78.0928C107.595 77.9863 107.297 77.9863 107.106 78.0928C106.914 78.1993 106.914 78.3696 107.106 78.4761L111.194 80.84C111.386 80.9465 111.684 80.9465 111.876 80.84C112.068 80.7335 112.068 80.5632 111.876 80.4354L107.787 78.0928Z" fill="#173E49"/>
<path d="M56.2493 110.158C56.0388 110.033 55.6883 110.033 55.4777 110.158L54.9868 110.447C54.7765 110.571 54.7765 110.774 54.9868 110.891L55.5445 111.213C55.7548 111.337 56.1055 111.337 56.3161 111.213L56.807 110.924C57.0173 110.799 57.0173 110.597 56.807 110.48L56.2493 110.158Z" stroke="#EDF8FF" stroke-width="0.212955" stroke-miterlimit="10"/>
<path d="M66.0008 115.849L64.9375 115.238" stroke="#EDF8FF" stroke-width="0.212955" stroke-miterlimit="10" stroke-linecap="round"/>
<path d="M65.612 116.115L64.5485 115.504" stroke="#EDF8FF" stroke-width="0.212955" stroke-miterlimit="10" stroke-linecap="round"/>
<path d="M65.1779 116.408L64.1146 115.797" stroke="#EDF8FF" stroke-width="0.212955" stroke-miterlimit="10" stroke-linecap="round"/>
<path d="M47.2467 105.206L47.4363 106.114H46.3258" stroke="#EDF8FF" stroke-width="0.212955" stroke-miterlimit="10" stroke-linecap="round" stroke-linejoin="round"/>
<path d="M117.382 93.0836L122.055 90.3164L90.9425 72.3428L86.2904 75.1101L117.382 93.0836Z" fill="#C7E0EF"/>
<path d="M70.1485 87.0636L69.3405 87.5203L95.4274 102.586L96.2487 102.128L70.1485 87.0636Z" fill="white"/>
<path d="M67.1104 88.8994L66.3024 89.3564L92.3893 104.421L93.2106 103.964L67.1104 88.8994Z" fill="white"/>
<path d="M64.0055 90.6688L63.1975 91.1258L89.2845 106.191L90.1057 105.734L64.0055 90.6688Z" fill="white"/>
<path d="M60.9677 92.505L60.1597 92.962L86.2466 108.027L87.0679 107.57L60.9677 92.505Z" fill="white"/>
<path d="M115.83 88.4311C116.049 88.5581 116.051 88.7661 115.831 88.8936L97.327 99.6893C97.1084 99.8162 96.7491 99.8162 96.5292 99.6893L71.7549 85.3793C71.5347 85.2524 71.5336 85.0443 71.7522 84.9174L90.2567 74.1217C90.4761 73.9942 90.8351 73.9942 91.0553 74.1211L115.83 88.4311Z" fill="#00D3C2"/>
<path d="M76.5494 107.698C77.8497 108.448 77.855 109.665 76.5629 110.416C75.2709 111.167 73.1706 111.167 71.87 110.417L56.4198 101.497C55.1195 100.746 55.1126 99.5281 56.4046 98.7773C57.6966 98.0264 59.7989 98.0264 61.0992 98.7773L76.5494 107.698Z" fill="#00D3C2"/>
<path d="M60.138 99.9813C60.1573 100.209 59.9997 100.418 59.6653 100.612C59.3328 100.806 58.9688 100.902 58.5755 100.898C58.1804 100.895 57.7777 100.774 57.3668 100.537L56.6287 100.111L58.7698 98.8667L59.5334 99.3077C59.9172 99.529 60.1187 99.7536 60.138 99.9813ZM58.5121 100.517C58.7395 100.522 58.9591 100.463 59.1713 100.34C59.3816 100.218 59.4837 100.089 59.4793 99.9553C59.4732 99.8207 59.3479 99.6838 59.1037 99.5425L58.8341 99.3869L57.5324 100.143L57.8382 100.32C58.0589 100.447 58.283 100.512 58.5121 100.517Z" fill="white"/>
<path d="M61.6256 100.515L59.4845 101.76L59.0029 101.482L61.1444 100.237L61.6256 100.515Z" fill="white"/>
<path d="M63.2721 101.466L62.0628 103.248L61.5507 102.953L61.812 102.568L60.9071 102.046L60.2459 102.2L59.7338 101.904L62.8052 101.197L63.2721 101.466ZM61.5106 101.907L62.0499 102.218L62.4042 101.702L61.5106 101.907Z" fill="white"/>
<path d="M65.5013 102.694C65.8106 102.873 65.9779 103.088 66.0046 103.337L65.3953 103.402C65.384 103.297 65.3528 103.213 65.3037 103.147C65.2529 103.082 65.1804 103.021 65.0863 102.967C64.9036 102.862 64.6867 102.807 64.4378 102.807C64.1889 102.807 63.9637 102.865 63.7606 102.983C63.5575 103.101 63.4554 103.23 63.4562 103.369C63.4534 103.509 63.537 103.629 63.7034 103.725C63.8698 103.821 64.0415 103.882 64.2151 103.909L64.8048 103.567L65.2896 103.847L64.5291 104.289C64.0765 104.302 63.6629 104.201 63.2845 103.983C62.9661 103.799 62.806 103.586 62.7994 103.34C62.7925 103.095 62.9484 102.881 63.2666 102.696C63.5848 102.511 63.9576 102.42 64.3886 102.423C64.8197 102.426 65.1917 102.516 65.5013 102.694Z" fill="white"/>
<path d="M68.7571 104.632L66.616 105.877L66.1344 105.599L66.4479 104.226L65.1068 105.006L64.6252 104.728L66.7667 103.483L67.217 103.743L66.8969 105.156L68.2759 104.355L68.7571 104.632Z" fill="white"/>
<path d="M70.8344 106.142C70.8394 106.391 70.6874 106.607 70.3728 106.79C70.0582 106.973 69.6854 107.062 69.256 107.06C68.8249 107.057 68.4527 106.962 68.1342 106.779C67.8157 106.595 67.6505 106.379 67.6455 106.13C67.6386 105.88 67.7926 105.665 68.1072 105.482C68.4218 105.299 68.7929 105.21 69.224 105.213C69.6533 105.215 70.0289 105.309 70.3474 105.493C70.6658 105.677 70.8275 105.893 70.8344 106.142ZM69.2068 106.683C69.4646 106.676 69.6898 106.619 69.8805 106.508C70.0728 106.396 70.1713 106.266 70.1832 106.116C70.195 105.967 70.1112 105.839 69.9321 105.736C69.751 105.631 69.5308 105.583 69.2728 105.591C69.0148 105.598 68.7915 105.656 68.5992 105.768C68.4085 105.879 68.3083 106.009 68.2965 106.158C68.2865 106.306 68.3721 106.433 68.5528 106.537C68.7322 106.641 68.9508 106.69 69.2068 106.683Z" fill="white"/>
<path d="M72.5764 106.78C72.7213 106.863 72.8408 106.962 72.9351 107.072C73.0295 107.185 73.0861 107.297 73.1029 107.411L72.508 107.473C72.4635 107.283 72.3402 107.131 72.1409 107.016C72.0615 106.97 71.9781 106.945 71.8934 106.94C71.8103 106.936 71.7383 106.95 71.6754 106.987C71.6125 107.023 71.591 107.067 71.6111 107.122C71.6313 107.176 71.7185 107.276 71.8724 107.423C72.0267 107.571 72.1103 107.706 72.1236 107.831C72.1368 107.953 72.0455 108.071 71.8551 108.182C71.6627 108.294 71.4339 108.343 71.1704 108.328C70.9052 108.315 70.6557 108.239 70.4187 108.102C70.0768 107.905 69.8949 107.654 69.8734 107.35L70.51 107.313C70.5385 107.565 70.6533 107.748 70.8506 107.862C70.9392 107.913 71.0277 107.941 71.1163 107.949C71.2046 107.956 71.2805 107.941 71.3451 107.904C71.4099 107.866 71.4331 107.821 71.4166 107.768C71.4019 107.716 71.3346 107.631 71.2148 107.518C71.0225 107.338 70.9171 107.188 70.8967 107.066C70.8743 106.942 70.9656 106.822 71.1688 106.704C71.3719 106.586 71.6026 106.538 71.8606 106.558C72.1172 106.579 72.3576 106.653 72.5764 106.78Z" fill="white"/>
<path d="M74.2672 107.814L72.126 109.058L71.6448 108.78L73.7859 107.536L74.2672 107.814Z" fill="white"/>
<path d="M75.5571 108.5C75.702 108.584 75.8195 108.681 75.9158 108.793C76.0102 108.906 76.0668 109.018 76.0836 109.131L75.4886 109.194C75.4442 109.004 75.3209 108.851 75.1216 108.737C75.0421 108.69 74.9588 108.666 74.8741 108.66C74.7894 108.655 74.719 108.671 74.6561 108.707C74.5932 108.744 74.5716 108.788 74.5921 108.843C74.6122 108.896 74.6994 108.997 74.8534 109.144C75.0077 109.291 75.0913 109.427 75.1029 109.55C75.118 109.674 75.0267 109.792 74.836 109.902C74.6437 110.014 74.4149 110.063 74.1514 110.049C73.8862 110.035 73.635 109.959 73.3997 109.823C73.0577 109.625 72.8759 109.375 72.8544 109.071L73.491 109.034C73.5194 109.286 73.6342 109.469 73.8313 109.583C73.9198 109.634 74.0084 109.662 74.097 109.669C74.1853 109.677 74.2612 109.662 74.3258 109.624C74.3906 109.587 74.4138 109.542 74.3972 109.489C74.3826 109.436 74.3153 109.352 74.1955 109.239C74.0032 109.059 73.8978 108.909 73.8754 108.785C73.855 108.663 73.9461 108.543 74.1494 108.425C74.3525 108.307 74.5832 108.259 74.8413 108.279C75.0976 108.3 75.338 108.374 75.5571 108.5Z" fill="white"/>
<mask id="mask0_221_205" style="mask-type:luminance" maskUnits="userSpaceOnUse" x="52" y="21" width="74" height="74">
<path d="M75.2463 82.8139C75.2463 82.8139 81.5668 93.066 99.9309 94.2564C111.538 95.0087 111.328 89.1532 111.328 86.408C111.328 83.6628 125.663 61.0216 125.663 58.3774C125.663 55.7332 122.112 34.0472 105.265 25.3538C92.4792 18.7562 65.1546 20.9277 61.882 31.7896C58.6095 42.6515 50.0143 67.1978 52.7115 72.1247C55.4087 77.0517 75.2463 82.8139 75.2463 82.8139Z" fill="white"/>
</mask>
<g mask="url(#mask0_221_205)">
<path opacity="0.07" d="M88.361 61.3326C88.361 61.3326 94.1619 61.821 95.9109 60.8958C95.9109 60.8958 93.8696 62.6853 88.2412 62.2154L88.361 61.3326Z" fill="#010101"/>
<path d="M95.7497 33.3555C95.7497 33.3555 98.2662 33.8974 100.934 35.4204C103.67 36.9815 106.564 39.5755 107.069 43.6735C107.359 46.0334 107.237 48.328 106.706 50.4449C105.416 55.5901 101.715 59.6814 95.6752 61.0929C91.4131 62.0891 86.7505 61.6244 83.2164 59.0663C79.6811 56.5087 77.4398 50.9024 78.1531 46.1449C78.8665 41.3874 80.8506 38.8075 83.9675 36.5124C87.0847 34.217 91.1686 33.1604 95.7497 33.3555Z" fill="#FFB681"/>
<path d="M87.7505 52.4147C87.9616 53.2105 88.5555 53.8529 89.3527 53.9705C90.265 54.1049 91.0501 53.5309 91.5733 52.7958C91.8532 52.4028 87.6255 51.9414 87.7505 52.4147Z" fill="white"/>
<path d="M89.414 50.6922C89.4052 50.6925 89.3966 50.6928 89.3881 50.6919C89.3467 50.6892 88.9824 50.6671 88.7454 50.6036C88.1728 50.4502 87.9606 50.14 87.8838 49.9071C87.8044 49.6659 87.7895 49.2669 88.173 48.7351C88.5136 48.2632 88.547 47.3319 88.5304 47.0123C88.5218 46.8443 88.6449 46.6994 88.805 46.6911C88.8077 46.6911 88.8094 46.6908 88.8116 46.6908C88.9689 46.6853 89.1016 46.8136 89.111 46.98C89.1138 47.0355 89.1759 48.359 88.6358 49.1066C88.4611 49.3489 88.3869 49.5666 88.4324 49.7051C88.4749 49.8343 88.6372 49.9424 88.8878 50.0092C89.0426 50.0503 89.3249 50.0741 89.4201 50.0799C89.5807 50.0895 89.704 50.2341 89.6941 50.4027C89.6853 50.5633 89.5628 50.6872 89.414 50.6922Z" fill="#ED8A43"/>
<path opacity="0.32" d="M78.9996 53.5562C79.4102 53.7562 79.8692 53.8608 80.3524 53.8443C82.0037 53.7871 83.2982 52.3295 83.2444 50.5883C83.1903 48.847 81.808 47.481 80.1567 47.5381C79.5377 47.5594 78.9682 47.7776 78.5021 48.1339" fill="#FB9A4D"/>
<path d="M83.0911 47.1012C83.069 47.7492 83.403 48.2876 83.8368 48.3041C84.2708 48.3212 84.6414 47.8093 84.6641 47.1622C84.6864 46.5143 84.3528 45.975 83.9176 45.9588C83.4833 45.9422 83.1132 46.4536 83.0911 47.1012Z" fill="#002019"/>
<path d="M95.3698 48.0599C95.3477 48.7078 95.6816 49.2462 96.1154 49.2627C96.5495 49.2799 96.9201 48.768 96.9428 48.1208C96.9651 47.4729 96.6315 46.9337 96.1963 46.9174C95.7622 46.9006 95.3922 47.4119 95.3698 48.0599Z" fill="#002019"/>
<path opacity="0.32" d="M103.907 51.1313C103.965 52.9885 102.584 54.5435 100.823 54.6045C99.0623 54.6652 97.5876 53.209 97.5299 51.3515C97.4723 49.4951 98.8534 47.9399 100.614 47.8792C102.375 47.8184 103.849 49.2749 103.907 51.1313Z" fill="#FB9A4D"/>
<path d="M103.785 53.6218C103.952 53.6638 104.326 53.7101 104.506 53.704C105.583 53.6668 106.428 52.7153 106.393 51.5784C106.358 50.4422 105.455 49.5512 104.378 49.5884C104.108 49.5978 103.743 49.5054 103.513 49.6182C103.513 49.6182 103.845 50.841 103.815 52.2315C103.785 53.6218 103.785 53.6218 103.785 53.6218Z" fill="#FFB681"/>
<g opacity="0.37">
<path d="M105.419 52.0457C105.278 52.0507 105.151 51.9481 105.122 51.7968C104.964 50.9472 104.206 50.8553 104.174 50.8514C104.014 50.8346 103.896 50.6833 103.911 50.5147C103.927 50.3467 104.068 50.2228 104.228 50.238C104.65 50.2763 105.501 50.6279 105.697 51.6782C105.728 51.8451 105.625 52.0074 105.466 52.0402C105.45 52.0438 105.434 52.0452 105.419 52.0457Z" fill="#ED8A43"/>
</g>
<path d="M83.3741 63.9097C83.3741 63.9097 80.886 64.6261 79.5189 68.7938C78.0274 73.3402 76.5519 82.2726 76.0584 87.0638C75.113 96.2462 75.3917 100.412 75.3917 100.412L81.3753 102.083L83.3741 63.9097Z" fill="white"/>
<path d="M79.8338 80.0048C79.8338 80.0048 80.4293 81.9967 80.4293 84.958C80.4293 87.9198 77.0773 117.317 77.0773 117.317C77.0773 117.317 107.449 122.788 107.287 118.453C107.125 114.118 107.287 90.8234 107.287 90.8234C107.287 90.8234 108.573 69.957 101.066 64.4522C96.8322 61.348 94.4374 61.5803 91.2286 61.5279C87.6194 61.468 85.4398 61.9297 83.3738 63.3625C77.0839 67.7262 79.8338 80.0048 79.8338 80.0048Z" fill="white"/>
<path opacity="0.08" d="M85.4177 115.237L87.5818 84.5901C87.5829 84.5725 87.5887 84.5554 87.597 84.5407L97.4061 72.9384L95.6667 70.5553L98.5124 70.3058L100.14 63.9094L100.711 64.2144L99.3665 70.906L96.9712 71.1715L98.2748 73.2566L87.7435 84.5805L86.1683 115.644" fill="#070707"/>
<path opacity="0.08" d="M85.2491 62.3439L84.942 67.8586L86.7147 68.9122L84.7367 69.3413L87.5677 84.539L83.8051 68.8106L85.0758 68.599L84.0733 67.9645L83.9196 63.01L85.2491 62.3439Z" fill="#070707"/>
<path d="M98.2231 62.9129L87.7843 83.4068L87.6543 61.7241C87.6543 61.7241 96.0155 62.4645 98.2231 62.9129Z" fill="#00D3C2"/>
<path d="M87.6072 61.8488C87.8492 61.1719 88.0385 60.4864 88.1591 59.7397C92.6682 60.3815 100.481 54.1162 97.9012 60.3721C97.6288 61.0328 97.5231 62.2983 98.2232 62.9129C98.2232 62.9129 94.9173 63.9996 91.7559 63.696C88.3939 63.3732 87.6546 61.7243 87.6546 61.7243" fill="#FFB681"/>
<path opacity="0.32" d="M87.8662 61.0444C87.8662 61.0444 94.6318 61.8496 96.7101 60.8394C96.7101 60.8394 94.219 62.5009 87.6543 61.7243L87.8662 61.0444Z" fill="#FB9A4D"/>
<path d="M85.9551 78.1755C85.9551 79.683 85.0146 80.9044 83.854 80.9044C82.6938 80.9044 81.7537 79.683 81.7537 78.1755C81.7537 76.6676 82.6938 75.4454 83.854 75.4454C85.0144 75.4457 85.9551 76.6679 85.9551 78.1755Z" fill="#7AE2E2"/>
<path d="M84.9454 78.1756C84.9454 79.501 84.118 80.5758 83.0976 80.5758C82.0765 80.5758 81.2498 79.501 81.2498 78.1756C81.2498 76.8493 82.0768 75.775 83.0976 75.775C84.1178 75.775 84.9454 76.8493 84.9454 78.1756Z" fill="#1D546D"/>
<path d="M83.854 76.0161C83.854 76.0161 84.7776 67.1946 85.73 64.2107C86.0865 63.0916 86.7074 62.0052 87.6045 61.4814" stroke="#1D546D" stroke-width="0.587538" stroke-miterlimit="10" stroke-linecap="round" stroke-linejoin="round"/>
<path opacity="0.08" d="M101.239 81.3807V102.844H102.391L101.239 81.3807Z" fill="#070707"/>
<path d="M97.4246 71.1215C98.0284 69.1801 99.0957 63.3332 98.041 62.3439" stroke="#1D546D" stroke-width="0.587538" stroke-miterlimit="10" stroke-linecap="round" stroke-linejoin="round"/>
<path d="M92.6105 81.515C92.6105 81.515 93.0377 70.1119 97.8227 71.7207C100.847 72.7376 100.811 81.515 100.811 81.515" stroke="#1D546D" stroke-width="0.587538" stroke-miterlimit="10" stroke-linecap="round" stroke-linejoin="round"/>
<path d="M93.389 81.5146C93.389 82.0334 93.0402 82.4537 92.6108 82.4537C92.1806 82.4537 91.832 82.0334 91.832 81.5146C91.832 80.9963 92.1806 80.576 92.6108 80.576C93.0402 80.576 93.389 80.9963 93.389 81.5146Z" fill="#7AE2E2"/>
<path d="M101.589 81.8165C101.589 82.3345 101.241 82.755 100.811 82.755C100.381 82.755 100.032 82.3345 100.032 81.8165C100.032 81.298 100.381 80.8777 100.811 80.8777C101.24 80.8777 101.589 81.298 101.589 81.8165Z" fill="#7AE2E2"/>
<path d="M108.382 62.0638C112.309 60.4757 116.918 56.4451 115.138 51.2535C113.991 47.91 112.795 41.47 108.651 34.4574C105.706 29.4753 97.1372 27.4236 90.8997 28.5729C84.9476 29.6693 80.2015 30.8998 77.1844 42.6787C74.1677 54.4576 74.0526 53.0483 73.1083 54.5611C72.164 56.0736 75.9578 60.6371 84.2693 59.748L83.0071 58.9102C83.0071 58.9102 80.0097 57.0334 79.1379 51.0463C78.2662 45.0594 81.0401 39.8526 81.0401 39.8526C81.0401 39.8526 91.1865 45.0975 98.5595 46.0228C102.582 46.5278 102.459 53.5663 101.506 55.5499C100.082 58.5156 97.082 59.9566 97.8508 60.9501C100.14 63.9097 105.131 63.3782 108.382 62.0638Z" fill="#554047"/>
<path d="M113.199 37.8163C112.057 37.8163 110.926 37.6082 110.711 37.5666C110.615 37.5481 110.536 37.475 110.507 37.377C110.478 37.2788 110.503 37.1717 110.571 37.0986C110.829 36.8231 113.137 34.4198 114.681 34.8045C115.185 34.9304 115.542 35.3233 115.742 35.9729C115.922 36.5546 115.748 36.931 115.571 37.1446C115.137 37.6679 114.164 37.8163 113.199 37.8163ZM111.325 37.109C112.728 37.3179 114.674 37.3825 115.175 36.7793C115.257 36.6802 115.353 36.5069 115.242 36.1449C115.1 35.6857 114.876 35.4241 114.559 35.3449C113.656 35.1197 112.155 36.3187 111.325 37.109Z" fill="#00BCAA"/>
<path d="M114.455 40.718C113.027 40.718 110.839 38.1991 110.583 37.8975C110.518 37.821 110.498 37.7126 110.532 37.6163C110.565 37.5197 110.647 37.4507 110.744 37.4372C111.107 37.3853 114.327 36.9708 115.326 38.2703C115.651 38.6947 115.706 39.2361 115.488 39.8797C115.293 40.4556 114.938 40.6419 114.674 40.6965C114.603 40.7108 114.53 40.718 114.455 40.718ZM111.334 37.9309C112.324 39.001 113.827 40.3074 114.572 40.1518C114.695 40.1264 114.871 40.051 114.993 39.6928C115.147 39.2381 115.122 38.8868 114.917 38.6196C114.333 37.8597 112.45 37.8406 111.334 37.9309Z" fill="#00BCAA"/>
<path d="M111.237 41.9903C111.237 41.9903 95.7763 45.1455 79.0233 37.2813C79.0233 37.2813 80.0209 31.8158 81.7136 29.6167C83.4066 27.4176 102.167 24.366 109.655 33.0598C109.82 33.2516 109.983 33.4439 110.115 33.6567C111.646 36.1163 112.131 41.9461 112.131 41.9461" fill="#00D3C2"/>
<path d="M102.344 34.5377C97.1484 34.5377 89.6066 33.8442 82.7256 30.605C82.5266 30.5112 82.4372 30.2651 82.5261 30.0551C82.6149 29.8453 82.8484 29.7509 83.0476 29.8448C94.8097 35.3824 108.553 33.3469 108.69 33.3257C108.906 33.2912 109.106 33.4499 109.138 33.6773C109.17 33.9046 109.02 34.116 108.804 34.1494C108.745 34.1582 106.186 34.5377 102.344 34.5377Z" fill="#00BCAA"/>
<path d="M66.1665 54.036L67.2173 64.8063C67.2173 64.8063 81.4983 64.3816 83.3737 63.3628C83.3737 63.3628 81.7746 72.4448 80.8738 74.0045C79.9734 75.5642 65.098 73.7387 62.547 73.1399C59.9961 72.5411 59.7113 55.142 59.7113 55.142L66.1665 54.036Z" fill="white"/>
<path d="M60.6944 54.9734C60.6944 54.9734 58.9021 52.3701 58.9021 50.9721C58.9021 49.5738 63.6116 49.0589 63.6116 49.0589C63.6116 49.0589 62.877 46.7604 63.6116 46.3363C64.3462 45.9121 65.304 48.6173 65.304 50.5305C65.304 52.4438 65.304 54.1837 65.304 54.1837L60.6944 54.9734Z" fill="#FFB681"/>
<path opacity="0.32" d="M59.4539 52.3824C59.4539 52.3824 61.0605 52.9834 62.103 52.9834C63.1456 52.9834 64.4211 51.8551 64.4211 51.1194C64.4211 50.3834 63.849 49.3927 63.849 49.3927C63.849 49.3927 64.846 50.3834 64.846 50.874C64.846 51.7447 64.1418 52.5499 63.3909 52.9834C62.64 53.417 61.0983 53.5006 60.2023 52.9834C59.6542 52.6672 59.4539 52.3824 59.4539 52.3824Z" fill="#FB9A4D"/>
<path opacity="0.32" d="M63.0061 50.8534C63.0061 50.8534 63.582 52.1611 64.6536 52.1713C64.9866 52.1744 65.0187 52.1393 65.0187 52.1393C65.0187 52.1393 65.1663 51.9798 64.9455 51.5976C64.725 51.2154 64.8462 50.1627 64.8462 50.1627C64.8462 50.1627 63.8621 49.6806 63.3665 49.9665C62.8709 50.2523 63.0061 50.8534 63.0061 50.8534Z" fill="#FB9A4D"/>
<path d="M64.188 51.8919C64.188 51.8919 63.2437 51.2743 63.2437 50.6327C63.2437 49.9911 64.4123 50.0035 64.8459 50.1627C65.6475 50.4572 65.4759 51.3157 65.3039 51.9777C65.1323 52.64 64.188 51.8919 64.188 51.8919Z" fill="#FFB681"/>
<path opacity="0.08" d="M78.2229 69.8647L77.4825 74.6197H78.0405L78.2229 69.8647Z" fill="#070707"/>
</g>
</svg>
