<svg width="131" height="131" viewBox="0 0 131 131" fill="none" xmlns="http://www.w3.org/2000/svg">
<path d="M4.64172 41.283L6.92306 35.0475L10.2687 42.0435L14.527 36.5686L16.7336 40.3903L20.3064 27.5956L23.1959 44.8111L25.4772 36.2032L26.998 41.7394L37.4918 42.0435" stroke="#F2F2F2" stroke-width="0.912504" stroke-miterlimit="10" stroke-linecap="round" stroke-linejoin="round"/>
<path opacity="0.14" d="M98.0129 98.0129C116.057 79.9692 116.057 50.7146 98.0129 32.6709C79.9692 14.6273 50.7147 14.6273 32.671 32.6709C14.6273 50.7146 14.6273 79.9692 32.671 98.0129C50.7147 116.057 79.9692 116.057 98.0129 98.0129Z" fill="#00D3C2"/>
<g opacity="0.11">
<path opacity="0.9608" d="M66.5854 73.852C65.5845 73.2769 63.9661 73.2769 62.9652 73.852L5.48845 107.265C4.5088 107.84 4.5088 108.777 5.50969 109.352L35.43 126.623C36.4309 127.198 38.0493 127.198 39.0502 126.623L96.5057 93.2098C97.4853 92.6347 97.4853 91.6978 96.4845 91.123L66.5854 73.852Z" fill="#1D4B5B"/>
</g>
<g opacity="0.9608">
<path d="M97.1068 88.2721V92.4518C97.1496 92.4305 97.1708 92.4093 97.2133 92.3877V88.2084C97.1918 88.2296 97.1493 88.2506 97.1068 88.2721Z" fill="#1D546D"/>
<path d="M97.2134 88.2084V92.3878C97.6392 92.111 97.8519 91.7702 97.8519 91.4084V87.2288C97.8522 87.5905 97.6392 87.9313 97.2134 88.2084Z" fill="#1D546D"/>
</g>
<g opacity="0.9608">
<path d="M5.34375 103.371V107.55C5.34375 107.806 5.45027 108.062 5.68456 108.274V104.095C5.45055 103.882 5.34375 103.626 5.34375 103.371Z" fill="#1D546D"/>
<path d="M5.68433 104.094V108.274C5.79085 108.381 5.94014 108.487 6.1104 108.594V104.414C5.94014 104.329 5.79085 104.222 5.68433 104.094Z" fill="#1D546D"/>
</g>
<path opacity="0.9608" d="M67.1864 68.9143C66.1855 68.3395 64.567 68.3395 63.5661 68.9143L6.08915 102.327C5.10951 102.902 5.10951 103.839 6.1104 104.414L36.0307 121.685C37.0316 122.26 38.6501 122.26 39.651 121.685L97.1064 88.272C98.0861 87.697 98.0861 86.7601 97.0852 86.185L67.1864 68.9143Z" fill="#1D546D"/>
<g opacity="0.9608">
<path d="M36.0094 121.685V125.865C36.0519 125.886 36.0947 125.907 36.1372 125.929V121.749C36.0947 121.728 36.0519 121.706 36.0094 121.685Z" fill="#1D546D"/>
<path d="M36.1373 121.77V125.95C36.9467 126.354 38.1179 126.418 39.055 126.12V121.941C38.1388 122.238 36.9677 122.175 36.1373 121.77Z" fill="#1D546D"/>
<path d="M39.0547 121.94V126.12C39.2674 126.056 39.4592 125.971 39.6298 125.865V121.685C39.4592 121.791 39.2677 121.876 39.0547 121.94Z" fill="#1D546D"/>
</g>
<path d="M97.1066 88.2722L39.6297 121.685C38.6288 122.26 37.0106 122.26 36.0097 121.685L5.8998 104.293C5.53444 104.03 5.34375 103.701 5.34375 103.371V107.55C5.34375 107.892 5.54741 108.232 5.93733 108.498V108.506L36.0094 125.865C37.0103 126.44 38.6285 126.44 39.6294 125.865L97.1064 92.4518C97.5962 92.175 97.8517 91.7917 97.8517 91.4084V87.2288C97.852 87.6118 97.5965 87.9741 97.1066 88.2722Z" fill="#164859"/>
<path d="M59.6263 72.3428L12.9677 99.4734L44.0594 117.447L90.7393 90.3164L59.6263 72.3428Z" fill="#EDF8FF"/>
<path d="M82.6896 81.5427C82.434 81.3937 82.0082 81.3937 81.7314 81.5427C81.4759 81.6917 81.4759 81.9472 81.7314 82.0962C81.987 82.2453 82.4128 82.2453 82.6896 82.0962C82.9664 81.926 82.9664 81.6917 82.6896 81.5427Z" fill="#173E49"/>
<path d="M76.471 78.0928C76.2792 77.9863 75.9812 77.9863 75.7894 78.0928C75.5979 78.1993 75.5979 78.3696 75.7894 78.4761L79.8782 80.84C80.0697 80.9465 80.368 80.9465 80.5596 80.84C80.7514 80.7335 80.7514 80.5632 80.5596 80.4354L76.471 78.0928Z" fill="#173E49"/>
<path d="M24.9332 110.158C24.7226 110.033 24.3721 110.033 24.1616 110.158L23.6706 110.447C23.4604 110.571 23.4604 110.774 23.6706 110.891L24.2284 111.213C24.4386 111.337 24.7894 111.337 24.9999 111.213L25.4909 110.924C25.7011 110.799 25.7011 110.597 25.4909 110.48L24.9332 110.158Z" stroke="#EDF8FF" stroke-width="0.212955" stroke-miterlimit="10"/>
<path d="M34.6846 115.849L33.6213 115.238" stroke="#EDF8FF" stroke-width="0.212955" stroke-miterlimit="10" stroke-linecap="round"/>
<path d="M34.2958 116.115L33.2323 115.504" stroke="#EDF8FF" stroke-width="0.212955" stroke-miterlimit="10" stroke-linecap="round"/>
<path d="M33.8617 116.408L32.7985 115.797" stroke="#EDF8FF" stroke-width="0.212955" stroke-miterlimit="10" stroke-linecap="round"/>
<path d="M15.9305 105.206L16.1201 106.114H15.0096" stroke="#EDF8FF" stroke-width="0.212955" stroke-miterlimit="10" stroke-linecap="round" stroke-linejoin="round"/>
<path d="M86.066 93.0836L90.7393 90.3164L59.6263 72.3428L54.9742 75.1101L86.066 93.0836Z" fill="#C7E0EF"/>
<path d="M38.8323 87.0636L38.0243 87.5203L64.1113 102.586L64.9325 102.128L38.8323 87.0636Z" fill="white"/>
<path d="M35.7942 88.8993L34.9862 89.3563L61.0732 104.421L61.8944 103.964L35.7942 88.8993Z" fill="white"/>
<path d="M32.6893 90.6688L31.8813 91.1258L57.9683 106.191L58.7896 105.734L32.6893 90.6688Z" fill="white"/>
<path d="M29.6515 92.505L28.8435 92.962L54.9305 108.027L55.7517 107.57L29.6515 92.505Z" fill="white"/>
<path d="M84.5134 88.4311C84.7333 88.5581 84.7347 88.7661 84.5153 88.8936L66.0108 99.6893C65.7922 99.8162 65.4329 99.8162 65.213 99.6893L40.4387 85.3793C40.2185 85.2524 40.2174 85.0443 40.436 84.9174L58.9405 74.1217C59.1599 73.9942 59.5189 73.9942 59.7391 74.1211L84.5134 88.4311Z" fill="#00D3C2"/>
<path d="M45.2333 107.697C46.5336 108.448 46.5388 109.665 45.2468 110.416C43.9548 111.166 41.8545 111.167 40.5539 110.417L25.1036 101.496C23.8033 100.746 23.7964 99.528 25.0885 98.7771C26.3805 98.0263 28.4827 98.0263 29.783 98.7771L45.2333 107.697Z" fill="#00D3C2"/>
<path d="M28.8218 99.9812C28.8412 100.209 28.6836 100.418 28.3491 100.612C28.0166 100.806 27.6526 100.902 27.2594 100.898C26.8642 100.895 26.4616 100.774 26.0507 100.537L25.3125 100.111L27.4536 98.8666L28.2172 99.3076C28.6011 99.5289 28.8025 99.7535 28.8218 99.9812ZM27.1959 100.517C27.4233 100.521 27.643 100.463 27.8552 100.34C28.0654 100.217 28.1675 100.089 28.1631 99.9552C28.1571 99.8206 28.0318 99.6837 27.7875 99.5424L27.5179 99.3868L26.2163 100.143L26.522 100.32C26.7428 100.447 26.9669 100.512 27.1959 100.517Z" fill="white"/>
<path d="M30.3095 100.515L28.1683 101.759L27.6868 101.482L29.8282 100.237L30.3095 100.515Z" fill="white"/>
<path d="M31.9559 101.466L30.7467 103.248L30.2345 102.953L30.4958 102.568L29.591 102.046L28.9298 102.199L28.4176 101.904L31.489 101.197L31.9559 101.466ZM30.1945 101.907L30.7337 102.218L31.088 101.702L30.1945 101.907Z" fill="white"/>
<path d="M34.1851 102.694C34.4945 102.873 34.6617 103.088 34.6885 103.337L34.0792 103.402C34.0679 103.297 34.0367 103.213 33.9876 103.147C33.9368 103.082 33.8642 103.021 33.7701 102.967C33.5874 102.862 33.3705 102.807 33.1216 102.807C32.8727 102.807 32.6475 102.865 32.4444 102.983C32.2413 103.101 32.1392 103.229 32.14 103.369C32.1373 103.509 32.2209 103.628 32.3873 103.724C32.5537 103.82 32.7253 103.882 32.8989 103.909L33.4886 103.567L33.9735 103.847L33.2129 104.289C32.7604 104.302 32.3467 104.201 31.9684 103.983C31.6499 103.799 31.4899 103.586 31.4833 103.34C31.4764 103.095 31.6323 102.881 31.9504 102.696C32.2686 102.511 32.6414 102.42 33.0725 102.423C33.5035 102.426 33.8755 102.516 34.1851 102.694Z" fill="white"/>
<path d="M37.441 104.632L35.2998 105.877L34.8183 105.599L35.1318 104.226L33.7906 105.005L33.3091 104.728L35.4505 103.483L35.9009 103.743L35.5808 105.156L36.9597 104.354L37.441 104.632Z" fill="white"/>
<path d="M39.5183 106.142C39.5232 106.391 39.3712 106.607 39.0566 106.79C38.742 106.973 38.3692 107.061 37.9398 107.059C37.5088 107.056 37.1365 106.962 36.818 106.779C36.4996 106.595 36.3343 106.378 36.3293 106.13C36.3224 105.88 36.4764 105.665 36.791 105.482C37.1056 105.299 37.4767 105.209 37.9078 105.212C38.3372 105.214 38.7128 105.309 39.0312 105.493C39.3497 105.677 39.5114 105.892 39.5183 106.142ZM37.8907 106.683C38.1484 106.676 38.3736 106.618 38.5643 106.508C38.7566 106.396 38.8552 106.266 38.867 106.116C38.8789 105.967 38.795 105.839 38.6159 105.736C38.4349 105.631 38.2147 105.583 37.9566 105.591C37.6986 105.598 37.4754 105.656 37.283 105.768C37.0923 105.879 36.9922 106.009 36.9803 106.158C36.9704 106.306 37.0559 106.433 37.2367 106.537C37.416 106.641 37.6346 106.69 37.8907 106.683Z" fill="white"/>
<path d="M41.2602 106.78C41.4051 106.863 41.5246 106.961 41.619 107.072C41.7134 107.185 41.7699 107.297 41.7868 107.411L41.1918 107.473C41.1474 107.283 41.024 107.131 40.8248 107.016C40.7453 106.97 40.662 106.945 40.5772 106.94C40.4942 106.935 40.4222 106.95 40.3592 106.986C40.2963 107.023 40.2748 107.067 40.2949 107.122C40.3151 107.176 40.4023 107.276 40.5563 107.423C40.7105 107.57 40.7941 107.706 40.8074 107.831C40.8206 107.953 40.7293 108.071 40.5389 108.182C40.3466 108.293 40.1178 108.343 39.8542 108.328C39.5891 108.314 39.3396 108.239 39.1025 108.102C38.7606 107.905 38.5788 107.654 38.5573 107.35L39.1939 107.313C39.2223 107.565 39.3371 107.748 39.5344 107.862C39.623 107.913 39.7116 107.941 39.8002 107.948C39.8885 107.956 39.9643 107.941 40.0289 107.903C40.0938 107.866 40.117 107.821 40.1004 107.768C40.0858 107.716 40.0184 107.631 39.8987 107.518C39.7063 107.338 39.6009 107.188 39.5805 107.066C39.5581 106.942 39.6495 106.822 39.8526 106.704C40.0557 106.586 40.2864 106.538 40.5444 106.558C40.8011 106.579 41.0414 106.653 41.2602 106.78Z" fill="white"/>
<path d="M42.951 107.814L40.8099 109.058L40.3286 108.78L42.4698 107.536L42.951 107.814Z" fill="white"/>
<path d="M44.2409 108.5C44.3858 108.584 44.5034 108.681 44.5997 108.793C44.694 108.906 44.7506 109.017 44.7674 109.131L44.1725 109.194C44.1281 109.004 44.0047 108.851 43.8055 108.736C43.726 108.69 43.6427 108.666 43.5579 108.66C43.4732 108.655 43.4028 108.671 43.3399 108.707C43.277 108.744 43.2555 108.788 43.2759 108.843C43.296 108.896 43.3832 108.996 43.5372 109.144C43.6915 109.291 43.7751 109.427 43.7867 109.55C43.8019 109.674 43.7105 109.792 43.5198 109.902C43.3275 110.014 43.0987 110.063 42.8352 110.049C42.57 110.035 42.3189 109.959 42.0835 109.823C41.7416 109.625 41.5597 109.375 41.5382 109.071L42.1748 109.034C42.2033 109.286 42.3181 109.469 42.5151 109.583C42.6037 109.634 42.6923 109.662 42.7808 109.669C42.8691 109.677 42.945 109.662 43.0096 109.624C43.0745 109.587 43.0976 109.542 43.0811 109.488C43.0665 109.436 42.9991 109.352 42.8794 109.239C42.687 109.059 42.5816 108.909 42.5592 108.785C42.5388 108.663 42.6299 108.543 42.8333 108.425C43.0364 108.307 43.2671 108.259 43.5251 108.279C43.7815 108.3 44.0218 108.374 44.2409 108.5Z" fill="white"/>
<mask id="mask0_221_205" style="mask-type:luminance" maskUnits="userSpaceOnUse" x="20" y="21" width="75" height="74">
<path d="M43.9302 82.8138C43.9302 82.8138 50.2507 93.0658 68.6147 94.2563C80.222 95.0086 80.0114 89.1531 80.0114 86.4078C80.0114 83.6626 94.3466 61.0215 94.3466 58.3773C94.3466 55.7331 90.7961 34.0471 73.949 25.3536C61.1631 18.7561 33.8384 20.9276 30.5659 31.7895C27.2933 42.6514 18.6981 67.1977 21.3953 72.1246C24.0925 77.0515 43.9302 82.8138 43.9302 82.8138Z" fill="white"/>
</mask>
<g mask="url(#mask0_221_205)">
<path opacity="0.07" d="M57.0448 61.3325C57.0448 61.3325 62.8457 61.8209 64.5947 60.8956C64.5947 60.8956 62.5535 62.6852 56.925 62.2153L57.0448 61.3325Z" fill="#010101"/>
<path d="M64.4336 33.3553C64.4336 33.3553 66.95 33.8973 69.6183 35.4203C72.3538 36.9814 75.2483 39.5754 75.7525 43.6733C76.0428 46.0333 75.9208 48.3279 75.3901 50.4447C74.0995 55.59 70.3992 59.6813 64.3591 61.0928C60.0969 62.089 55.4344 61.6243 51.9002 59.0662C48.3649 56.5086 46.1236 50.9023 46.837 46.1448C47.5503 41.3873 49.5344 38.8074 52.6514 36.5123C55.7686 34.2169 59.8524 33.1602 64.4336 33.3553Z" fill="#FFB681"/>
<path d="M56.4344 52.4145C56.6455 53.2104 57.2393 53.8528 58.0366 53.9704C58.9489 54.1048 59.734 53.5308 60.2572 52.7956C60.537 52.4027 56.3094 51.9413 56.4344 52.4145Z" fill="white"/>
<path d="M58.0979 50.6921C58.089 50.6924 58.0805 50.6926 58.0719 50.6918C58.0305 50.6891 57.6663 50.667 57.4292 50.6035C56.8566 50.4501 56.6444 50.1399 56.5677 49.907C56.4882 49.6658 56.4733 49.2668 56.8569 48.735C57.1974 48.2631 57.2308 47.3318 57.2142 47.0122C57.2057 46.8442 57.3288 46.6993 57.4888 46.691C57.4916 46.691 57.4932 46.6907 57.4954 46.6907C57.6527 46.6852 57.7855 46.8135 57.7949 46.9799C57.7976 47.0354 57.8597 48.3589 57.3197 49.1064C57.145 49.3487 57.0707 49.5665 57.1163 49.705C57.1588 49.8341 57.321 49.9423 57.5716 50.0091C57.7264 50.0502 58.0087 50.0739 58.1039 50.0797C58.2645 50.0894 58.3879 50.234 58.378 50.4026C58.3691 50.5632 58.2466 50.6871 58.0979 50.6921Z" fill="#ED8A43"/>
<path opacity="0.32" d="M47.6835 53.556C48.0941 53.7561 48.553 53.8607 49.0362 53.8441C50.6875 53.787 51.982 52.3294 51.9282 50.5881C51.8741 48.8468 50.4919 47.4809 48.8405 47.538C48.2216 47.5592 47.652 47.7775 47.1859 48.1338" fill="#FB9A4D"/>
<path d="M51.775 47.1011C51.7529 47.749 52.0868 48.2874 52.5206 48.304C52.9547 48.3211 53.3253 47.8092 53.3479 47.1621C53.3703 46.5141 53.0366 45.9749 52.6014 45.9586C52.1671 45.9421 51.797 46.4534 51.775 47.1011Z" fill="#002019"/>
<path d="M64.0536 48.0597C64.0316 48.7077 64.3655 49.2461 64.7993 49.2626C65.2334 49.2797 65.604 48.7678 65.6266 48.1207C65.649 47.4728 65.3153 46.9336 64.8801 46.9173C64.4461 46.9004 64.076 47.4118 64.0536 48.0597Z" fill="#002019"/>
<path opacity="0.32" d="M72.5909 51.1312C72.6485 52.9884 71.2676 54.5434 69.507 54.6044C67.7462 54.6651 66.2715 53.2088 66.2138 51.3514C66.1561 49.495 67.5373 47.9397 69.2981 47.879C71.0587 47.8183 72.5332 49.2748 72.5909 51.1312Z" fill="#FB9A4D"/>
<path d="M72.4692 53.6217C72.6356 53.6636 73.0095 53.71 73.1894 53.7039C74.2668 53.6667 75.1117 52.7152 75.0767 51.5782C75.0414 50.4421 74.1393 49.5511 73.0617 49.5883C72.7915 49.5977 72.4267 49.5052 72.1965 49.6181C72.1965 49.6181 72.5288 50.8409 72.499 52.2314C72.4692 53.6217 72.4692 53.6217 72.4692 53.6217Z" fill="#FFB681"/>
<g opacity="0.37">
<path d="M74.103 52.0456C73.9622 52.0506 73.8345 51.9479 73.806 51.7967C73.6474 50.947 72.8899 50.8551 72.8576 50.8513C72.6975 50.8344 72.5794 50.6832 72.5949 50.5146C72.6109 50.3466 72.7516 50.2227 72.9114 50.2378C73.3342 50.2762 74.1852 50.6278 74.3811 51.678C74.4123 51.845 74.3086 52.0073 74.1499 52.0401C74.1336 52.0437 74.1176 52.0451 74.103 52.0456Z" fill="#ED8A43"/>
</g>
<path d="M52.0579 63.9095C52.0579 63.9095 49.5699 64.6259 48.2028 68.7937C46.7112 73.3401 45.2357 82.2725 44.7423 87.0637C43.7969 96.2461 44.0756 100.411 44.0756 100.411L50.0591 102.083L52.0579 63.9095Z" fill="white"/>
<path d="M48.5176 80.0047C48.5176 80.0047 49.1132 81.9966 49.1132 84.9578C49.1132 87.9197 45.7611 117.317 45.7611 117.317C45.7611 117.317 76.1326 122.788 75.9706 118.453C75.8092 114.118 75.9711 90.8233 75.9711 90.8233C75.9711 90.8233 77.2566 69.9569 69.7494 64.4521C65.516 61.3479 63.1212 61.5802 59.9124 61.5278C56.3032 61.4679 54.1237 61.9296 52.0576 63.3623C45.7677 67.726 48.5176 80.0047 48.5176 80.0047Z" fill="white"/>
<path opacity="0.08" d="M54.1016 115.237L56.2656 84.59C56.2667 84.5723 56.2725 84.5552 56.2808 84.5406L66.0899 72.9383L64.3506 70.5552L67.1962 70.3057L68.8241 63.9093L69.3951 64.2142L68.0503 70.9059L65.655 71.1714L66.9586 73.2565L56.4273 84.5804L54.8522 115.644" fill="#070707"/>
<path opacity="0.08" d="M53.933 62.3438L53.6258 67.8585L55.3986 68.9121L53.4205 69.3412L56.2516 84.5389L52.4889 68.8105L53.7597 68.5989L52.7571 67.9644L52.6034 63.0099L53.933 62.3438Z" fill="#070707"/>
<path d="M66.907 62.9128L56.4681 83.4067L56.3381 61.724C56.3381 61.724 64.6993 62.4644 66.907 62.9128Z" fill="#00D3C2"/>
<path d="M56.291 61.8487C56.533 61.1717 56.7223 60.4863 56.8429 59.7395C61.3521 60.3814 69.1644 54.1161 66.585 60.372C66.3126 61.0327 66.207 62.2982 66.9071 62.9127C66.9071 62.9127 63.6011 63.9995 60.4397 63.6959C57.0778 63.373 56.3385 61.7242 56.3385 61.7242" fill="#FFB681"/>
<path opacity="0.32" d="M56.5501 61.0443C56.5501 61.0443 63.3157 61.8495 65.3939 60.8392C65.3939 60.8392 62.9029 62.5008 56.3381 61.7242L56.5501 61.0443Z" fill="#FB9A4D"/>
<path d="M54.6389 78.1753C54.6389 79.6829 53.6985 80.9043 52.5378 80.9043C51.3777 80.9043 50.4375 79.6829 50.4375 78.1753C50.4375 76.6675 51.3777 75.4453 52.5378 75.4453C53.6982 75.4456 54.6389 76.6678 54.6389 78.1753Z" fill="#7AE2E2"/>
<path d="M53.6292 78.1754C53.6292 79.5009 52.8019 80.5757 51.7814 80.5757C50.7604 80.5757 49.9336 79.5009 49.9336 78.1754C49.9336 76.8492 50.7606 75.7749 51.7814 75.7749C52.8016 75.7749 53.6292 76.8492 53.6292 78.1754Z" fill="#1D546D"/>
<path d="M52.5378 76.0159C52.5378 76.0159 53.4615 67.1944 54.4138 64.2105C54.7703 63.0915 55.3912 62.0051 56.2884 61.4813" stroke="#1D546D" stroke-width="0.587538" stroke-miterlimit="10" stroke-linecap="round" stroke-linejoin="round"/>
<path opacity="0.08" d="M69.9224 81.3806V102.844H71.0753L69.9224 81.3806Z" fill="#070707"/>
<path d="M66.1084 71.1214C66.7122 69.18 67.7796 63.3331 66.7249 62.3438" stroke="#1D546D" stroke-width="0.587538" stroke-miterlimit="10" stroke-linecap="round" stroke-linejoin="round"/>
<path d="M61.2943 81.5148C61.2943 81.5148 61.7215 70.1118 66.5066 71.7206C69.5308 72.7375 69.4944 81.5148 69.4944 81.5148" stroke="#1D546D" stroke-width="0.587538" stroke-miterlimit="10" stroke-linecap="round" stroke-linejoin="round"/>
<path d="M62.0728 81.5145C62.0728 82.0333 61.724 82.4535 61.2946 82.4535C60.8644 82.4535 60.5159 82.0333 60.5159 81.5145C60.5159 80.9962 60.8644 80.5759 61.2946 80.5759C61.724 80.5759 62.0728 80.9962 62.0728 81.5145Z" fill="#7AE2E2"/>
<path d="M70.273 81.8164C70.273 82.3343 69.9245 82.7549 69.4948 82.7549C69.0646 82.7549 68.7161 82.3343 68.7161 81.8164C68.7161 81.2978 69.0646 80.8776 69.4948 80.8776C69.9242 80.8776 70.273 81.2978 70.273 81.8164Z" fill="#7AE2E2"/>
<path d="M77.0657 62.0637C80.9925 60.4756 85.6018 56.4449 83.8214 51.2534C82.6748 47.9099 81.4793 41.4699 77.3347 34.4573C74.39 29.4752 65.821 27.4235 59.5836 28.5728C53.6315 29.6692 48.8853 30.8997 45.8683 42.6786C42.8515 54.4575 42.7365 53.0482 41.7921 54.561C40.8478 56.0735 44.6417 60.637 52.9532 59.7479L51.691 58.9101C51.691 58.9101 48.6935 57.0333 47.8218 51.0461C46.95 45.0593 49.7239 39.8525 49.7239 39.8525C49.7239 39.8525 59.8703 45.0973 67.2433 46.0226C71.2662 46.5276 71.1426 53.5662 70.19 55.5497C68.7657 58.5154 65.7658 59.9565 66.5346 60.9499C68.824 63.9096 73.8152 63.3781 77.0657 62.0637Z" fill="#554047"/>
<path d="M81.8828 37.8162C80.7409 37.8162 79.61 37.6081 79.3945 37.5665C79.2987 37.548 79.2203 37.4748 79.1911 37.3769C79.1618 37.2786 79.1864 37.1716 79.2551 37.0984C79.5131 36.823 81.8212 34.4197 83.3644 34.8044C83.8685 34.9302 84.2256 35.3232 84.4263 35.9728C84.6056 36.5545 84.432 36.9309 84.2549 37.1445C83.8205 37.6677 82.8478 37.8162 81.8828 37.8162ZM80.0085 37.1089C81.4123 37.3178 83.3577 37.3824 83.8586 36.7792C83.9406 36.6801 84.0372 36.5068 83.9254 36.1447C83.7835 35.6855 83.5603 35.4239 83.243 35.3447C82.34 35.1196 80.8391 36.3186 80.0085 37.1089Z" fill="#00BCAA"/>
<path d="M83.1387 40.7179C81.7103 40.7179 79.5228 38.199 79.2665 37.8973C79.2014 37.8209 79.1815 37.7125 79.2154 37.6161C79.2491 37.5196 79.3308 37.4506 79.4274 37.4371C79.7911 37.3852 83.0112 36.9707 84.0093 38.2702C84.3352 38.6946 84.3902 39.236 84.1722 39.8795C83.9771 40.4555 83.6216 40.6417 83.3575 40.6964C83.2869 40.7107 83.214 40.7179 83.1387 40.7179ZM80.0176 37.9307C81.0078 39.0009 82.5106 40.3073 83.256 40.1516C83.3785 40.1262 83.5551 40.0509 83.6765 39.6927C83.8305 39.2379 83.8057 38.8866 83.6004 38.6195C83.0167 37.8595 81.1336 37.8405 80.0176 37.9307Z" fill="#00BCAA"/>
<path d="M79.9206 41.9901C79.9206 41.9901 64.4602 45.1454 47.7072 37.2812C47.7072 37.2812 48.7047 31.8156 50.3974 29.6165C52.0904 27.4174 70.8505 24.3659 78.3389 33.0596C78.5039 33.2514 78.6664 33.4438 78.7991 33.6565C80.3296 36.1161 80.8144 41.946 80.8144 41.946" fill="#00D3C2"/>
<path d="M71.028 34.5376C65.8323 34.5376 58.2904 33.8441 51.4094 30.6049C51.2105 30.5111 51.121 30.2649 51.2099 30.0549C51.2988 29.8452 51.5322 29.7508 51.7315 29.8446C63.4935 35.3823 77.237 33.3468 77.3741 33.3256C77.5894 33.2911 77.7903 33.4497 77.8217 33.6771C77.8535 33.9045 77.7039 34.1159 77.4881 34.1493C77.4288 34.1581 74.8701 34.5376 71.028 34.5376Z" fill="#00BCAA"/>
<path d="M34.8503 54.0359L35.9012 64.8062C35.9012 64.8062 50.1822 64.3815 52.0576 63.3627C52.0576 63.3627 50.4584 72.4447 49.5577 74.0044C48.6572 75.5641 33.7818 73.7386 31.2309 73.1398C28.6799 72.541 28.3951 55.1419 28.3951 55.1419L34.8503 54.0359Z" fill="white"/>
<path d="M29.3783 54.9733C29.3783 54.9733 27.5859 52.37 27.5859 50.972C27.5859 49.5737 32.2954 49.0588 32.2954 49.0588C32.2954 49.0588 31.5608 46.7603 32.2954 46.3362C33.03 45.912 33.9878 48.6172 33.9878 50.5304C33.9878 52.4436 33.9878 54.1835 33.9878 54.1835L29.3783 54.9733Z" fill="#FFB681"/>
<path opacity="0.32" d="M28.1377 52.3823C28.1377 52.3823 29.7443 52.9833 30.7869 52.9833C31.8294 52.9833 33.1049 51.8549 33.1049 51.1192C33.1049 50.3833 32.5329 49.3926 32.5329 49.3926C32.5329 49.3926 33.5299 50.3833 33.5299 50.8739C33.5299 51.7446 32.8256 52.5498 32.0748 52.9833C31.3239 53.4168 29.7821 53.5005 28.8861 52.9833C28.338 52.6671 28.1377 52.3823 28.1377 52.3823Z" fill="#FB9A4D"/>
<path opacity="0.32" d="M31.6899 50.8533C31.6899 50.8533 32.2659 52.161 33.3374 52.1712C33.6705 52.1743 33.7025 52.1392 33.7025 52.1392C33.7025 52.1392 33.8501 51.9797 33.6294 51.5975C33.4089 51.2153 33.53 50.1625 33.53 50.1625C33.53 50.1625 32.546 49.6804 32.0503 49.9663C31.5547 50.2522 31.6899 50.8533 31.6899 50.8533Z" fill="#FB9A4D"/>
<path d="M32.8718 51.8918C32.8718 51.8918 31.9275 51.2742 31.9275 50.6326C31.9275 49.991 33.0962 50.0034 33.5297 50.1626C34.3313 50.4571 34.1597 51.3156 33.9878 51.9776C33.8161 52.6399 32.8718 51.8918 32.8718 51.8918Z" fill="#FFB681"/>
<path opacity="0.08" d="M46.9068 69.8646L46.1664 74.6196H46.7244L46.9068 69.8646Z" fill="#070707"/>
</g>
</svg>
