<svg width="80" height="99" viewBox="0 0 80 99" fill="none" xmlns="http://www.w3.org/2000/svg">
<path d="M12.9818 78.4198C15.2796 76.122 15.2796 72.3965 12.9818 70.0986C10.684 67.8008 6.95843 67.8008 4.6606 70.0986C2.36276 72.3965 2.36276 76.122 4.6606 78.4198C6.95843 80.7176 10.684 80.7176 12.9818 78.4198Z" fill="#ED1C24"/>
<path d="M8.8269 81.2654C4.96298 81.2654 1.81934 78.1218 1.81934 74.2578C1.81934 70.3939 4.96298 67.2503 8.8269 67.2503C12.6908 67.2503 15.8345 70.3939 15.8345 74.2578C15.8345 78.1218 12.6908 81.2654 8.8269 81.2654ZM8.8269 69.4973C6.20181 69.4973 4.0664 71.6327 4.0664 74.2578C4.0664 76.8829 6.20181 79.0183 8.8269 79.0183C11.452 79.0183 13.5874 76.8829 13.5874 74.2578C13.5874 71.6327 11.4518 69.4973 8.8269 69.4973Z" fill="black"/>
<path d="M52.0107 1.41589H23.3806C15.5667 1.41589 9.23242 7.75021 9.23242 15.5641V83.4359C9.23242 91.2498 15.5667 97.5841 23.3806 97.5841H64.2247C72.0386 97.5841 78.3729 91.2498 78.3729 83.4359V27.7785L52.0107 1.41589Z" fill="white"/>
<path d="M64.2254 98.7076H23.3811C14.9603 98.7076 8.10938 91.8567 8.10938 83.4359V15.5641C8.10938 7.14333 14.9603 0.292358 23.3811 0.292358H52.011C52.309 0.292358 52.5947 0.410771 52.8056 0.621476L79.168 26.9839C79.3789 27.1946 79.4971 27.4803 79.4971 27.7783V83.4359C79.4971 91.8567 72.6462 98.7076 64.2254 98.7076ZM23.3811 2.53959C16.1993 2.53959 10.3564 8.38249 10.3564 15.5643V83.436C10.3564 90.6178 16.1993 96.4607 23.3811 96.4607H64.2254C71.4072 96.4607 77.25 90.6178 77.25 83.436V28.244L51.5457 2.53959H23.3811Z" fill="black"/>
<path d="M52.0117 1.4159L78.3741 27.7785H57.6337C54.5288 27.7785 52.0117 25.2614 52.0117 22.1565V1.4159Z" fill="#DCDDDE"/>
<path d="M78.3761 28.902C78.3754 28.902 78.374 28.902 78.3726 28.902H57.6322C53.9126 28.902 50.8867 25.8759 50.8867 22.1565V1.41607C50.8867 0.961645 51.1605 0.551987 51.5804 0.378098C51.9999 0.204383 52.4835 0.300325 52.8047 0.621656L79.1164 26.9332C79.3515 27.1391 79.4998 27.4414 79.4998 27.7785C79.4996 28.399 78.9968 28.902 78.3761 28.902ZM53.1338 4.12846V22.1563C53.1338 24.6369 55.1518 26.6548 57.6322 26.6548H75.6603L53.1338 4.12846Z" fill="black"/>
<path d="M9.36322 40.328C5.86834 40.328 3.03516 43.1612 3.03516 46.6561V73.1554H3.15112C3.71393 70.2368 6.28041 68.032 9.36322 68.032H73.0895V40.3281L9.36322 40.328Z" fill="#ED1C24"/>
<path d="M3.14965 74.2789H3.03369C2.41315 74.2789 1.91016 73.7759 1.91016 73.1554V46.6561C1.91016 42.5472 5.2529 39.2044 9.36175 39.2044H73.0882C73.7087 39.2044 74.2117 39.7074 74.2117 40.328V68.0319C74.2117 68.6524 73.7087 69.1554 73.0882 69.1554H9.36175C6.87217 69.1554 4.72348 70.9271 4.25281 73.368C4.151 73.8969 3.68809 74.2789 3.14965 74.2789ZM9.36192 41.4515C6.49207 41.4515 4.15739 43.7862 4.15739 46.6561V69.0296C5.51237 67.7085 7.36013 66.9083 9.36192 66.9083H71.9648V41.4515H9.36192Z" fill="black"/>
<path d="M19.9816 47.3824C19.9816 46.9143 20.3644 46.5313 20.8113 46.5313H25.5561C28.9177 46.5313 31.1305 48.3186 31.1305 51.2548V51.2973C31.1305 54.5101 28.4496 56.1697 25.2793 56.1697H21.6622V60.6804C21.6622 61.1485 21.2794 61.5315 20.8111 61.5315C20.3643 61.5315 19.9814 61.1485 19.9814 60.6804L19.9816 47.3824ZM25.3433 54.6378C27.8114 54.6378 29.4284 53.3187 29.4284 51.3613V51.3187C29.4284 49.1909 27.8329 48.0845 25.4285 48.0845H21.6624V54.6378H25.3433Z" fill="white"/>
<path d="M34.1953 47.3824C34.1953 46.9143 34.5782 46.5313 35.025 46.5313H39.3654C44.0463 46.5313 47.2803 49.744 47.2803 53.9357V53.9782C47.2803 58.1697 44.0463 61.425 39.3654 61.425H35.025C34.5782 61.425 34.1953 61.042 34.1953 60.5739V47.3824ZM39.3654 59.8719C43.1314 59.8719 45.5357 57.3187 45.5357 54.0207V53.9782C45.5357 50.6802 43.1314 48.0843 39.3654 48.0843H35.8759V59.8718L39.3654 59.8719Z" fill="white"/>
<path d="M50.834 47.3824C50.834 46.9143 51.2169 46.5313 51.6637 46.5313H60.8767C61.3022 46.5313 61.6425 46.8718 61.6425 47.2973C61.6425 47.7229 61.3022 48.0845 60.8767 48.0845H52.5148V53.4037H59.9192C60.3448 53.4037 60.6851 53.7442 60.6851 54.1697C60.6851 54.5953 60.3448 54.9358 59.9192 54.9358H52.5148V60.6804C52.5148 61.1484 52.1319 61.5315 51.6637 61.5315C51.2169 61.5315 50.834 61.1484 50.834 60.6804V47.3824Z" fill="white"/>
</svg>
