<svg width="134" height="126" viewBox="0 0 134 126" fill="none" xmlns="http://www.w3.org/2000/svg">
<path d="M103.365 23.6941L100.9 35.7455L108.088 37.4835C108.088 37.4835 108.612 29.0562 108.541 27.8631C108.47 26.67 103.365 23.6941 103.365 23.6941Z" fill="#9E644E"/>
<path d="M59.4872 18.512C59.4872 18.512 56.5349 19.5036 53.5387 21.6372C50.4663 23.8248 47.3479 27.2132 47.3176 31.9648C47.3002 34.7005 47.7705 37.3009 48.7072 39.6376C50.983 45.3168 56.0118 49.4368 63.4783 50.1513C68.7474 50.6557 74.2929 49.4336 78.1866 45.9906C82.0804 42.5473 83.9886 35.8181 82.4613 30.4951C80.9339 25.1721 78.1834 22.5237 74.1098 20.3668C70.0357 18.21 64.9724 17.6094 59.4872 18.512Z" fill="#9E644E"/>
<path d="M67.312 39.3967C67.8799 40.238 68.8002 40.9173 69.8636 40.8302C70.8204 40.752 71.611 40.0863 71.9119 39.1871C72.0899 38.6549 71.2827 38.3161 71.1036 38.8508C70.5462 40.5169 68.7852 40.0185 68.0015 38.8575C67.6864 38.3906 66.9976 38.9309 67.312 39.3967Z" fill="#8C513F"/>
<path opacity="0.56" d="M68.9275 37.4484C68.9379 37.447 68.9487 37.4449 68.9588 37.4425C69.0087 37.4312 69.4528 37.3291 69.7315 37.2066C70.4052 36.9097 70.6052 36.5042 70.6542 36.2164C70.7049 35.9186 70.6446 35.4504 70.0684 34.9104C69.5573 34.4317 69.3335 33.3525 69.2904 32.977C69.2673 32.7785 69.0883 32.6356 68.8894 32.6584C68.8867 32.6587 68.8841 32.6592 68.8819 32.6595C68.6874 32.6857 68.5483 32.8629 68.5705 33.0591C68.578 33.125 68.7619 34.6794 69.5731 35.4394C69.8355 35.6852 69.9695 35.9242 69.94 36.095C69.9129 36.2541 69.735 36.4136 69.4394 36.5439C69.2577 36.624 68.9157 36.71 68.7994 36.7363C68.604 36.7802 68.4815 36.9743 68.5258 37.1696C68.5676 37.3538 68.7434 37.4733 68.9275 37.4484Z" fill="#8C513F"/>
<path d="M61.3216 34.6078C61.4132 35.3336 61.0713 35.9744 60.5581 36.0392C60.0448 36.1041 59.5544 35.5683 59.4627 34.8426C59.3711 34.1168 59.7128 33.4758 60.2263 33.4112C60.7395 33.3463 61.2299 33.8821 61.3216 34.6078Z" fill="#222328"/>
<path d="M76.6464 32.7565C76.7381 33.4822 76.3961 34.123 75.8829 34.1879C75.3697 34.2527 74.8792 33.7167 74.7876 32.9913C74.6959 32.2655 75.0376 31.6245 75.5511 31.5596C76.0643 31.495 76.5548 32.0307 76.6464 32.7565Z" fill="#222328"/>
<path opacity="0.47" d="M61.5727 39.4458C61.8225 41.2888 60.5307 42.9853 58.688 43.2351C56.8449 43.4848 55.1485 42.1933 54.8987 40.3503C54.6489 38.5073 55.9404 36.8108 57.7835 36.5611C59.6265 36.3113 61.3229 37.6028 61.5727 39.4458Z" fill="#8C513F"/>
<path opacity="0.47" d="M82.5316 38.2688C82.3631 38.5949 81.5114 38.8854 80.8869 38.9701C79.0439 39.2199 77.3475 37.9284 77.0977 36.0854C76.8479 34.2423 78.1397 32.5459 79.9824 32.2961C81.1343 32.1401 82.2291 32.5861 82.9489 33.3925C82.9489 33.3925 83.0714 36.8644 82.5316 38.2688Z" fill="#8C513F"/>
<path d="M57.2157 20.346C59.0205 15.9341 56.907 10.8945 52.4951 9.08972C48.0832 7.28492 43.0436 9.39839 41.2388 13.8103C39.434 18.2222 41.5475 23.2618 45.9594 25.0666C50.3713 26.8714 55.4109 24.7579 57.2157 20.346Z" fill="#3F242A"/>
<path d="M76.045 25.1965C75.2949 24.8891 57.728 31.8242 53.0748 34.8014C53.0748 34.8014 51.333 39.7133 50.4912 40.3642C50.9385 42.4731 51.6817 44.4448 53.4358 46.1991C53.4358 46.1991 49.3898 45.4378 46.9354 42.7192C43.1695 38.5477 41.1254 29.1273 44.5966 22.8955C49.4072 14.2597 59.5054 7.64252 71.2604 12.5078C81.4442 16.7226 86.3601 29.3494 82.424 38.6941C82.424 38.6941 82.2232 27.7283 76.045 25.1965Z" fill="#3F242A"/>
<path d="M42.8149 22.8525C42.8149 22.8525 46.5139 13.122 55.8006 11.4802L56.3524 12.1979C56.3524 12.1979 48.1473 14.9961 44.059 23.9864C44.059 23.9864 43.2663 23.4261 42.8149 22.8525Z" fill="#331D23"/>
<path opacity="0.59" d="M53.8876 31.6192C54.5278 31.0545 55.3168 30.6879 56.161 30.563C61.2115 29.8163 79.4074 27.1433 81.0682 27.1406C82.9986 27.1374 83.3738 32.874 82.4382 35.633C81.7256 37.7344 79.421 38.9701 76.4068 38.9701C73.3929 38.9701 70.1517 34.7339 69.6117 34.1936C69.0714 33.6533 68.2612 34.1973 68.0702 35.2005C67.8166 36.5303 67.4677 39.2834 63.9309 40.5672C60.8955 41.6689 56.8919 41.324 54.9896 39.001C53.6456 37.3597 53.0233 36.7441 53.0233 36.7441L49.8413 38.5813L48.3204 36.53L53.8876 31.6192Z" fill="#ABDCEB"/>
<path d="M53.3053 38.3243C53.3053 39.8958 52.0312 41.1699 50.4596 41.1699C48.8881 41.1699 47.614 39.8958 47.614 38.3243C47.614 36.7527 48.8881 35.4786 50.4596 35.4786C52.0312 35.4789 53.3053 36.7527 53.3053 38.3243Z" fill="#9E644E"/>
<path d="M49.0473 39.3858C48.8575 39.3858 48.6924 39.2456 48.6662 39.0521C48.6605 39.009 48.5314 37.9863 49.1714 37.2592C49.5734 36.8022 50.1705 36.5814 50.9426 36.5774C51.1551 36.5787 51.3263 36.7521 51.3253 36.9647C51.3239 37.1772 51.1438 37.3401 50.938 37.3474C50.4007 37.3498 49.9976 37.4856 49.7492 37.7681C49.345 38.2272 49.4284 38.9428 49.4294 38.95C49.4579 39.1606 49.3099 39.3544 49.0993 39.3828C49.0816 39.3847 49.0644 39.3858 49.0473 39.3858Z" fill="#8C513F"/>
<path d="M92.661 50.6981C99.174 41.1898 99.9187 34.8942 99.9187 34.8942C99.9187 34.8942 105.814 36.1706 108.088 37.4836C108.088 37.4836 106.605 55.3667 99.1962 62.4424C91.1554 70.1225 81.6682 70.7823 81.6682 70.7823C81.6682 70.7823 80.5648 80.4566 80.5648 84.6902C80.5648 88.9238 83.779 119.708 83.779 119.708L44.0335 119.708L45.2419 106.475C45.2419 106.475 34.4841 102.404 34.4841 95.3477C34.4841 81.8968 42.6919 59.2787 49.453 55.3753C56.2141 51.4718 59.4459 51.2711 64.2839 51.1947C80.4279 50.9401 87.3991 58.3801 92.661 50.6981Z" fill="white"/>
<path opacity="0.08" d="M51.325 74.0985C51.325 74.0985 43.7802 91.3993 45.5801 94.5169C47.7863 98.3383 63.7623 107.517 63.7623 107.517C63.7623 107.517 62.5694 110.373 62.1632 111.076C61.7569 111.78 46.1997 106.747 45.2419 106.476L45.1545 107.433C45.1545 107.433 60.571 112.403 61.9102 111.63C63.2494 110.857 63.2644 110.731 63.2644 107.393C63.2644 107.059 65.2961 108.19 63.8781 107.172C61.0161 105.118 47.9278 98.0564 46.4066 93.7839C45.9191 92.415 51.325 74.0985 51.325 74.0985Z" fill="#101010"/>
<path opacity="0.08" d="M54.322 52.927L55.8681 63.1689L59.4783 63.5483L56.473 67.1002L69.5383 84.1492L69.8585 111.711L70.9528 111.885L69.7816 84.1637C69.7805 84.1385 69.7725 84.1144 69.7583 84.0938L57.7832 66.6467L61.4447 62.6674L56.5735 62.0098L55.9868 52.309L54.322 52.927Z" fill="#101010"/>
<path opacity="0.08" d="M73.2682 51.8346L73.7606 60.2458L71.0894 61.7514L74.0722 62.3654L69.8027 84.0913L75.4744 61.6067L73.559 61.3041L75.0711 60.3969L75.3393 52.1916L73.2682 51.8346Z" fill="#101010"/>
<path d="M60.5754 51.4535L69.4765 82.4727L71.2909 52.9005C71.2909 52.9005 63.9019 50.8114 60.5754 51.4535Z" fill="#EB9B3A"/>
<path d="M60.9962 47.8977C60.9962 47.8977 60.6609 50.7302 60.5754 51.4535C62.0382 53.8744 68.1939 53.8486 71.2909 52.9005C71.2909 52.9005 71.1652 48.9418 71.5932 48.2C71.5932 48.2 61.8693 48.4015 60.9962 47.8977Z" fill="#9E644E"/>
<path opacity="0.47" d="M71.325 49.8669C71.325 49.8669 65.8232 50.4812 62.1886 49.7356C62.1886 49.7356 67.4816 51.3854 71.2754 51.2544L71.325 49.8669Z" fill="#8C513F"/>
<path d="M103.613 28.6251C103.613 28.6251 102.599 24.4362 103.56 22.9386C104.288 21.8045 105.295 19.3327 106.679 19.5396C108.252 19.0384 110.157 18.9331 110.714 19.6886C111.499 20.7544 112.558 23.8155 111.852 25.3552C110.903 27.4247 109.328 28.7226 107.403 28.6194C105.478 28.516 103.613 28.6251 103.613 28.6251Z" fill="#9E644E"/>
<path opacity="0.59" d="M117.694 37.1801L110.905 27.431L109.657 16.2868L110.295 16.2152C110.611 16.1799 110.839 15.8942 110.804 15.5777C110.768 15.2612 110.483 15.0331 110.166 15.0687L103.889 15.772C103.573 15.8073 103.345 16.093 103.38 16.4095C103.416 16.726 103.701 16.9541 104.018 16.9185L104.656 16.8469L105.925 28.1683L101.03 38.594C100.515 39.691 101.38 40.9339 102.588 40.8316L116.535 39.6481C117.743 39.5457 118.386 38.1746 117.694 37.1801Z" fill="white"/>
<path d="M116.415 37.2717L110.154 28.2803L109.239 20.1171L105.911 20.4899L106.843 28.8059L102.306 38.4689C102.028 39.0617 102.496 39.7336 103.148 39.6784L115.789 38.6056C116.441 38.5504 116.789 37.8094 116.415 37.2717Z" fill="#4B5A7F"/>
<path d="M105.04 1.20144C105.147 1.07414 105.214 0.911736 105.214 0.732444C105.214 0.328032 104.886 0 104.481 0C104.104 0 103.797 0.286224 103.757 0.652848C103.754 0.652848 103.752 0.652044 103.749 0.652044C103.213 0.652044 102.778 1.08674 102.778 1.62274C102.778 2.14293 103.188 2.56396 103.702 2.58888C103.853 2.99972 104.246 3.29345 104.709 3.29345C105.301 3.29345 105.781 2.81346 105.781 2.22118C105.781 1.74468 105.47 1.34107 105.04 1.20144Z" fill="#ACABE5"/>
<path d="M105.781 2.22112C105.756 2.85815 105.301 3.29339 104.709 3.29339C104.246 3.29339 103.853 2.99966 103.702 2.58881C103.188 2.56389 102.778 2.14286 102.778 1.62267C102.778 1.08667 103.213 0.651978 103.749 0.651978C103.749 0.651978 102.943 0.883262 103.201 1.76471C103.351 2.27606 104.078 2.25944 104.078 2.25944C104.078 2.25944 104.258 2.76784 104.891 2.83779C105.251 2.87772 105.578 2.6333 105.781 2.22112Z" fill="#9595D1"/>
<path d="M108.842 8.43896C108.787 8.43896 108.735 8.44888 108.682 8.45504C108.782 8.30309 108.842 8.12165 108.842 7.92574C108.842 7.3943 108.411 6.96362 107.88 6.96362C107.438 6.96362 107.07 7.26271 106.957 7.66846C106.718 7.47175 106.416 7.34874 106.083 7.34874C105.322 7.34874 104.704 7.96621 104.704 8.72787C104.704 8.80157 104.715 8.87232 104.726 8.9428C104.142 9.10307 103.71 9.63237 103.71 10.2675C103.71 11.0292 104.327 11.6467 105.089 11.6467C105.393 11.6467 105.671 11.5456 105.899 11.3795C105.989 12.0543 106.56 12.5769 107.26 12.5769C108.021 12.5769 108.639 11.9594 108.639 11.1978C108.639 11.1908 108.637 11.1841 108.637 11.1771C108.704 11.1873 108.771 11.1978 108.842 11.1978C109.604 11.1978 110.221 10.5803 110.221 9.81863C110.221 9.05644 109.603 8.43896 108.842 8.43896Z" fill="#ACABE5"/>
<path d="M108.638 11.1976C108.638 11.9592 108.021 12.5767 107.259 12.5767C106.56 12.5767 105.988 12.0541 105.898 11.3793C105.671 11.5454 105.392 11.6465 105.089 11.6465C104.327 11.6465 103.71 11.029 103.71 10.2674C103.71 9.63219 104.141 9.10289 104.726 8.94263C104.726 8.94263 104.238 9.6472 104.546 10.2818C105.139 11.5007 106.294 10.5383 106.294 10.5383C106.294 10.5383 106.223 11.6521 107.289 11.8901C108.202 12.094 108.638 11.1976 108.638 11.1976Z" fill="#9595D1"/>
<path d="M111.122 3.62091C111.122 3.11519 110.712 2.70542 110.206 2.70542C109.966 2.70542 109.749 2.80003 109.586 2.95118C109.364 2.73463 109.061 2.6001 108.726 2.6001C108.044 2.6001 107.49 3.15298 107.49 3.83531C107.49 4.51737 108.043 5.07052 108.726 5.07052C108.761 5.07052 108.793 5.06302 108.827 5.06034C108.955 5.41303 109.289 5.66655 109.685 5.66655C110.191 5.66655 110.601 5.25651 110.601 4.75107C110.601 4.65164 110.581 4.55784 110.552 4.46832C110.886 4.33138 111.122 4.00415 111.122 3.62091Z" fill="#ACABE5"/>
<path d="M108.725 5.07028C108.76 5.07242 108.793 5.06277 108.827 5.06009C108.954 5.41278 109.289 5.66631 109.685 5.66631C110.191 5.66631 110.601 5.25627 110.601 4.75082C110.601 4.75082 110.336 5.27717 109.74 5.02445C109.316 4.84462 109.306 4.35231 109.306 4.35231C109.306 4.35231 108.839 4.86231 108.124 4.5383C107.767 4.37616 107.499 3.98059 107.499 3.98059C107.499 3.98059 107.587 4.99685 108.725 5.07028Z" fill="#9595D1"/>
<path d="M105.177 21.5231C104.831 21.8532 104.666 22.3297 104.743 22.8014C104.891 23.7123 105.476 24.8886 106.674 26.052C108.541 27.8637 110.018 27.314 110.766 26.8822C111.514 26.4505 111.938 25.1413 111.938 23.8841C111.938 22.6272 111.448 19.8566 110.638 19.4509C109.55 18.905 106.25 19.2976 105.699 19.8325C105.175 20.3409 104.724 20.4832 105.177 21.5231Z" fill="#9E644E"/>
<path opacity="0.47" d="M105.377 21.3969C105.377 21.3969 105.198 22.493 105.763 23.9064C106.26 25.1472 107.519 26.1761 108.216 26.5524C108.418 26.6617 108.604 26.7962 108.771 26.9544L109.145 27.3084C109.145 27.3084 108.236 27.2752 107.615 26.7981C106.996 26.3219 105.025 24.9671 105.048 23.2498C105.071 21.5325 105.377 21.3969 105.377 21.3969Z" fill="#8C513F"/>
<path opacity="0.47" d="M105.377 21.3968C105.377 21.3968 107.593 22.456 108.338 22.4734C109.082 22.4908 109.157 22.051 108.976 21.5989C108.795 21.1468 106.763 19.7146 106.763 19.7146C106.763 19.7146 107.653 20.0686 108.205 20.4422C108.758 20.8161 109.674 21.6201 109.367 22.3383C109.059 23.0563 108.718 23.1019 107.603 22.6243C106.488 22.147 105.377 21.3968 105.377 21.3968Z" fill="#8C513F"/>
<path d="M62.5775 111.916C61.1147 111.743 62.0865 108.281 62.6158 107.751C63.497 106.87 65.2934 106.63 66.5927 106.991C67.8919 107.352 69.7658 107.657 71.827 109.376C73.8881 111.096 71.9358 111.947 71.9358 111.947C71.9358 111.947 64.0402 112.089 62.5775 111.916Z" fill="#9E644E"/>
<path d="M84.5685 80.8778L76.4948 114.497H112.047C113.58 114.497 114.912 113.441 115.261 111.947L121.907 83.5551C122.217 82.2232 121.206 80.9488 119.838 80.9488L84.5685 80.8778Z" fill="#ACABE5"/>
<path d="M51.7345 114.497H76.5242C77.1055 114.497 77.6131 114.104 77.7586 113.541L85.7857 82.4716C85.9618 81.7898 85.552 81.0946 84.8703 80.9183C84.1882 80.7425 83.493 81.1522 83.3169 81.8338L75.5366 111.947H51.7345C51.0304 111.947 50.4596 112.518 50.4596 113.222C50.4596 113.926 51.0304 114.497 51.7345 114.497Z" fill="#3E4B75"/>
<path d="M99.0086 96.5357C98.0073 97.754 97.9891 99.3934 98.9673 100.197C99.9458 101.001 101.551 100.666 102.552 99.4475C103.553 98.2292 103.571 96.5898 102.593 95.7858C101.615 94.9816 100.01 95.3174 99.0086 96.5357Z" fill="#ECEBF6"/>
<g opacity="0.55">
<path d="M29.8861 36.2387C29.2675 38.2176 25.0484 38.66 20.4621 37.2265C15.8758 35.7932 12.6593 33.027 13.2778 31.048C13.8964 29.0691 18.1155 28.6267 22.7018 30.0602C27.2878 31.4935 30.5043 34.2595 29.8861 36.2387Z" stroke="#AEC4F4" stroke-width="0.579014" stroke-miterlimit="10" stroke-linecap="round" stroke-linejoin="round"/>
<path d="M15.8453 40.1844C14.2866 38.8174 15.5912 34.7805 18.7595 31.1681C21.9278 27.5555 25.7596 25.7352 27.3186 27.1023C28.8773 28.4694 27.5727 32.506 24.4044 36.1186C21.2361 39.731 17.4039 41.5515 15.8453 40.1844Z" stroke="#AEC4F4" stroke-width="0.579014" stroke-miterlimit="10" stroke-linecap="round" stroke-linejoin="round"/>
<path d="M19.3514 25.2338C21.3555 24.7023 23.9787 28.0365 25.2105 32.6807C26.4422 37.3251 25.8164 41.5209 23.8123 42.0526C21.8082 42.5841 19.185 39.2499 17.9533 34.6055C16.7213 29.9613 17.3473 25.7652 19.3514 25.2338Z" stroke="#AEC4F4" stroke-width="0.579014" stroke-miterlimit="10" stroke-linecap="round" stroke-linejoin="round"/>
<path d="M23.6786 34.5932C23.1541 35.7513 21.79 36.2645 20.632 35.74C19.4739 35.2155 18.9607 33.8514 19.4852 32.6934C20.0097 31.5353 21.3738 31.0221 22.5318 31.5466C23.6896 32.0711 24.2031 33.4352 23.6786 34.5932Z" fill="#4B5A7F"/>
<path d="M23.335 32.6127C23.4451 32.8257 23.4138 33.0608 23.2647 33.1377C23.116 33.2146 22.9062 33.1045 22.796 32.8914C22.6859 32.6783 22.7172 32.4433 22.8662 32.3664C23.015 32.2895 23.2248 32.3999 23.335 32.6127Z" fill="#FEFEFE"/>
</g>
<g opacity="0.55">
<path d="M121.103 67.5523C119.897 68.3968 117.333 66.8159 115.376 64.0212C113.419 61.2264 112.81 58.2763 114.016 57.4318C115.222 56.5874 117.786 58.1683 119.743 60.963C121.7 63.7577 122.309 66.7079 121.103 67.5523Z" stroke="#AEC4F4" stroke-width="0.305493" stroke-miterlimit="10" stroke-linecap="round" stroke-linejoin="round"/>
<path d="M111.498 63.6822C111.214 62.2377 113.698 60.5337 117.046 59.8763C120.394 59.2192 123.338 59.8573 123.621 61.3021C123.905 62.7466 121.421 64.4506 118.073 65.108C114.725 65.7651 111.781 65.1267 111.498 63.6822Z" stroke="#AEC4F4" stroke-width="0.305493" stroke-miterlimit="10" stroke-linecap="round" stroke-linejoin="round"/>
<path d="M119.952 56.7967C121.309 57.367 121.339 60.3791 120.017 63.5246C118.696 66.6701 116.524 68.7578 115.167 68.1878C113.81 67.6175 113.781 64.6054 115.102 61.4599C116.424 58.3141 118.595 56.2264 119.952 56.7967Z" stroke="#AEC4F4" stroke-width="0.305493" stroke-miterlimit="10" stroke-linecap="round" stroke-linejoin="round"/>
<path d="M118.327 63.9354C117.529 64.3592 116.54 64.0563 116.116 63.259C115.693 62.4617 115.995 61.4723 116.793 61.0488C117.59 60.6251 118.58 60.928 119.003 61.7253C119.427 62.5223 119.124 63.5117 118.327 63.9354Z" fill="#4B5A7F"/>
<path d="M118.992 62.6729C118.962 62.8404 118.842 62.9588 118.725 62.9377C118.608 62.9165 118.538 62.7632 118.568 62.596C118.599 62.4285 118.718 62.31 118.835 62.3312C118.952 62.3524 119.023 62.5054 118.992 62.6729Z" fill="#FEFEFE"/>
</g>
<path d="M134 113.994H0V125.744H134V113.994Z" fill="#C1C1EA"/>
<path opacity="0.59" d="M18.481 93.2642L18.6354 84.7207C18.6373 84.6127 18.5513 84.5234 18.4433 84.5215L18.1557 84.5165C17.8874 84.5116 17.6741 84.2903 17.6789 84.0223C17.6837 83.7543 17.9051 83.5407 18.1731 83.5455L25.1845 83.672C25.4525 83.6768 25.6661 83.8982 25.6613 84.1662C25.6565 84.4344 25.4351 84.6478 25.1671 84.643L24.8795 84.6379C24.7715 84.636 24.6823 84.722 24.6804 84.83L24.5263 93.3736C29.0293 94.7656 32.2667 98.9933 32.1775 103.942C32.093 108.617 29.062 112.537 24.8911 113.994L17.4396 113.976C13.3242 112.371 10.3695 108.225 10.4539 103.55C10.5429 98.6007 13.9309 94.4928 18.481 93.2642Z" fill="white"/>
<path d="M30.1018 100.458C31.8837 107.134 28.0754 111.247 24.4373 112.517H17.9458C14.356 111.117 10.578 107.392 12.5344 100.523L30.1018 100.458Z" fill="#4B5A7F"/>
<path d="M25.5348 95.6606C26.9303 96.5314 28.1124 97.7087 28.988 99.0972" stroke="white" stroke-width="0.536" stroke-miterlimit="10" stroke-linecap="round" stroke-linejoin="round"/>
<path d="M21.9014 68.9682C22.0603 68.7792 22.16 68.5383 22.16 68.2722C22.16 67.6718 21.6733 67.1854 21.0733 67.1854C20.5134 67.1854 20.0578 67.6102 19.9983 68.1542C19.9943 68.1542 19.9905 68.1532 19.9865 68.1532C19.1908 68.1532 18.546 68.798 18.546 69.5937C18.546 70.3655 19.1544 70.9902 19.9171 71.0272C20.1401 71.6369 20.7235 72.0727 21.4101 72.0727C22.2889 72.0727 23.0015 71.3603 23.0015 70.4813C23.0013 69.774 22.5395 69.1753 21.9014 68.9682Z" fill="#ACABE5"/>
<path d="M23.001 70.4813C22.9632 71.4266 22.2887 72.0727 21.4096 72.0727C20.7228 72.0727 20.1393 71.6367 19.9166 71.0272C19.1539 70.9902 18.5455 70.3655 18.5455 69.5937C18.5455 68.798 19.1903 68.1532 19.986 68.1532C19.986 68.1532 18.7905 68.4965 19.1735 69.8043C19.3956 70.5631 20.4743 70.5387 20.4743 70.5387C20.4743 70.5387 20.7423 71.2928 21.6817 71.3968C22.2142 71.4555 22.6993 71.0929 23.001 70.4813Z" fill="#9595D1"/>
<path d="M19.1154 76.3269C19.0583 76.3269 19.0042 76.3373 18.9487 76.3438C19.0535 76.1851 19.1154 75.9954 19.1154 75.7909C19.1154 75.2359 18.6654 74.7859 18.1104 74.7859C17.6491 74.7859 17.2646 75.0984 17.1464 75.5218C16.8974 75.3163 16.5825 75.1879 16.2344 75.1879C15.4389 75.1879 14.7939 75.8327 14.7939 76.6284C14.7939 76.7053 14.8049 76.7793 14.8164 76.8527C14.2061 77.0199 13.7554 77.5728 13.7554 78.2364C13.7554 79.0318 14.4004 79.6769 15.1959 79.6769C15.5129 79.6769 15.8034 79.5713 16.0414 79.3979C16.1352 80.1027 16.7323 80.6484 17.4629 80.6484C18.2583 80.6484 18.9034 80.0033 18.9034 79.2079C18.9034 79.2004 18.9012 79.1937 18.9012 79.1862C18.9717 79.1969 19.0422 79.2079 19.1156 79.2079C19.9111 79.2079 20.5561 78.5628 20.5561 77.7674C20.5559 76.972 19.9111 76.3269 19.1154 76.3269Z" fill="#ACABE5"/>
<path d="M18.9029 79.208C18.9029 80.0034 18.2578 80.6485 17.4624 80.6485C16.7318 80.6485 16.1347 80.1028 16.0409 79.398C15.8029 79.5714 15.5124 79.677 15.1954 79.677C14.4 79.677 13.7549 79.0319 13.7549 78.2365C13.7549 77.5732 14.2057 77.0203 14.8159 76.8528C14.8159 76.8528 14.3062 77.5887 14.6283 78.2515C15.2471 79.5245 16.4542 78.5195 16.4542 78.5195C16.4542 78.5195 16.3802 79.6829 17.4929 79.9313C18.4476 80.1444 18.9029 79.208 18.9029 79.208Z" fill="#9595D1"/>
<path d="M24.2631 80.5736C24.2631 80.1293 23.9029 79.7693 23.4589 79.7693C23.2479 79.7693 23.0574 79.8524 22.914 79.9853C22.7186 79.7951 22.4525 79.6769 22.1583 79.6769C21.559 79.6769 21.0731 80.1628 21.0731 80.762C21.0731 81.3613 21.559 81.8471 22.1583 81.8471C22.1888 81.8471 22.2175 81.8407 22.2475 81.838C22.3593 82.1478 22.653 82.3705 23.0014 82.3705C23.4457 82.3705 23.8056 82.0104 23.8056 81.5663C23.8056 81.4789 23.7882 81.3966 23.7625 81.3178C24.056 81.1981 24.2631 80.9105 24.2631 80.5736Z" fill="#ACABE5"/>
<path d="M22.158 81.8472C22.1885 81.8491 22.2172 81.8408 22.2472 81.8381C22.359 82.1479 22.6527 82.3706 23.0011 82.3706C23.4454 82.3706 23.8053 82.0104 23.8053 81.5664C23.8053 81.5664 23.573 82.0287 23.0496 81.8068C22.6771 81.6489 22.668 81.2163 22.668 81.2163C22.668 81.2163 22.2582 81.6644 21.63 81.3796C21.3159 81.2372 21.0803 80.8896 21.0803 80.8896C21.0803 80.8896 21.1575 81.7829 22.158 81.8472Z" fill="#9595D1"/>
</svg>
