<svg width="623" height="266" viewBox="0 0 623 266" fill="none" xmlns="http://www.w3.org/2000/svg">
<rect x="0.466317" y="0.466317" width="622.067" height="264.868" rx="8.86003" fill="#F2F2F2"/>
<rect x="0.466317" y="0.466317" width="622.067" height="264.868" rx="8.86003" stroke="#3B7D8C" stroke-width="0.932635"/>
<path d="M67.7981 187.238H578.411" stroke="black" stroke-width="0.853868"/>
<path d="M67.7981 192.361V187.238" stroke="black" stroke-width="0.853868"/>
<path d="M67.8828 209.738C67.3346 209.738 66.8676 209.589 66.4819 209.29C66.0962 208.99 65.8015 208.554 65.5977 207.984C65.394 207.412 65.2921 206.72 65.2921 205.91C65.2921 205.105 65.394 204.417 65.5977 203.847C65.8039 203.275 66.0999 202.838 66.4856 202.537C66.8737 202.234 67.3394 202.082 67.8828 202.082C68.4262 202.082 68.8907 202.234 69.2764 202.537C69.6645 202.838 69.9605 203.275 70.1642 203.847C70.3704 204.417 70.4735 205.105 70.4735 205.91C70.4735 206.72 70.3716 207.412 70.1679 207.984C69.9641 208.554 69.6694 208.99 69.2837 209.29C68.898 209.589 68.431 209.738 67.8828 209.738ZM67.8828 208.937C68.4262 208.937 68.8483 208.675 69.1491 208.152C69.4499 207.628 69.6003 206.88 69.6003 205.91C69.6003 205.265 69.5311 204.715 69.3928 204.262C69.257 203.808 69.0605 203.463 68.8034 203.225C68.5487 202.987 68.2418 202.868 67.8828 202.868C67.3443 202.868 66.9234 203.134 66.6202 203.665C66.317 204.194 66.1654 204.942 66.1654 205.91C66.1654 206.555 66.2333 207.104 66.3691 207.555C66.505 208.006 66.7003 208.349 66.955 208.585C67.2121 208.82 67.5214 208.937 67.8828 208.937Z" fill="black"/>
<path d="M195.452 192.361V187.238" stroke="black" stroke-width="0.853868"/>
<path d="M196.4 202.184V209.636H195.497V203.13H195.454L193.634 204.338V203.421L195.497 202.184H196.4Z" fill="black"/>
<path d="M323.105 192.361V187.238" stroke="black" stroke-width="0.853868"/>
<path d="M320.859 209.636V208.981L323.319 206.289C323.607 205.973 323.845 205.699 324.032 205.466C324.219 205.231 324.357 205.01 324.447 204.804C324.539 204.595 324.585 204.377 324.585 204.149C324.585 203.887 324.522 203.66 324.396 203.469C324.272 203.277 324.102 203.129 323.886 203.025C323.67 202.92 323.428 202.868 323.159 202.868C322.872 202.868 322.622 202.928 322.409 203.047C322.198 203.163 322.034 203.327 321.918 203.538C321.804 203.749 321.747 203.996 321.747 204.28H320.888C320.888 203.843 320.989 203.46 321.19 203.13C321.391 202.8 321.665 202.543 322.012 202.359C322.362 202.174 322.753 202.082 323.188 202.082C323.624 202.082 324.011 202.174 324.348 202.359C324.686 202.543 324.95 202.792 325.142 203.105C325.333 203.418 325.429 203.766 325.429 204.149C325.429 204.423 325.379 204.691 325.28 204.953C325.183 205.213 325.013 205.503 324.77 205.823C324.53 206.141 324.197 206.529 323.77 206.987L322.096 208.777V208.836H325.56V209.636H320.859Z" fill="black"/>
<path d="M450.758 192.361V187.238" stroke="black" stroke-width="0.853868"/>
<path d="M450.87 209.738C450.39 209.738 449.962 209.655 449.586 209.491C449.212 209.326 448.915 209.096 448.694 208.803C448.476 208.507 448.357 208.164 448.338 207.773H449.255C449.274 208.013 449.356 208.221 449.502 208.395C449.647 208.568 449.838 208.701 450.073 208.796C450.308 208.89 450.569 208.937 450.856 208.937C451.176 208.937 451.46 208.882 451.707 208.77C451.954 208.659 452.148 208.503 452.289 208.304C452.43 208.105 452.5 207.875 452.5 207.613C452.5 207.339 452.432 207.098 452.296 206.889C452.161 206.678 451.962 206.513 451.7 206.394C451.438 206.275 451.117 206.216 450.739 206.216H450.142V205.415H450.739C451.035 205.415 451.295 205.362 451.518 205.255C451.743 205.148 451.919 204.998 452.045 204.804C452.174 204.61 452.238 204.382 452.238 204.12C452.238 203.868 452.182 203.648 452.071 203.461C451.959 203.275 451.802 203.129 451.598 203.025C451.396 202.92 451.159 202.868 450.885 202.868C450.627 202.868 450.385 202.916 450.157 203.01C449.931 203.102 449.747 203.237 449.604 203.414C449.461 203.589 449.383 203.8 449.371 204.047H448.498C448.512 203.657 448.63 203.315 448.851 203.021C449.071 202.725 449.36 202.495 449.717 202.33C450.076 202.165 450.47 202.082 450.899 202.082C451.36 202.082 451.755 202.176 452.085 202.362C452.415 202.547 452.669 202.791 452.846 203.094C453.023 203.397 453.111 203.725 453.111 204.076C453.111 204.496 453.001 204.854 452.78 205.15C452.562 205.446 452.265 205.651 451.889 205.765V205.823C452.359 205.9 452.727 206.101 452.991 206.423C453.256 206.743 453.388 207.14 453.388 207.613C453.388 208.018 453.278 208.382 453.057 208.705C452.839 209.025 452.54 209.277 452.162 209.461C451.783 209.646 451.353 209.738 450.87 209.738Z" fill="black"/>
<path d="M578.412 192.361V187.238" stroke="black" stroke-width="0.853868"/>
<path d="M575.806 208.108V207.366L579.081 202.184H579.619V203.334H579.255L576.781 207.249V207.307H581.191V208.108H575.806ZM579.313 209.636V207.882V207.537V202.184H580.172V209.636H579.313Z" fill="black"/>
<path d="M67.7981 50.619V187.238" stroke="black" stroke-width="0.853868"/>
<path d="M62.675 187.238H67.7983" stroke="black" stroke-width="0.853868"/>
<path d="M55.3727 190.731C54.8245 190.731 54.3575 190.582 53.9718 190.283C53.5861 189.983 53.2914 189.547 53.0876 188.977C52.8839 188.405 52.782 187.713 52.782 186.903C52.782 186.098 52.8839 185.41 53.0876 184.84C53.2938 184.267 53.5898 183.831 53.9755 183.53C54.3636 183.227 54.8293 183.075 55.3727 183.075C55.9161 183.075 56.3806 183.227 56.7663 183.53C57.1544 183.831 57.4504 184.267 57.6541 184.84C57.8603 185.41 57.9634 186.098 57.9634 186.903C57.9634 187.713 57.8615 188.405 57.6578 188.977C57.454 189.547 57.1593 189.983 56.7736 190.283C56.3879 190.582 55.9209 190.731 55.3727 190.731ZM55.3727 189.93C55.9161 189.93 56.3382 189.668 56.6389 189.144C56.9397 188.62 57.0901 187.873 57.0901 186.903C57.0901 186.258 57.021 185.708 56.8827 185.255C56.7469 184.801 56.5504 184.455 56.2933 184.218C56.0386 183.98 55.7317 183.861 55.3727 183.861C54.8342 183.861 54.4133 184.127 54.1101 184.658C53.8069 185.187 53.6553 185.935 53.6553 186.903C53.6553 187.548 53.7232 188.096 53.859 188.548C53.9949 188.999 54.1901 189.342 54.4448 189.577C54.702 189.813 55.0113 189.93 55.3727 189.93Z" fill="black"/>
<path d="M62.675 153.083H67.7983" stroke="black" stroke-width="0.853868"/>
<path d="M40.5263 156.474V155.819L42.986 153.127C43.2747 152.811 43.5124 152.537 43.6992 152.304C43.886 152.069 44.0243 151.848 44.114 151.642C44.2062 151.434 44.2523 151.215 44.2523 150.987C44.2523 150.725 44.1892 150.498 44.0631 150.307C43.9394 150.115 43.7696 149.967 43.5537 149.863C43.3378 149.759 43.0952 149.706 42.8259 149.706C42.5397 149.706 42.2899 149.766 42.0764 149.885C41.8653 150.001 41.7016 150.165 41.5852 150.376C41.4712 150.587 41.4142 150.834 41.4142 151.118H40.5554C40.5554 150.682 40.6561 150.298 40.8574 149.968C41.0588 149.638 41.3329 149.381 41.6798 149.197C42.0291 149.013 42.4208 148.92 42.8551 148.92C43.2917 148.92 43.6786 149.013 44.0158 149.197C44.353 149.381 44.6174 149.63 44.809 149.943C45.0006 150.256 45.0965 150.604 45.0965 150.987C45.0965 151.261 45.0467 151.529 44.9473 151.791C44.8502 152.051 44.6804 152.341 44.4379 152.661C44.1977 152.979 43.8642 153.367 43.4372 153.825L41.7635 155.616V155.674H45.2275V156.474H40.5263ZM49.1608 156.576C48.6126 156.576 48.1456 156.427 47.7599 156.129C47.3743 155.828 47.0795 155.392 46.8758 154.822C46.672 154.25 46.5701 153.558 46.5701 152.748C46.5701 151.943 46.672 151.255 46.8758 150.685C47.0819 150.113 47.3779 149.676 47.7636 149.375C48.1517 149.072 48.6175 148.92 49.1608 148.92C49.7042 148.92 50.1687 149.072 50.5544 149.375C50.9425 149.676 51.2385 150.113 51.4423 150.685C51.6484 151.255 51.7515 151.943 51.7515 152.748C51.7515 153.558 51.6497 154.25 51.4459 154.822C51.2421 155.392 50.9474 155.828 50.5617 156.129C50.176 156.427 49.709 156.576 49.1608 156.576ZM49.1608 155.776C49.7042 155.776 50.1263 155.514 50.4271 154.99C50.7279 154.466 50.8783 153.719 50.8783 152.748C50.8783 152.103 50.8091 151.554 50.6709 151.1C50.535 150.646 50.3385 150.301 50.0814 150.063C49.8267 149.825 49.5198 149.706 49.1608 149.706C48.6223 149.706 48.2014 149.972 47.8982 150.503C47.595 151.032 47.4434 151.78 47.4434 152.748C47.4434 153.394 47.5113 153.942 47.6472 154.393C47.783 154.844 47.9783 155.187 48.233 155.423C48.4901 155.658 48.7994 155.776 49.1608 155.776ZM55.5648 156.576C55.0166 156.576 54.5497 156.427 54.164 156.129C53.7783 155.828 53.4835 155.392 53.2798 154.822C53.076 154.25 52.9741 153.558 52.9741 152.748C52.9741 151.943 53.076 151.255 53.2798 150.685C53.486 150.113 53.7819 149.676 54.1676 149.375C54.5557 149.072 55.0215 148.92 55.5648 148.92C56.1082 148.92 56.5727 149.072 56.9584 149.375C57.3466 149.676 57.6425 150.113 57.8463 150.685C58.0525 151.255 58.1556 151.943 58.1556 152.748C58.1556 153.558 58.0537 154.25 57.8499 154.822C57.6461 155.392 57.3514 155.828 56.9657 156.129C56.58 156.427 56.1131 156.576 55.5648 156.576ZM55.5648 155.776C56.1082 155.776 56.5303 155.514 56.8311 154.99C57.1319 154.466 57.2823 153.719 57.2823 152.748C57.2823 152.103 57.2131 151.554 57.0749 151.1C56.939 150.646 56.7425 150.301 56.4854 150.063C56.2307 149.825 55.9239 149.706 55.5648 149.706C55.0263 149.706 54.6055 149.972 54.3022 150.503C53.999 151.032 53.8474 151.78 53.8474 152.748C53.8474 153.394 53.9153 153.942 54.0512 154.393C54.187 154.844 54.3823 155.187 54.637 155.423C54.8941 155.658 55.2034 155.776 55.5648 155.776Z" fill="black"/>
<path d="M62.675 118.928H67.7983" stroke="black" stroke-width="0.853868"/>
<path d="M39.9814 120.791V120.049L43.2562 114.868H43.7947V116.017H43.4309L40.9566 119.933V119.991H45.3666V120.791H39.9814ZM43.4891 122.32V120.566V120.22V114.868H44.3478V122.32H43.4891ZM49.1608 122.421C48.6126 122.421 48.1456 122.272 47.7599 121.974C47.3743 121.673 47.0795 121.238 46.8758 120.668C46.672 120.095 46.5701 119.404 46.5701 118.594C46.5701 117.788 46.672 117.1 46.8758 116.53C47.0819 115.958 47.3779 115.521 47.7636 115.221C48.1517 114.917 48.6175 114.766 49.1608 114.766C49.7042 114.766 50.1687 114.917 50.5544 115.221C50.9425 115.521 51.2385 115.958 51.4423 116.53C51.6484 117.1 51.7515 117.788 51.7515 118.594C51.7515 119.404 51.6497 120.095 51.4459 120.668C51.2421 121.238 50.9474 121.673 50.5617 121.974C50.176 122.272 49.709 122.421 49.1608 122.421ZM49.1608 121.621C49.7042 121.621 50.1263 121.359 50.4271 120.835C50.7279 120.311 50.8783 119.564 50.8783 118.594C50.8783 117.948 50.8091 117.399 50.6709 116.945C50.535 116.492 50.3385 116.146 50.0814 115.908C49.8267 115.67 49.5198 115.552 49.1608 115.552C48.6223 115.552 48.2014 115.817 47.8982 116.348C47.595 116.877 47.4434 117.626 47.4434 118.594C47.4434 119.239 47.5113 119.787 47.6472 120.238C47.783 120.689 47.9783 121.033 48.233 121.268C48.4901 121.503 48.7994 121.621 49.1608 121.621ZM55.5648 122.421C55.0166 122.421 54.5497 122.272 54.164 121.974C53.7783 121.673 53.4835 121.238 53.2798 120.668C53.076 120.095 52.9741 119.404 52.9741 118.594C52.9741 117.788 53.076 117.1 53.2798 116.53C53.486 115.958 53.7819 115.521 54.1676 115.221C54.5557 114.917 55.0215 114.766 55.5648 114.766C56.1082 114.766 56.5727 114.917 56.9584 115.221C57.3466 115.521 57.6425 115.958 57.8463 116.53C58.0525 117.1 58.1556 117.788 58.1556 118.594C58.1556 119.404 58.0537 120.095 57.8499 120.668C57.6461 121.238 57.3514 121.673 56.9657 121.974C56.58 122.272 56.1131 122.421 55.5648 122.421ZM55.5648 121.621C56.1082 121.621 56.5303 121.359 56.8311 120.835C57.1319 120.311 57.2823 119.564 57.2823 118.594C57.2823 117.948 57.2131 117.399 57.0749 116.945C56.939 116.492 56.7425 116.146 56.4854 115.908C56.2307 115.67 55.9239 115.552 55.5648 115.552C55.0263 115.552 54.6055 115.817 54.3022 116.348C53.999 116.877 53.8474 117.626 53.8474 118.594C53.8474 119.239 53.9153 119.787 54.0512 120.238C54.187 120.689 54.3823 121.033 54.637 121.268C54.8941 121.503 55.2034 121.621 55.5648 121.621Z" fill="black"/>
<path d="M62.675 84.7737H67.7983" stroke="black" stroke-width="0.853868"/>
<path d="M42.8105 88.2666C42.5048 88.2618 42.1992 88.2036 41.8935 88.092C41.5879 87.9804 41.3089 87.7924 41.0567 87.528C40.8044 87.2612 40.6018 86.9009 40.449 86.4473C40.2962 85.9913 40.2198 85.4188 40.2198 84.7299C40.2198 84.0701 40.2816 83.4855 40.4053 82.9761C40.5291 82.4642 40.7086 82.0336 40.9439 81.6843C41.1792 81.3326 41.463 81.0658 41.7953 80.8838C42.1301 80.7019 42.5073 80.6109 42.9269 80.6109C43.3441 80.6109 43.7153 80.6946 44.0403 80.862C44.3678 81.027 44.6347 81.2574 44.8408 81.5533C45.047 81.8493 45.1805 82.1901 45.2411 82.5758H44.3533C44.2708 82.241 44.1107 81.9633 43.873 81.7426C43.6352 81.5218 43.3199 81.4114 42.9269 81.4114C42.3496 81.4114 41.8948 81.6625 41.5624 82.1646C41.2325 82.6668 41.0664 83.3714 41.0639 84.2787H41.1222C41.258 84.0725 41.4193 83.8966 41.6061 83.7511C41.7953 83.6031 42.0039 83.4891 42.2319 83.409C42.46 83.329 42.7013 83.289 42.956 83.289C43.383 83.289 43.7735 83.3957 44.1277 83.6092C44.4818 83.8202 44.7656 84.1125 44.9791 84.4861C45.1926 84.8572 45.2993 85.283 45.2993 85.7633C45.2993 86.2241 45.1962 86.6462 44.99 87.0295C44.7838 87.4103 44.494 87.7136 44.1204 87.9392C43.7493 88.1623 43.3126 88.2715 42.8105 88.2666ZM42.8105 87.4661C43.1161 87.4661 43.3902 87.3897 43.6328 87.2369C43.8778 87.0841 44.0707 86.8791 44.2114 86.622C44.3545 86.3648 44.426 86.0786 44.426 85.7633C44.426 85.4552 44.3569 85.175 44.2186 84.9227C44.0828 84.668 43.8948 84.4655 43.6546 84.3151C43.4169 84.1647 43.1452 84.0895 42.8396 84.0895C42.6091 84.0895 42.3945 84.1356 42.1956 84.2277C41.9966 84.3175 41.822 84.4412 41.6716 84.5989C41.5236 84.7566 41.4072 84.9373 41.3223 85.141C41.2374 85.3424 41.1949 85.5546 41.1949 85.7778C41.1949 86.0737 41.2641 86.3503 41.4023 86.6074C41.543 86.8645 41.7347 87.072 41.9772 87.2296C42.2222 87.3873 42.5 87.4661 42.8105 87.4661ZM49.1608 88.2666C48.6126 88.2666 48.1456 88.1175 47.7599 87.8191C47.3743 87.5183 47.0795 87.0829 46.8758 86.5128C46.672 85.9403 46.5701 85.249 46.5701 84.4388C46.5701 83.6334 46.672 82.9457 46.8758 82.3757C47.0819 81.8032 47.3779 81.3666 47.7636 81.0658C48.1517 80.7625 48.6175 80.6109 49.1608 80.6109C49.7042 80.6109 50.1687 80.7625 50.5544 81.0658C50.9425 81.3666 51.2385 81.8032 51.4423 82.3757C51.6484 82.9457 51.7515 83.6334 51.7515 84.4388C51.7515 85.249 51.6497 85.9403 51.4459 86.5128C51.2421 87.0829 50.9474 87.5183 50.5617 87.8191C50.176 88.1175 49.709 88.2666 49.1608 88.2666ZM49.1608 87.4661C49.7042 87.4661 50.1263 87.2042 50.4271 86.6802C50.7279 86.1562 50.8783 85.4091 50.8783 84.4388C50.8783 83.7935 50.8091 83.2441 50.6709 82.7905C50.535 82.3369 50.3385 81.9912 50.0814 81.7535C49.8267 81.5157 49.5198 81.3969 49.1608 81.3969C48.6223 81.3969 48.2014 81.6625 47.8982 82.1937C47.595 82.7226 47.4434 83.4709 47.4434 84.4388C47.4434 85.084 47.5113 85.6323 47.6471 86.0835C47.783 86.5346 47.9783 86.8779 48.233 87.1132C48.4901 87.3485 48.7994 87.4661 49.1608 87.4661ZM55.5648 88.2666C55.0166 88.2666 54.5497 88.1175 54.164 87.8191C53.7783 87.5183 53.4835 87.0829 53.2798 86.5128C53.076 85.9403 52.9741 85.249 52.9741 84.4388C52.9741 83.6334 53.076 82.9457 53.2798 82.3757C53.486 81.8032 53.7819 81.3666 54.1676 81.0658C54.5557 80.7625 55.0215 80.6109 55.5648 80.6109C56.1082 80.6109 56.5727 80.7625 56.9584 81.0658C57.3466 81.3666 57.6425 81.8032 57.8463 82.3757C58.0525 82.9457 58.1556 83.6334 58.1556 84.4388C58.1556 85.249 58.0537 85.9403 57.8499 86.5128C57.6461 87.0829 57.3514 87.5183 56.9657 87.8191C56.58 88.1175 56.1131 88.2666 55.5648 88.2666ZM55.5648 87.4661C56.1082 87.4661 56.5303 87.2042 56.8311 86.6802C57.1319 86.1562 57.2823 85.4091 57.2823 84.4388C57.2823 83.7935 57.2131 83.2441 57.0749 82.7905C56.939 82.3369 56.7425 81.9912 56.4854 81.7535C56.2307 81.5157 55.9239 81.3969 55.5648 81.3969C55.0263 81.3969 54.6054 81.6625 54.3022 82.1937C53.999 82.7226 53.8474 83.4709 53.8474 84.4388C53.8474 85.084 53.9153 85.6323 54.0512 86.0835C54.187 86.5346 54.3823 86.8779 54.637 87.1132C54.8941 87.3485 55.2034 87.4661 55.5648 87.4661Z" fill="black"/>
<path d="M62.675 50.619H67.7983" stroke="black" stroke-width="0.853868"/>
<path d="M42.8032 57.6941C42.3035 57.6941 41.862 57.6056 41.4787 57.4285C41.0979 57.249 40.8007 57.0028 40.5873 56.6899C40.3738 56.3745 40.2683 56.0155 40.2707 55.6128C40.2683 55.2975 40.3301 55.0064 40.4563 54.7396C40.5824 54.4703 40.7546 54.2459 40.973 54.0664C41.1937 53.8845 41.4399 53.7693 41.7116 53.7207V53.6771C41.355 53.5849 41.0712 53.3848 40.8602 53.0767C40.6491 52.7662 40.5448 52.4133 40.5472 52.0179C40.5448 51.6394 40.6406 51.3011 40.8347 51.0027C41.0288 50.7043 41.2956 50.469 41.6352 50.2968C41.9772 50.1246 42.3666 50.0384 42.8032 50.0384C43.235 50.0384 43.6207 50.1246 43.9603 50.2968C44.2999 50.469 44.5667 50.7043 44.7608 51.0027C44.9573 51.3011 45.0567 51.6394 45.0592 52.0179C45.0567 52.4133 44.9488 52.7662 44.7353 53.0767C44.5243 53.3848 44.2441 53.5849 43.8948 53.6771V53.7207C44.1641 53.7693 44.4066 53.8845 44.6225 54.0664C44.8384 54.2459 45.0106 54.4703 45.1392 54.7396C45.2678 55.0064 45.3333 55.2975 45.3357 55.6128C45.3333 56.0155 45.2241 56.3745 45.0082 56.6899C44.7948 57.0028 44.4976 57.249 44.1168 57.4285C43.7383 57.6056 43.3005 57.6941 42.8032 57.6941ZM42.8032 56.8936C43.1404 56.8936 43.4315 56.8391 43.6765 56.7299C43.9215 56.6207 44.1107 56.4667 44.2441 56.2678C44.3775 56.0689 44.4454 55.836 44.4479 55.5692C44.4454 55.2878 44.3727 55.0392 44.2296 54.8233C44.0864 54.6074 43.8912 54.4376 43.6437 54.3138C43.3987 54.1901 43.1186 54.1283 42.8032 54.1283C42.4854 54.1283 42.2016 54.1901 41.9518 54.3138C41.7043 54.4376 41.5091 54.6074 41.3659 54.8233C41.2252 55.0392 41.1561 55.2878 41.1585 55.5692C41.1561 55.836 41.2204 56.0689 41.3514 56.2678C41.4848 56.4667 41.6752 56.6207 41.9227 56.7299C42.1701 56.8391 42.4636 56.8936 42.8032 56.8936ZM42.8032 53.3569C43.07 53.3569 43.3066 53.3035 43.5127 53.1968C43.7214 53.0901 43.8851 52.9409 44.004 52.7492C44.1228 52.5576 44.1835 52.3332 44.1859 52.0761C44.1835 51.8238 44.124 51.6043 44.0076 51.4175C43.8912 51.2283 43.7298 51.0827 43.5237 50.9809C43.3175 50.8765 43.0773 50.8244 42.8032 50.8244C42.5242 50.8244 42.2805 50.8765 42.0718 50.9809C41.8632 51.0827 41.7019 51.2283 41.5879 51.4175C41.4739 51.6043 41.4181 51.8238 41.4205 52.0761C41.4181 52.3332 41.4751 52.5576 41.5915 52.7492C41.7104 52.9409 41.8741 53.0901 42.0828 53.1968C42.2914 53.3035 42.5315 53.3569 42.8032 53.3569ZM49.1608 57.6941C48.6126 57.6941 48.1456 57.545 47.7599 57.2466C47.3743 56.9458 47.0795 56.5104 46.8758 55.9403C46.672 55.3678 46.5701 54.6765 46.5701 53.8663C46.5701 53.0609 46.672 52.3732 46.8758 51.8032C47.0819 51.2307 47.3779 50.7941 47.7636 50.4933C48.1517 50.1901 48.6175 50.0384 49.1608 50.0384C49.7042 50.0384 50.1687 50.1901 50.5544 50.4933C50.9425 50.7941 51.2385 51.2307 51.4423 51.8032C51.6484 52.3732 51.7515 53.0609 51.7515 53.8663C51.7515 54.6765 51.6497 55.3678 51.4459 55.9403C51.2421 56.5104 50.9474 56.9458 50.5617 57.2466C50.176 57.545 49.709 57.6941 49.1608 57.6941ZM49.1608 56.8936C49.7042 56.8936 50.1263 56.6317 50.4271 56.1077C50.7279 55.5837 50.8783 54.8366 50.8783 53.8663C50.8783 53.221 50.8091 52.6716 50.6709 52.218C50.535 51.7644 50.3385 51.4187 50.0814 51.181C49.8267 50.9433 49.5198 50.8244 49.1608 50.8244C48.6223 50.8244 48.2014 51.09 47.8982 51.6213C47.595 52.1501 47.4434 52.8984 47.4434 53.8663C47.4434 54.5115 47.5113 55.0598 47.6472 55.511C47.783 55.9622 47.9783 56.3054 48.233 56.5407C48.4901 56.776 48.7994 56.8936 49.1608 56.8936ZM55.5648 57.6941C55.0166 57.6941 54.5497 57.545 54.164 57.2466C53.7783 56.9458 53.4835 56.5104 53.2798 55.9403C53.076 55.3678 52.9741 54.6765 52.9741 53.8663C52.9741 53.0609 53.076 52.3732 53.2798 51.8032C53.486 51.2307 53.7819 50.7941 54.1676 50.4933C54.5557 50.1901 55.0215 50.0384 55.5648 50.0384C56.1082 50.0384 56.5727 50.1901 56.9584 50.4933C57.3466 50.7941 57.6425 51.2307 57.8463 51.8032C58.0525 52.3732 58.1556 53.0609 58.1556 53.8663C58.1556 54.6765 58.0537 55.3678 57.8499 55.9403C57.6461 56.5104 57.3514 56.9458 56.9657 57.2466C56.58 57.545 56.1131 57.6941 55.5648 57.6941ZM55.5648 56.8936C56.1082 56.8936 56.5303 56.6317 56.8311 56.1077C57.1319 55.5837 57.2823 54.8366 57.2823 53.8663C57.2823 53.221 57.2131 52.6716 57.0749 52.218C56.939 51.7644 56.7425 51.4187 56.4854 51.181C56.2307 50.9433 55.9239 50.8244 55.5648 50.8244C55.0263 50.8244 54.6055 51.09 54.3022 51.6213C53.999 52.1501 53.8474 52.8984 53.8474 53.8663C53.8474 54.5115 53.9153 55.0598 54.0512 55.511C54.187 55.9622 54.3823 56.3054 54.637 56.5407C54.8941 56.776 55.2034 56.8936 55.5648 56.8936Z" fill="black"/>
<path d="M67.7981 79.3089L195.451 97.0694L323.105 133.786L450.758 91.6046L578.411 183.822" stroke="#3B7D8C" stroke-width="0.853868"/>
<path d="M67.7982 81.8705C69.2129 81.8705 70.3598 80.7237 70.3598 79.3089C70.3598 77.8942 69.2129 76.7473 67.7982 76.7473C66.3834 76.7473 65.2366 77.8942 65.2366 79.3089C65.2366 80.7237 66.3834 81.8705 67.7982 81.8705Z" fill="white" stroke="#193B59" stroke-width="0.853868"/>
<path d="M195.452 99.631C196.866 99.631 198.013 98.4841 198.013 97.0694C198.013 95.6547 196.866 94.5078 195.452 94.5078C194.037 94.5078 192.89 95.6547 192.89 97.0694C192.89 98.4841 194.037 99.631 195.452 99.631Z" fill="white" stroke="#193B59" stroke-width="0.853868"/>
<path d="M323.105 136.347C324.52 136.347 325.667 135.2 325.667 133.786C325.667 132.371 324.52 131.224 323.105 131.224C321.69 131.224 320.543 132.371 320.543 133.786C320.543 135.2 321.69 136.347 323.105 136.347Z" fill="white" stroke="#193B59" stroke-width="0.853868"/>
<path d="M450.758 94.1662C452.173 94.1662 453.32 93.0194 453.32 91.6046C453.32 90.1899 452.173 89.043 450.758 89.043C449.344 89.043 448.197 90.1899 448.197 91.6046C448.197 93.0194 449.344 94.1662 450.758 94.1662Z" fill="white" stroke="#193B59" stroke-width="0.853868"/>
<path d="M578.411 186.384C579.826 186.384 580.973 185.237 580.973 183.822C580.973 182.408 579.826 181.261 578.411 181.261C576.997 181.261 575.85 182.408 575.85 183.822C575.85 185.237 576.997 186.384 578.411 186.384Z" fill="white" stroke="#193B59" stroke-width="0.853868"/>
</svg>
