<svg width="574" height="262" viewBox="0 0 574 262" fill="none" xmlns="http://www.w3.org/2000/svg">
<rect x="0.468954" y="0.468954" width="573.062" height="260.739" rx="8.91013" fill="#F2F2F2"/>
<rect x="0.468954" y="0.468954" width="573.062" height="260.739" rx="8.91013" stroke="#3B7D8C" stroke-width="0.937908"/>
<path d="M46.7175 208.068H353.72" stroke="black" stroke-width="0.513382"/>
<path d="M97.8845 211.148V208.068" stroke="black" stroke-width="0.513382"/>
<path d="M97.8311 221.583C97.5014 221.583 97.2207 221.493 96.9888 221.314C96.7569 221.133 96.5797 220.871 96.4572 220.529C96.3347 220.185 96.2734 219.769 96.2734 219.282C96.2734 218.798 96.3347 218.384 96.4572 218.041C96.5811 217.697 96.7591 217.435 96.991 217.254C97.2243 217.071 97.5044 216.98 97.8311 216.98C98.1578 216.98 98.437 217.071 98.6689 217.254C98.9023 217.435 99.0802 217.697 99.2027 218.041C99.3267 218.384 99.3887 218.798 99.3887 219.282C99.3887 219.769 99.3274 220.185 99.2049 220.529C99.0824 220.871 98.9052 221.133 98.6733 221.314C98.4414 221.493 98.1607 221.583 97.8311 221.583ZM97.8311 221.102C98.1578 221.102 98.4115 220.944 98.5924 220.629C98.7732 220.314 98.8637 219.865 98.8637 219.282C98.8637 218.894 98.8221 218.563 98.739 218.291C98.6573 218.018 98.5391 217.81 98.3845 217.667C98.2314 217.524 98.0469 217.453 97.8311 217.453C97.5073 217.453 97.2542 217.612 97.0719 217.932C96.8896 218.25 96.7985 218.7 96.7985 219.282C96.7985 219.67 96.8393 219.999 96.921 220.271C97.0026 220.542 97.12 220.748 97.2732 220.89C97.4278 221.031 97.6137 221.102 97.8311 221.102Z" fill="black"/>
<path d="M200.219 211.148V208.068" stroke="black" stroke-width="0.513382"/>
<path d="M200.786 217.041V221.522H200.243V217.61H200.217L199.123 218.337V217.785L200.243 217.041H200.786Z" fill="black"/>
<path d="M302.553 211.148V208.068" stroke="black" stroke-width="0.513382"/>
<path d="M301.098 221.522V221.128L302.577 219.509C302.75 219.32 302.893 219.155 303.006 219.015C303.118 218.873 303.201 218.741 303.255 218.617C303.311 218.491 303.338 218.36 303.338 218.223C303.338 218.065 303.3 217.929 303.224 217.814C303.15 217.699 303.048 217.61 302.918 217.547C302.788 217.484 302.643 217.453 302.481 217.453C302.309 217.453 302.158 217.489 302.03 217.56C301.903 217.63 301.805 217.728 301.735 217.855C301.666 217.982 301.632 218.131 301.632 218.302H301.116C301.116 218.039 301.176 217.809 301.297 217.61C301.418 217.412 301.583 217.257 301.792 217.147C302.002 217.036 302.237 216.98 302.498 216.98C302.761 216.98 302.993 217.036 303.196 217.147C303.399 217.257 303.558 217.407 303.673 217.595C303.788 217.783 303.846 217.992 303.846 218.223C303.846 218.388 303.816 218.549 303.756 218.706C303.698 218.862 303.596 219.037 303.45 219.229C303.305 219.42 303.105 219.654 302.848 219.929L301.842 221.006V221.041H303.925V221.522H301.098Z" fill="black"/>
<path d="M56.9507 136.276H138.578V208.068H56.9507V136.276Z" fill="#3B7D8C"/>
<path d="M159.285 145.722H240.913V208.068H159.285V145.722Z" fill="#3B7D8C"/>
<path d="M261.619 153.362H343.247V208.068H261.619V153.362Z" fill="#3B7D8C"/>
<path d="M539.553 138.245C539.553 123.415 534.902 108.957 526.254 96.9089C517.607 84.8604 505.398 75.8273 491.347 71.0813L468.661 138.245H539.553Z" fill="#3B7D8C" stroke="white" stroke-width="0.886148"/>
<path d="M491.348 71.0813C477.614 66.4424 462.788 66.1252 448.868 70.1727C434.948 74.2201 422.604 82.4375 413.499 93.7174C404.393 104.997 398.965 118.797 397.945 133.258C396.925 147.718 400.363 162.143 407.795 174.59L468.661 138.245L491.348 71.0813Z" fill="#3B7D8C" stroke="white" stroke-width="0.886148"/>
<path d="M407.795 174.59C415.75 187.912 427.856 198.256 442.256 204.036C456.656 209.815 472.554 210.711 487.512 206.585C502.47 202.459 515.661 193.539 525.062 181.195C534.463 168.85 539.553 153.762 539.553 138.245H468.662L407.795 174.59Z" fill="#3B7D8C" stroke="white" stroke-width="0.886148"/>
<path d="M526.254 96.9089L540.653 86.5748L526.254 96.9089Z" fill="#3B7D8C"/>
<path d="M526.254 96.9089L540.653 86.5748" stroke="#193B59" stroke-width="0.886148"/>
<path d="M541.272 84.355V83.5847L544.67 78.2073H545.229V79.4006H544.851L542.284 83.4638V83.5242H546.86V84.355H541.272ZM544.912 85.941V84.1209V83.7621V78.2073H545.803V85.941H544.912ZM548.517 85.941L551.976 79.0985V79.0381H547.989V78.2073H552.943V79.0834L549.499 85.941H548.517ZM556.787 86.0467C556.289 86.0467 555.844 85.9611 555.454 85.79C555.066 85.6188 554.758 85.3809 554.529 85.0763C554.302 84.7691 554.179 84.4129 554.159 84.0076H555.11C555.131 84.2568 555.216 84.4721 555.367 84.6533C555.518 84.8321 555.716 84.9705 555.96 85.0687C556.204 85.1669 556.475 85.216 556.772 85.216C557.104 85.216 557.399 85.1581 557.656 85.0423C557.912 84.9265 558.114 84.7653 558.26 84.5589C558.406 84.3525 558.479 84.1133 558.479 83.8414C558.479 83.557 558.408 83.3065 558.267 83.09C558.126 82.871 557.92 82.6998 557.648 82.5764C557.376 82.4531 557.044 82.3914 556.651 82.3914H556.032V81.5606H556.651C556.958 81.5606 557.228 81.5052 557.459 81.3945C557.693 81.2837 557.876 81.1276 558.007 80.9262C558.14 80.7248 558.207 80.4882 558.207 80.2163C558.207 79.9545 558.149 79.7266 558.033 79.5328C557.917 79.3389 557.754 79.1879 557.542 79.0796C557.333 78.9714 557.087 78.9173 556.802 78.9173C556.535 78.9173 556.284 78.9664 556.047 79.0645C555.813 79.1602 555.622 79.2999 555.473 79.4837C555.324 79.665 555.244 79.884 555.231 80.1408H554.325C554.34 79.7354 554.462 79.3805 554.691 79.0759C554.92 78.7687 555.22 78.5296 555.59 78.3584C555.963 78.1872 556.372 78.1016 556.817 78.1016C557.296 78.1016 557.706 78.1985 558.048 78.3924C558.391 78.5837 558.654 78.8367 558.838 79.1514C559.021 79.4661 559.113 79.8059 559.113 80.171C559.113 80.6065 558.999 80.9778 558.77 81.2849C558.543 81.5921 558.235 81.8048 557.844 81.9231V81.9835C558.333 82.0641 558.714 82.2718 558.989 82.6066C559.263 82.9389 559.4 83.3505 559.4 83.8414C559.4 84.2619 559.286 84.6395 559.057 84.9743C558.83 85.3066 558.52 85.5684 558.128 85.7597C557.735 85.9511 557.288 86.0467 556.787 86.0467Z" fill="#3B7D8C"/>
<path d="M413.498 93.7174L399.708 82.5854L413.498 93.7174Z" fill="#3B7D8C"/>
<path d="M413.498 93.7174L399.708 82.5854" stroke="#193B59" stroke-width="0.886148"/>
<path d="M383.045 74.1123C383.363 74.1148 383.68 74.1752 383.997 74.2935C384.314 74.4119 384.604 74.6082 384.865 74.8826C385.127 75.1545 385.337 75.5258 385.496 75.9966C385.655 76.4674 385.734 77.0577 385.734 77.7676C385.734 78.4549 385.669 79.0654 385.538 79.5991C385.409 80.1303 385.223 80.5784 384.979 80.9434C384.737 81.3085 384.443 81.5854 384.095 81.7742C383.75 81.963 383.36 82.0574 382.924 82.0574C382.491 82.0574 382.105 81.9718 381.765 81.8006C381.428 81.6269 381.151 81.3865 380.934 81.0794C380.72 80.7697 380.583 80.411 380.523 80.0031H381.444C381.527 80.3581 381.692 80.6514 381.939 80.883C382.188 81.1121 382.517 81.2266 382.924 81.2266C383.521 81.2266 383.992 80.9661 384.337 80.445C384.684 79.9238 384.858 79.1875 384.858 78.2359H384.797C384.657 78.4474 384.489 78.6299 384.295 78.7834C384.101 78.937 383.886 79.0553 383.65 79.1384C383.413 79.2215 383.161 79.263 382.894 79.263C382.451 79.263 382.045 79.1535 381.675 78.9345C381.307 78.7129 381.012 78.4096 380.791 78.0244C380.572 77.6367 380.462 77.1937 380.462 76.6952C380.462 76.2219 380.568 75.7889 380.78 75.3962C380.994 75.0009 381.293 74.6863 381.678 74.4521C382.066 74.218 382.522 74.1047 383.045 74.1123ZM383.045 74.943C382.728 74.943 382.442 75.0223 382.188 75.1809C381.936 75.337 381.736 75.5485 381.588 75.8153C381.442 76.0797 381.369 76.373 381.369 76.6952C381.369 77.0174 381.439 77.3107 381.58 77.5751C381.724 77.8369 381.919 78.0458 382.165 78.2019C382.415 78.3555 382.698 78.4322 383.015 78.4322C383.254 78.4322 383.477 78.3857 383.684 78.2925C383.89 78.1969 384.07 78.0672 384.224 77.9036C384.38 77.7374 384.502 77.5499 384.59 77.3409C384.678 77.1295 384.722 76.9092 384.722 76.6801C384.722 76.378 384.649 76.0948 384.503 75.8304C384.359 75.5661 384.161 75.3521 383.906 75.1885C383.655 75.0249 383.368 74.943 383.045 74.943ZM387.219 81.9517V81.272L389.772 78.4776C390.071 78.1503 390.318 77.8658 390.512 77.6241C390.706 77.3799 390.849 77.1509 390.942 76.9369C391.038 76.7204 391.086 76.4938 391.086 76.2572C391.086 75.9853 391.02 75.7499 390.889 75.551C390.761 75.3521 390.585 75.1986 390.361 75.0903C390.137 74.9821 389.885 74.9279 389.606 74.9279C389.308 74.9279 389.049 74.9896 388.828 75.113C388.609 75.2338 388.439 75.4037 388.318 75.6228C388.2 75.8418 388.14 76.0986 388.14 76.3931H387.249C387.249 75.94 387.354 75.5422 387.563 75.1998C387.772 74.8574 388.056 74.5906 388.416 74.3993C388.779 74.2079 389.185 74.1123 389.636 74.1123C390.089 74.1123 390.49 74.2079 390.84 74.3993C391.19 74.5906 391.465 74.8486 391.664 75.1734C391.862 75.4981 391.962 75.8594 391.962 76.2572C391.962 76.5416 391.91 76.8198 391.807 77.0917C391.706 77.3611 391.53 77.6619 391.278 77.9942C391.029 78.324 390.683 78.7268 390.24 79.2026L388.503 81.0605V81.1209H392.098V81.9517H387.219ZM396.074 82.0574C395.631 82.0574 395.232 81.9693 394.877 81.7931C394.522 81.6168 394.238 81.3752 394.024 81.068C393.81 80.7609 393.693 80.411 393.673 80.0183H394.579C394.614 80.3682 394.773 80.6577 395.055 80.8868C395.339 81.1134 395.679 81.2266 396.074 81.2266C396.391 81.2266 396.673 81.1524 396.92 81.0038C397.169 80.8553 397.364 80.6514 397.505 80.3921C397.649 80.1303 397.721 79.8345 397.721 79.5047C397.721 79.1673 397.646 78.8665 397.498 78.6022C397.352 78.3353 397.15 78.1251 396.894 77.9716C396.637 77.818 396.344 77.7399 396.014 77.7374C395.777 77.7349 395.534 77.7714 395.285 77.8469C395.036 77.9199 394.831 78.0143 394.669 78.1302L393.793 78.0244L394.262 74.218H398.279V75.0488H395.047L394.775 77.3296H394.82C394.979 77.2037 395.178 77.0993 395.417 77.0162C395.656 76.9331 395.905 76.8916 396.165 76.8916C396.638 76.8916 397.06 77.0048 397.43 77.2314C397.802 77.4555 398.094 77.7626 398.306 78.1528C398.52 78.543 398.627 78.9886 398.627 79.4896C398.627 79.983 398.516 80.4236 398.295 80.8113C398.076 81.1964 397.773 81.501 397.388 81.7251C397.003 81.9466 396.565 82.0574 396.074 82.0574Z" fill="#3B7D8C"/>
<path d="M487.512 206.585L492.225 223.67L487.512 206.585Z" fill="#3B7D8C"/>
<path d="M487.512 206.585L492.225 223.67" stroke="#193B59" stroke-width="0.886148"/>
<path d="M495.488 215.197C495.805 215.199 496.122 215.259 496.439 215.378C496.757 215.496 497.046 215.692 497.308 215.967C497.57 216.239 497.78 216.61 497.938 217.081C498.097 217.552 498.176 218.142 498.176 218.852C498.176 219.539 498.111 220.15 497.98 220.683C497.852 221.215 497.665 221.663 497.421 222.028C497.179 222.393 496.885 222.67 496.538 222.858C496.193 223.047 495.802 223.142 495.367 223.142C494.934 223.142 494.547 223.056 494.208 222.885C493.87 222.711 493.593 222.471 493.377 222.164C493.163 221.854 493.026 221.495 492.965 221.087H493.887C493.97 221.442 494.135 221.736 494.381 221.967C494.631 222.196 494.959 222.311 495.367 222.311C495.964 222.311 496.434 222.05 496.779 221.529C497.127 221.008 497.3 220.272 497.3 219.32H497.24C497.099 219.532 496.932 219.714 496.738 219.868C496.544 220.021 496.329 220.14 496.092 220.223C495.855 220.306 495.604 220.347 495.337 220.347C494.894 220.347 494.487 220.238 494.117 220.019C493.749 219.797 493.455 219.494 493.233 219.109C493.014 218.721 492.905 218.278 492.905 217.779C492.905 217.306 493.011 216.873 493.222 216.48C493.436 216.085 493.736 215.771 494.121 215.536C494.508 215.302 494.964 215.189 495.488 215.197ZM495.488 216.027C495.171 216.027 494.885 216.107 494.631 216.265C494.379 216.421 494.179 216.633 494.03 216.9C493.884 217.164 493.811 217.457 493.811 217.779C493.811 218.102 493.882 218.395 494.023 218.659C494.166 218.921 494.361 219.13 494.608 219.286C494.857 219.44 495.14 219.517 495.458 219.517C495.697 219.517 495.919 219.47 496.126 219.377C496.332 219.281 496.512 219.151 496.666 218.988C496.822 218.822 496.944 218.634 497.032 218.425C497.12 218.214 497.164 217.993 497.164 217.764C497.164 217.462 497.091 217.179 496.945 216.915C496.802 216.65 496.603 216.436 496.349 216.273C496.097 216.109 495.81 216.027 495.488 216.027ZM502.139 223.142C501.62 223.142 501.162 223.05 500.764 222.866C500.369 222.68 500.06 222.424 499.839 222.099C499.617 221.772 499.508 221.4 499.51 220.982C499.508 220.654 499.572 220.352 499.703 220.075C499.834 219.796 500.013 219.563 500.239 219.377C500.468 219.188 500.724 219.068 501.006 219.018V218.973C500.636 218.877 500.341 218.669 500.122 218.35C499.903 218.027 499.795 217.661 499.797 217.251C499.795 216.858 499.894 216.507 500.096 216.197C500.297 215.888 500.574 215.643 500.926 215.465C501.281 215.286 501.685 215.197 502.139 215.197C502.587 215.197 502.987 215.286 503.339 215.465C503.692 215.643 503.969 215.888 504.17 216.197C504.374 216.507 504.477 216.858 504.48 217.251C504.477 217.661 504.365 218.027 504.144 218.35C503.925 218.669 503.634 218.877 503.271 218.973V219.018C503.551 219.068 503.803 219.188 504.027 219.377C504.251 219.563 504.429 219.796 504.563 220.075C504.696 220.352 504.764 220.654 504.767 220.982C504.764 221.4 504.651 221.772 504.427 222.099C504.205 222.424 503.897 222.68 503.502 222.866C503.109 223.05 502.655 223.142 502.139 223.142ZM502.139 222.311C502.488 222.311 502.791 222.254 503.045 222.141C503.299 222.028 503.495 221.868 503.634 221.661C503.772 221.455 503.843 221.213 503.845 220.936C503.843 220.644 503.767 220.386 503.619 220.162C503.47 219.938 503.268 219.762 503.011 219.634C502.757 219.505 502.466 219.441 502.139 219.441C501.809 219.441 501.514 219.505 501.255 219.634C500.998 219.762 500.795 219.938 500.647 220.162C500.501 220.386 500.429 220.644 500.432 220.936C500.429 221.213 500.496 221.455 500.632 221.661C500.77 221.868 500.968 222.028 501.225 222.141C501.482 222.254 501.786 222.311 502.139 222.311ZM502.139 218.64C502.415 218.64 502.661 218.585 502.875 218.474C503.091 218.364 503.261 218.209 503.385 218.01C503.508 217.811 503.571 217.578 503.574 217.311C503.571 217.049 503.509 216.822 503.388 216.628C503.268 216.431 503.1 216.28 502.886 216.175C502.672 216.066 502.423 216.012 502.139 216.012C501.849 216.012 501.596 216.066 501.38 216.175C501.163 216.28 500.996 216.431 500.877 216.628C500.759 216.822 500.701 217.049 500.704 217.311C500.701 217.578 500.76 217.811 500.881 218.01C501.004 218.209 501.174 218.364 501.391 218.474C501.607 218.585 501.857 218.64 502.139 218.64ZM508.676 215.197C508.993 215.199 509.311 215.259 509.628 215.378C509.945 215.496 510.234 215.692 510.496 215.967C510.758 216.239 510.968 216.61 511.127 217.081C511.285 217.552 511.365 218.142 511.365 218.852C511.365 219.539 511.299 220.15 511.168 220.683C511.04 221.215 510.854 221.663 510.61 222.028C510.368 222.393 510.073 222.67 509.726 222.858C509.381 223.047 508.991 223.142 508.555 223.142C508.122 223.142 507.736 223.056 507.396 222.885C507.059 222.711 506.782 222.471 506.565 222.164C506.351 221.854 506.214 221.495 506.154 221.087H507.075C507.158 221.442 507.323 221.736 507.57 221.967C507.819 222.196 508.147 222.311 508.555 222.311C509.152 222.311 509.623 222.05 509.968 221.529C510.315 221.008 510.489 220.272 510.489 219.32H510.428C510.287 219.532 510.12 219.714 509.926 219.868C509.732 220.021 509.517 220.14 509.28 220.223C509.044 220.306 508.792 220.347 508.525 220.347C508.082 220.347 507.675 220.238 507.305 220.019C506.938 219.797 506.643 219.494 506.422 219.109C506.203 218.721 506.093 218.278 506.093 217.779C506.093 217.306 506.199 216.873 506.41 216.48C506.624 216.085 506.924 215.771 507.309 215.536C507.697 215.302 508.152 215.189 508.676 215.197ZM508.676 216.027C508.359 216.027 508.073 216.107 507.819 216.265C507.567 216.421 507.367 216.633 507.218 216.9C507.072 217.164 506.999 217.457 506.999 217.779C506.999 218.102 507.07 218.395 507.211 218.659C507.354 218.921 507.55 219.13 507.796 219.286C508.045 219.44 508.329 219.517 508.646 219.517C508.885 219.517 509.108 219.47 509.314 219.377C509.521 219.281 509.701 219.151 509.854 218.988C510.01 218.822 510.132 218.634 510.221 218.425C510.309 218.214 510.353 217.993 510.353 217.764C510.353 217.462 510.28 217.179 510.134 216.915C509.99 216.65 509.791 216.436 509.537 216.273C509.285 216.109 508.998 216.027 508.676 216.027Z" fill="#3B7D8C"/>
</svg>
