<svg width="313" height="313" viewBox="0 0 313 313" fill="none" xmlns="http://www.w3.org/2000/svg">
<path d="M11.1172 98.8766L16.5812 83.942L24.5944 100.698L34.7934 87.5851L40.0783 96.7385L48.6355 66.094L55.5562 107.327L61.0202 86.7101L64.6626 99.9698L89.7962 100.698" stroke="#193B59" stroke-width="2.18553" stroke-miterlimit="10" stroke-linecap="round" stroke-linejoin="round"/>
<path opacity="0.14" d="M234.75 234.75C277.966 191.534 277.966 121.466 234.75 78.25C191.534 35.0337 121.466 35.0337 78.25 78.25C35.0337 121.466 35.0337 191.534 78.25 234.75C121.466 277.966 191.534 277.966 234.75 234.75Z" fill="#00D3C2"/>
<g opacity="0.11">
<path opacity="0.9608" d="M159.478 176.882C157.081 175.505 153.205 175.505 150.808 176.882L13.1455 256.91C10.7992 258.287 10.7992 260.531 13.1964 261.908L84.8583 303.273C87.2555 304.65 91.1319 304.65 93.5291 303.273L231.14 223.246C233.487 221.868 233.487 219.625 231.089 218.248L159.478 176.882Z" fill="#1D4B5B"/>
</g>
<g opacity="0.9608">
<path d="M232.578 211.42V221.43C232.681 221.38 232.731 221.329 232.833 221.277V211.267C232.782 211.318 232.68 211.368 232.578 211.42Z" fill="#1D546D"/>
<path d="M232.833 211.267V221.277C233.853 220.614 234.363 219.798 234.363 218.931V208.921C234.364 209.787 233.853 210.603 232.833 211.267Z" fill="#1D546D"/>
</g>
<g opacity="0.9608">
<path d="M12.7988 247.582V257.593C12.7988 258.206 13.054 258.818 13.6151 259.327V249.317C13.0546 248.806 12.7988 248.194 12.7988 247.582Z" fill="#1D546D"/>
<path d="M13.6147 249.316V259.326C13.8699 259.582 14.2274 259.837 14.6352 260.092V250.081C14.2274 249.877 13.8699 249.622 13.6147 249.316Z" fill="#1D546D"/>
</g>
<path opacity="0.9608" d="M160.918 165.056C158.52 163.679 154.644 163.679 152.247 165.056L14.584 245.083C12.2377 246.46 12.2377 248.704 14.6349 250.081L86.2967 291.446C88.694 292.823 92.5704 292.823 94.9676 291.446L232.579 211.42C234.925 210.042 234.925 207.798 232.528 206.421L160.918 165.056Z" fill="#1D546D"/>
<g opacity="0.9608">
<path d="M86.2456 291.446V301.457C86.3474 301.508 86.4498 301.559 86.5516 301.61V291.6C86.4498 291.549 86.3474 291.497 86.2456 291.446Z" fill="#1D546D"/>
<path d="M86.5522 291.65V301.661C88.4908 302.63 91.2958 302.783 93.5404 302.069V292.059C91.346 292.772 88.541 292.619 86.5522 291.65Z" fill="#1D546D"/>
<path d="M93.5396 292.058V302.069C94.0491 301.916 94.5085 301.712 94.917 301.457V291.446C94.5085 291.701 94.0498 291.905 93.5396 292.058Z" fill="#1D546D"/>
</g>
<path d="M232.579 211.42L94.9167 291.446C92.5195 292.823 88.6437 292.823 86.2465 291.446L14.1306 249.79C13.2555 249.162 12.7988 248.372 12.7988 247.583V257.592C12.7988 258.41 13.2866 259.226 14.2205 259.863V259.883L86.2459 301.457C88.6431 302.834 92.5188 302.834 94.9161 301.457L232.579 221.43C233.752 220.767 234.364 219.849 234.364 218.931V208.921C234.365 209.838 233.753 210.706 232.579 211.42Z" fill="#164859"/>
<path d="M142.809 173.268L31.0576 238.248L105.525 281.296L217.328 216.316L142.809 173.268Z" fill="#EDF8FF"/>
<path d="M198.049 195.302C197.437 194.945 196.417 194.945 195.754 195.302C195.142 195.659 195.142 196.271 195.754 196.628C196.366 196.985 197.386 196.985 198.049 196.628C198.712 196.22 198.712 195.659 198.049 195.302Z" fill="#173E49"/>
<path d="M183.154 187.039C182.695 186.784 181.981 186.784 181.522 187.039C181.063 187.295 181.063 187.702 181.522 187.958L191.315 193.619C191.774 193.874 192.488 193.874 192.947 193.619C193.406 193.364 193.406 192.956 192.947 192.65L183.154 187.039Z" fill="#173E49"/>
<path d="M59.717 263.84C59.2127 263.54 58.3733 263.54 57.869 263.84L56.6932 264.53C56.1895 264.828 56.1895 265.314 56.6932 265.593L58.0289 266.364C58.5326 266.663 59.3726 266.663 59.8769 266.364L61.0527 265.674C61.5564 265.375 61.5564 264.89 61.0527 264.61L59.717 263.84Z" stroke="#EDF8FF" stroke-width="0.510048" stroke-miterlimit="10"/>
<path d="M83.0725 277.469L80.5259 276.005" stroke="#EDF8FF" stroke-width="0.510048" stroke-miterlimit="10" stroke-linecap="round"/>
<path d="M82.1405 278.106L79.5933 276.643" stroke="#EDF8FF" stroke-width="0.510048" stroke-miterlimit="10" stroke-linecap="round"/>
<path d="M81.1003 278.809L78.5537 277.345" stroke="#EDF8FF" stroke-width="0.510048" stroke-miterlimit="10" stroke-linecap="round"/>
<path d="M38.1543 251.978L38.6084 254.153H35.9487" stroke="#EDF8FF" stroke-width="0.510048" stroke-miterlimit="10" stroke-linecap="round" stroke-linejoin="round"/>
<path d="M206.135 222.944L217.329 216.316L142.81 173.268L131.668 179.895L206.135 222.944Z" fill="#C7E0EF"/>
<path d="M93.007 208.525L91.0718 209.619L153.552 245.702L155.519 244.607L93.007 208.525Z" fill="white"/>
<path d="M85.7292 212.922L83.7939 214.017L146.275 250.099L148.242 249.004L85.7292 212.922Z" fill="white"/>
<path d="M78.2927 217.16L76.3574 218.255L138.838 254.337L140.805 253.243L78.2927 217.16Z" fill="white"/>
<path d="M71.0178 221.558L69.0825 222.652L131.563 258.734L133.53 257.64L71.0178 221.558Z" fill="white"/>
<path d="M202.416 211.801C202.943 212.105 202.946 212.603 202.421 212.908L158.101 238.765C157.577 239.069 156.717 239.069 156.19 238.765L96.8535 204.491C96.326 204.187 96.3234 203.689 96.8468 203.385L141.167 177.528C141.692 177.223 142.552 177.223 143.08 177.527L202.416 211.801Z" fill="#00D3C2"/>
<path d="M108.337 257.945C111.451 259.744 111.464 262.658 108.369 264.456C105.275 266.254 100.244 266.256 97.1291 264.458L60.1244 243.093C57.01 241.295 56.9935 238.379 60.088 236.581C63.1826 234.782 68.2176 234.782 71.3319 236.581L108.337 257.945Z" fill="#00D3C2"/>
<path d="M69.0297 239.464C69.076 240.009 68.6986 240.51 67.8975 240.976C67.1011 241.439 66.2293 241.669 65.2874 241.659C64.341 241.652 63.3767 241.364 62.3925 240.796L60.6245 239.775L65.7528 236.795L67.5816 237.851C68.5009 238.381 68.9834 238.919 69.0297 239.464ZM65.1354 240.748C65.68 240.758 66.2062 240.618 66.7144 240.323C67.2181 240.03 67.4626 239.722 67.452 239.402C67.4375 239.08 67.1374 238.752 66.5525 238.413L65.9068 238.041L62.7891 239.852L63.5214 240.275C64.0502 240.581 64.5868 240.736 65.1354 240.748Z" fill="white"/>
<path d="M72.5921 240.743L67.4639 243.723L66.3105 243.058L71.4395 240.078L72.5921 240.743Z" fill="white"/>
<path d="M76.5361 243.02L73.6399 247.289L72.4132 246.581L73.0391 245.66L70.8718 244.409L69.2882 244.777L68.0615 244.069L75.4178 242.375L76.5361 243.02ZM72.3173 244.076L73.6088 244.822L74.4574 243.586L72.3173 244.076Z" fill="white"/>
<path d="M81.8751 245.962C82.616 246.39 83.0166 246.906 83.0807 247.501L81.6213 247.656C81.5942 247.406 81.5195 247.204 81.4019 247.046C81.2803 246.89 81.1064 246.746 80.8811 246.615C80.4435 246.363 79.924 246.233 79.3279 246.233C78.7317 246.233 78.1924 246.37 77.7059 246.653C77.2195 246.936 76.9749 247.244 76.9769 247.579C76.9703 247.914 77.1705 248.2 77.5691 248.43C77.9676 248.66 78.3787 248.808 78.7945 248.873L80.2069 248.052L81.3682 248.722L79.5466 249.781C78.4627 249.814 77.4719 249.571 76.5658 249.048C75.8031 248.608 75.4197 248.097 75.4038 247.51C75.3873 246.921 75.7608 246.409 76.5228 245.966C77.2849 245.523 78.1778 245.305 79.2102 245.313C80.2426 245.319 81.1335 245.535 81.8751 245.962Z" fill="white"/>
<path d="M89.6736 250.604L84.5454 253.585L83.392 252.919L84.1429 249.631L80.9307 251.498L79.7773 250.832L84.9062 247.852L85.9849 248.475L85.2182 251.858L88.5209 249.939L89.6736 250.604Z" fill="white"/>
<path d="M94.6491 254.22C94.661 254.816 94.2968 255.334 93.5433 255.772C92.7899 256.21 91.8969 256.422 90.8685 256.417C89.8361 256.41 88.9445 256.185 88.1818 255.744C87.4191 255.304 87.0232 254.786 87.0113 254.191C86.9948 253.592 87.3636 253.077 88.117 252.639C88.8705 252.201 89.7595 251.986 90.7919 251.994C91.8203 251.998 92.7198 252.224 93.4825 252.664C94.2453 253.105 94.6326 253.622 94.6491 254.22ZM90.7509 255.516C91.3682 255.499 91.9075 255.361 92.3642 255.096C92.8249 254.828 93.0609 254.516 93.0893 254.157C93.1177 253.8 92.9168 253.495 92.4878 253.247C92.0542 252.996 91.5268 252.881 90.9088 252.899C90.2909 252.917 89.7562 253.056 89.2955 253.325C88.8388 253.59 88.5989 253.9 88.5704 254.258C88.5466 254.614 88.7515 254.916 89.1845 255.166C89.6141 255.414 90.1375 255.532 90.7509 255.516Z" fill="white"/>
<path d="M98.8206 255.747C99.1676 255.947 99.4538 256.182 99.6798 256.447C99.9059 256.718 100.041 256.986 100.082 257.258L98.6567 257.409C98.5503 256.953 98.2548 256.588 97.7776 256.313C97.5873 256.202 97.3877 256.143 97.1848 256.13C96.9858 256.12 96.8133 256.155 96.6626 256.243C96.5119 256.331 96.4604 256.436 96.5086 256.568C96.5569 256.695 96.7657 256.936 97.1345 257.288C97.504 257.641 97.7043 257.966 97.736 258.264C97.7677 258.557 97.5489 258.84 97.0929 259.105C96.6322 259.373 96.0843 259.49 95.4531 259.455C94.8179 259.423 94.2204 259.243 93.6527 258.915C92.8338 258.442 92.3982 257.841 92.3467 257.113L93.8715 257.025C93.9395 257.628 94.2145 258.066 94.6871 258.339C94.8992 258.461 95.1114 258.529 95.3236 258.547C95.5351 258.564 95.7168 258.529 95.8715 258.439C96.0268 258.349 96.0823 258.241 96.0427 258.114C96.0076 257.989 95.8464 257.786 95.5595 257.516C95.0988 257.085 94.8464 256.725 94.7974 256.432C94.7439 256.137 94.9627 255.849 95.4491 255.566C95.9356 255.284 96.4881 255.169 97.1061 255.216C97.7208 255.266 98.2965 255.444 98.8206 255.747Z" fill="white"/>
<path d="M102.871 258.224L97.7425 261.205L96.5898 260.539L101.718 257.559L102.871 258.224Z" fill="white"/>
<path d="M105.96 259.868C106.307 260.068 106.588 260.301 106.819 260.569C107.045 260.839 107.18 261.107 107.221 261.38L105.796 261.53C105.689 261.074 105.394 260.709 104.917 260.434C104.726 260.323 104.527 260.264 104.324 260.251C104.121 260.239 103.952 260.276 103.802 260.364C103.651 260.451 103.599 260.557 103.648 260.689C103.697 260.816 103.905 261.056 104.274 261.409C104.644 261.762 104.844 262.087 104.872 262.383C104.908 262.678 104.689 262.961 104.233 263.226C103.772 263.494 103.224 263.612 102.593 263.577C101.958 263.544 101.356 263.361 100.792 263.036C99.9734 262.563 99.5379 261.963 99.4863 261.234L101.011 261.146C101.079 261.749 101.354 262.187 101.826 262.46C102.038 262.582 102.25 262.651 102.463 262.668C102.674 262.686 102.856 262.651 103.01 262.56C103.166 262.47 103.221 262.362 103.182 262.235C103.147 262.11 102.985 261.907 102.699 261.637C102.238 261.206 101.985 260.846 101.932 260.551C101.883 260.258 102.101 259.97 102.588 259.688C103.075 259.405 103.627 259.29 104.245 259.337C104.859 259.388 105.435 259.565 105.96 259.868Z" fill="white"/>
<mask id="mask0_199_365" style="mask-type:luminance" maskUnits="userSpaceOnUse" x="50" y="51" width="176" height="175">
<path d="M105.216 198.347C105.216 198.347 120.354 222.901 164.338 225.753C192.138 227.554 191.634 213.53 191.634 206.955C191.634 200.38 225.968 146.152 225.968 139.819C225.968 133.486 217.464 81.546 177.114 60.7244C146.49 44.9226 81.0453 50.1236 73.2072 76.1389C65.3691 102.154 44.7827 160.945 51.2428 172.745C57.7028 184.546 105.216 198.347 105.216 198.347Z" fill="white"/>
</mask>
<g mask="url(#mask0_199_365)">
<path opacity="0.07" d="M136.628 146.897C136.628 146.897 150.522 148.067 154.711 145.851C154.711 145.851 149.822 150.137 136.341 149.011L136.628 146.897Z" fill="#010101"/>
<path d="M154.325 79.8892C154.325 79.8892 160.352 81.1873 166.743 84.835C173.295 88.574 180.227 94.7868 181.435 104.602C182.13 110.254 181.838 115.75 180.567 120.82C177.476 133.143 168.613 142.942 154.147 146.323C143.938 148.709 132.771 147.596 124.306 141.469C115.839 135.343 110.471 121.916 112.18 110.521C113.888 99.1265 118.64 92.9474 126.106 87.4504C133.572 81.9527 143.353 79.4219 154.325 79.8892Z" fill="#FFB681"/>
<path d="M135.167 125.538C135.672 127.444 137.095 128.983 139.004 129.264C141.189 129.586 143.07 128.211 144.323 126.451C144.993 125.509 134.867 124.404 135.167 125.538Z" fill="white"/>
<path d="M139.151 121.412C139.13 121.413 139.109 121.414 139.089 121.412C138.99 121.405 138.117 121.352 137.55 121.2C136.178 120.833 135.67 120.09 135.486 119.532C135.296 118.954 135.26 117.999 136.179 116.725C136.994 115.595 137.074 113.364 137.035 112.599C137.014 112.196 137.309 111.849 137.692 111.829C137.699 111.829 137.703 111.829 137.708 111.829C138.085 111.816 138.403 112.123 138.425 112.521C138.432 112.654 138.581 115.824 137.287 117.615C136.869 118.195 136.691 118.716 136.8 119.048C136.902 119.358 137.291 119.617 137.891 119.777C138.261 119.875 138.938 119.932 139.166 119.946C139.55 119.969 139.846 120.315 139.822 120.719C139.801 121.104 139.507 121.401 139.151 121.412Z" fill="#ED8A43"/>
<path opacity="0.32" d="M114.208 128.272C115.191 128.751 116.29 129.001 117.448 128.962C121.403 128.825 124.503 125.334 124.374 121.163C124.245 116.993 120.934 113.721 116.979 113.858C115.497 113.909 114.132 114.432 113.016 115.285" fill="#FB9A4D"/>
<path d="M124.007 112.812C123.954 114.364 124.754 115.653 125.793 115.693C126.832 115.734 127.72 114.508 127.774 112.958C127.828 111.406 127.029 110.114 125.986 110.075C124.946 110.036 124.06 111.26 124.007 112.812Z" fill="#002019"/>
<path d="M153.416 115.108C153.363 116.66 154.163 117.949 155.202 117.989C156.242 118.03 157.129 116.804 157.183 115.254C157.237 113.702 156.438 112.41 155.396 112.371C154.356 112.331 153.47 113.556 153.416 115.108Z" fill="#002019"/>
<path opacity="0.32" d="M173.861 122.464C173.999 126.912 170.692 130.636 166.475 130.782C162.258 130.928 158.726 127.44 158.588 122.991C158.45 118.545 161.758 114.82 165.975 114.675C170.192 114.529 173.723 118.018 173.861 122.464Z" fill="#FB9A4D"/>
<path d="M173.571 128.429C173.97 128.529 174.865 128.64 175.296 128.626C177.876 128.537 179.9 126.258 179.816 123.535C179.732 120.813 177.571 118.679 174.99 118.768C174.343 118.791 173.469 118.57 172.918 118.84C172.918 118.84 173.714 121.768 173.642 125.099C173.571 128.429 173.571 128.429 173.571 128.429Z" fill="#FFB681"/>
<g opacity="0.37">
<path d="M177.484 124.654C177.147 124.666 176.841 124.42 176.773 124.058C176.393 122.023 174.578 121.803 174.501 121.794C174.118 121.753 173.835 121.391 173.872 120.987C173.91 120.585 174.247 120.288 174.63 120.324C175.643 120.416 177.681 121.258 178.15 123.774C178.225 124.174 177.976 124.562 177.596 124.641C177.557 124.65 177.519 124.653 177.484 124.654Z" fill="#ED8A43"/>
</g>
<path d="M124.683 153.069C124.683 153.069 118.724 154.785 115.45 164.767C111.878 175.656 108.344 197.05 107.162 208.526C104.897 230.518 105.565 240.495 105.565 240.495L119.896 244.499L124.683 153.069Z" fill="white"/>
<path d="M116.205 191.619C116.205 191.619 117.631 196.389 117.631 203.482C117.631 210.576 109.603 280.985 109.603 280.985C109.603 280.985 182.345 294.089 181.957 283.706C181.57 273.322 181.958 217.53 181.958 217.53C181.958 217.53 185.037 167.553 167.057 154.369C156.917 146.934 151.182 147.49 143.496 147.365C134.852 147.221 129.632 148.327 124.683 151.759C109.618 162.21 116.205 191.619 116.205 191.619Z" fill="white"/>
<path opacity="0.08" d="M129.578 276.003L134.761 202.601C134.764 202.559 134.778 202.518 134.798 202.483L158.291 174.694L154.125 168.986L160.941 168.389L164.84 153.069L166.207 153.799L162.987 169.826L157.25 170.462L160.372 175.456L135.149 202.578L131.376 276.978" fill="#070707"/>
<path opacity="0.08" d="M129.175 149.319L128.439 162.527L132.685 165.051L127.948 166.079L134.728 202.479L125.716 164.808L128.76 164.301L126.359 162.781L125.991 150.915L129.175 149.319Z" fill="#070707"/>
<path d="M160.249 150.682L135.247 199.767L134.936 147.835C134.936 147.835 154.961 149.608 160.249 150.682Z" fill="#00D3C2"/>
<path d="M134.822 148.133C135.402 146.512 135.855 144.87 136.144 143.082C146.944 144.619 165.655 129.613 159.477 144.597C158.825 146.179 158.572 149.21 160.249 150.682C160.249 150.682 152.331 153.285 144.759 152.558C136.707 151.784 134.936 147.835 134.936 147.835" fill="#FFB681"/>
<path opacity="0.32" d="M135.443 146.207C135.443 146.207 151.647 148.135 156.625 145.716C156.625 145.716 150.659 149.695 134.936 147.835L135.443 146.207Z" fill="#FB9A4D"/>
<path d="M130.867 187.237C130.867 190.848 128.614 193.773 125.834 193.773C123.056 193.773 120.804 190.848 120.804 187.237C120.804 183.626 123.056 180.699 125.834 180.699C128.613 180.699 130.867 183.627 130.867 187.237Z" fill="#7AE2E2"/>
<path d="M128.448 187.237C128.448 190.412 126.466 192.986 124.022 192.986C121.577 192.986 119.597 190.412 119.597 187.237C119.597 184.061 121.578 181.488 124.022 181.488C126.466 181.488 128.448 184.061 128.448 187.237Z" fill="#1D546D"/>
<path d="M125.833 182.065C125.833 182.065 128.046 160.937 130.327 153.79C131.181 151.11 132.668 148.508 134.816 147.253" stroke="#1D546D" stroke-width="1.40721" stroke-miterlimit="10" stroke-linecap="round" stroke-linejoin="round"/>
<path opacity="0.08" d="M167.471 194.914V246.321H170.232L167.471 194.914Z" fill="#070707"/>
<path d="M158.335 170.343C159.782 165.693 162.338 151.689 159.812 149.319" stroke="#1D546D" stroke-width="1.40721" stroke-miterlimit="10" stroke-linecap="round" stroke-linejoin="round"/>
<path d="M146.805 195.235C146.805 195.235 147.828 167.924 159.289 171.777C166.532 174.213 166.445 195.235 166.445 195.235" stroke="#1D546D" stroke-width="1.40721" stroke-miterlimit="10" stroke-linecap="round" stroke-linejoin="round"/>
<path d="M148.669 195.235C148.669 196.477 147.834 197.484 146.806 197.484C145.775 197.484 144.94 196.477 144.94 195.235C144.94 193.993 145.775 192.987 146.806 192.987C147.834 192.987 148.669 193.993 148.669 195.235Z" fill="#7AE2E2"/>
<path d="M168.31 195.958C168.31 197.198 167.475 198.206 166.446 198.206C165.415 198.206 164.581 197.198 164.581 195.958C164.581 194.716 165.415 193.709 166.446 193.709C167.474 193.709 168.31 194.716 168.31 195.958Z" fill="#7AE2E2"/>
<path d="M184.58 148.648C193.985 144.845 205.025 135.191 200.76 122.757C198.014 114.749 195.151 99.3243 185.224 82.5284C178.171 70.5958 157.648 65.6817 142.709 68.4346C128.453 71.0605 117.085 74.0076 109.859 102.219C102.634 130.431 102.358 127.055 100.096 130.679C97.8347 134.301 106.921 145.231 126.828 143.102L123.805 141.095C123.805 141.095 116.626 136.6 114.538 122.26C112.45 107.921 119.094 95.4505 119.094 95.4505C119.094 95.4505 143.395 108.012 161.054 110.228C170.69 111.438 170.393 128.296 168.112 133.047C164.701 140.15 157.516 143.601 159.357 145.981C164.84 153.069 176.795 151.796 184.58 148.648Z" fill="#554047"/>
<path d="M196.116 90.5734C193.382 90.5734 190.673 90.0751 190.157 89.9753C189.927 89.931 189.74 89.7559 189.67 89.5212C189.6 89.2859 189.658 89.0295 189.823 88.8543C190.441 88.1947 195.969 82.4386 199.665 83.3599C200.873 83.6613 201.728 84.6025 202.208 86.1584C202.638 87.5516 202.222 88.4531 201.798 88.9647C200.758 90.2178 198.428 90.5734 196.116 90.5734ZM191.627 88.8794C194.99 89.3798 199.649 89.5344 200.849 88.0896C201.045 87.8523 201.276 87.4373 201.009 86.5701C200.669 85.4703 200.134 84.8437 199.374 84.6541C197.212 84.1147 193.617 86.9865 191.627 88.8794Z" fill="#00BCAA"/>
<path d="M199.124 97.5233C195.703 97.5233 190.464 91.4903 189.85 90.7679C189.694 90.5848 189.646 90.325 189.728 90.0944C189.808 89.863 190.004 89.6978 190.235 89.6654C191.106 89.5412 198.819 88.5484 201.209 91.6608C201.99 92.6773 202.122 93.9741 201.599 95.5154C201.132 96.8948 200.281 97.3409 199.648 97.4718C199.479 97.5062 199.305 97.5233 199.124 97.5233ZM191.649 90.8478C194.02 93.411 197.62 96.5399 199.405 96.1671C199.699 96.1063 200.122 95.9258 200.412 95.0679C200.781 93.9787 200.722 93.1373 200.23 92.4975C198.832 90.6773 194.322 90.6317 191.649 90.8478Z" fill="#00BCAA"/>
<path d="M191.418 100.57C191.418 100.57 154.389 108.127 114.264 89.292C114.264 89.292 116.653 76.2014 120.707 70.9343C124.762 65.6673 169.694 58.3586 187.629 79.1809C188.025 79.6402 188.414 80.1009 188.732 80.6105C192.397 86.5015 193.559 100.465 193.559 100.465" fill="#00D3C2"/>
<path d="M170.118 82.7207C157.674 82.7207 139.611 81.0598 123.13 73.3017C122.653 73.0769 122.439 72.4874 122.652 71.9844C122.865 71.4821 123.424 71.2561 123.901 71.4808C152.073 84.7439 184.989 79.8688 185.318 79.8179C185.833 79.7353 186.315 80.1153 186.39 80.6599C186.466 81.2045 186.108 81.7108 185.591 81.7908C185.449 81.8119 179.321 82.7207 170.118 82.7207Z" fill="#00BCAA"/>
<path d="M83.469 129.421L85.9859 155.217C85.9859 155.217 120.19 154.2 124.682 151.76C124.682 151.76 120.852 173.512 118.695 177.247C116.538 180.983 80.9099 176.611 74.8001 175.177C68.6904 173.743 68.0083 132.07 68.0083 132.07L83.469 129.421Z" fill="white"/>
<path d="M70.3636 131.666C70.3636 131.666 66.0708 125.431 66.0708 122.083C66.0708 118.734 77.3504 117.5 77.3504 117.5C77.3504 117.5 75.591 111.995 77.3504 110.98C79.1098 109.964 81.404 116.443 81.404 121.025C81.404 125.608 81.404 129.775 81.404 129.775L70.3636 131.666Z" fill="#FFB681"/>
<path opacity="0.32" d="M67.3926 125.461C67.3926 125.461 71.2406 126.9 73.7376 126.9C76.2346 126.9 79.2895 124.198 79.2895 122.436C79.2895 120.673 77.9194 118.3 77.9194 118.3C77.9194 118.3 80.3074 120.673 80.3074 121.848C80.3074 123.933 78.6206 125.862 76.8222 126.9C75.0238 127.939 71.3311 128.139 69.1851 126.9C67.8724 126.143 67.3926 125.461 67.3926 125.461Z" fill="#FB9A4D"/>
<path opacity="0.32" d="M75.8997 121.799C75.8997 121.799 77.2791 124.931 79.8456 124.955C80.6433 124.962 80.72 124.879 80.72 124.879C80.72 124.879 81.0736 124.496 80.5448 123.581C80.0167 122.666 80.3069 120.144 80.3069 120.144C80.3069 120.144 77.95 118.99 76.7629 119.674C75.5759 120.359 75.8997 121.799 75.8997 121.799Z" fill="#FB9A4D"/>
<path d="M78.7305 124.286C78.7305 124.286 76.4688 122.807 76.4688 121.27C76.4688 119.733 79.2678 119.763 80.3062 120.144C82.2262 120.85 81.8151 122.906 81.4033 124.491C80.9922 126.078 78.7305 124.286 78.7305 124.286Z" fill="#FFB681"/>
<path opacity="0.08" d="M112.345 167.333L110.572 178.721H111.908L112.345 167.333Z" fill="#070707"/>
</g>
</svg>
