<svg width="371" height="264" viewBox="0 0 371 264" fill="none" xmlns="http://www.w3.org/2000/svg">
<path opacity="0.3" d="M90.6431 226.418C66.6361 210.689 46.1341 188.752 35.2911 162.178C24.4481 135.605 24.0371 104.238 37.2821 78.7762C50.5271 53.3142 78.2321 35.1212 106.91 36.2582C134.651 37.3582 159.709 55.1432 187.458 56.0332C235.667 57.5792 276.443 10.6322 325.122 33.9132C342.492 42.2202 356.268 57.2562 364.382 74.7172C371.163 89.3092 373.966 106.99 366.5 121.243C360.538 132.626 349.057 140.012 337.473 145.573C325.889 151.134 313.557 155.488 303.289 163.213C283.187 178.337 288.044 200.088 279.916 221.125C272.167 241.179 251.571 253.989 230.501 258.265C183.456 267.812 129.986 252.194 90.6431 226.418Z" fill="#80B2FB"/>
<path d="M173.501 234.787C173.501 234.787 175.648 259.127 159.955 258.521H226.858C226.858 258.521 216.451 256.427 216.451 234.787H173.501Z" fill="#FFF2DF"/>
<path d="M234.597 260.97H156.058C155.679 260.97 155.371 260.663 155.371 260.283V258.187C155.371 257.808 155.678 257.5 156.058 257.5H234.597C234.976 257.5 235.284 257.807 235.284 258.187V260.283C235.283 260.663 234.976 260.97 234.597 260.97Z" fill="#EFEFEF"/>
<path opacity="0.1" d="M173.6 237.767C173.6 237.767 194.654 248.131 218.19 247.984C218.19 247.984 216.451 242.385 216.451 234.787L173.6 237.767Z" fill="black"/>
<path d="M314.513 78.8592V230.11C314.513 234.339 311.085 237.766 306.861 237.766H83.7971C79.5721 237.766 76.144 234.338 76.144 230.11V78.8592C76.144 74.6302 79.5721 71.2032 83.7971 71.2032H306.861C311.086 71.2032 314.513 74.6302 314.513 78.8592Z" fill="#FFF2DF"/>
<path d="M314.513 78.8592V215.625H76.144V78.8592C76.144 74.6302 79.5721 71.2032 83.7971 71.2032H306.861C311.086 71.2032 314.513 74.6302 314.513 78.8592Z" fill="#F9E8D2"/>
<path d="M304.666 79.2872H85.989V209.678H304.666V79.2872Z" fill="#EBF6FF"/>
<path d="M344.868 178.818C333.121 178.818 323.563 169.26 323.563 157.513C323.563 145.765 333.12 136.208 344.868 136.208C356.616 136.208 366.173 145.765 366.173 157.513C366.173 169.261 356.615 178.818 344.868 178.818Z" fill="#F9E8D2"/>
<path d="M357.468 170.121C364.431 163.159 364.431 151.871 357.468 144.909C350.506 137.947 339.218 137.947 332.256 144.909C325.294 151.871 325.294 163.159 332.256 170.121C339.218 177.083 350.506 177.083 357.468 170.121Z" fill="#AA6C11"/>
<path d="M341.047 165.527L337.854 164.763L341.946 147.671L345.139 148.435C349.859 149.565 352.769 154.307 351.639 159.027C350.509 163.747 345.767 166.657 341.047 165.527Z" fill="#916010"/>
<g opacity="0.1">
<path d="M76.144 128.53V117.796C77.299 113.381 77.306 108.758 76.144 104.29V90.4012L79.7241 100.695C83.0891 110.371 81.438 120.602 76.144 128.53Z" fill="black"/>
</g>
<path d="M8.412 88.4842L0.92601 66.5372C-0.53099 62.2642 -0.261995 57.6682 1.686 53.5952C3.634 49.5222 7.04201 46.4262 11.282 44.8782L16.106 43.1172L16.943 45.4102L12.119 47.1712C4.656 49.8952 0.671007 58.2292 3.23601 65.7482L10.722 87.6952L8.412 88.4842Z" fill="#33354B"/>
<path d="M23.158 41.5902C23.971 43.7892 21.391 46.7692 17.396 48.2452C13.401 49.7212 9.50396 49.1352 8.69096 46.9362C7.87796 44.7372 10.458 41.7572 14.452 40.2812C18.448 38.8052 22.346 39.3912 23.158 41.5902Z" fill="#AA6C11"/>
<path d="M64.28 69.2102L56.305 47.3312C53.573 39.8362 45.206 35.8282 37.653 38.4012L32.771 40.0642L31.981 37.7442L36.863 36.0812C41.154 34.6192 45.77 34.8932 49.859 36.8512C53.948 38.8092 57.055 42.2332 58.608 46.4932L66.583 68.3722L64.28 69.2102Z" fill="#33354B"/>
<path d="M25.504 40.9922C26.254 43.2242 30.149 43.9292 34.203 42.5662C38.257 41.2032 40.935 38.2902 40.185 36.0582C39.435 33.8262 35.54 33.1222 31.486 34.4842C27.433 35.8472 24.754 38.7612 25.504 40.9922Z" fill="#AA6C11"/>
<path d="M48.9591 142.03C44.2751 142.03 39.6161 140.972 35.2751 138.871C27.7071 135.209 22.0181 128.82 19.2561 120.879L6.2981 83.6272L10.5211 82.1582L23.4791 119.41C25.8491 126.223 30.7301 131.705 37.2221 134.846C43.7151 137.988 51.0431 138.412 57.8551 136.043C64.6681 133.673 70.1501 128.793 73.2921 122.3C76.4331 115.807 76.8591 108.48 74.4891 101.667L61.5311 64.4152L65.7541 62.9462L78.7121 100.198C84.4141 116.59 75.7171 134.564 59.3251 140.266C55.9371 141.444 52.4411 142.03 48.9591 142.03Z" fill="#916010"/>
<path opacity="0.1" d="M256.173 71.2032C245.346 84.2062 238.461 100.327 231.8 115.919C230.462 119.052 229.08 122.29 227.687 125.453C213.988 156.54 195.59 188.283 173.005 219.795C168.609 225.935 163.467 232.444 157.514 237.768H149.172C156.858 232.377 163.389 224.262 168.765 216.759C191.141 185.538 209.36 154.112 222.914 123.349C224.296 120.216 225.671 116.989 227.005 113.871C233.264 99.2182 239.717 84.1072 249.519 71.2052H256.173V71.2032Z" fill="black"/>
<path d="M62.7261 134.42L76.1421 168.38V182.582L57.9651 136.562L62.7261 134.42Z" fill="#916010"/>
<path d="M295.384 71.2032H289.743C286.349 63.2302 282.344 60.7642 279.315 59.6352C270.258 56.2562 260.087 63.3872 253.585 71.1812C242.747 84.1872 235.858 100.319 229.193 115.919C227.855 119.052 226.473 122.29 225.08 125.453C211.381 156.54 192.983 188.283 170.398 219.795C160.544 233.539 146.978 249.168 128.898 249.168C128.44 249.168 127.985 249.161 127.523 249.138C117.631 248.71 111.204 247.022 103.611 237.768L111.329 237.569C117.145 242.856 121.108 243.639 127.751 243.93C144.021 244.638 156.826 229.78 166.159 216.759C188.535 185.538 206.754 154.112 220.308 123.349C221.69 120.216 223.065 116.989 224.399 113.871C231.21 97.9252 238.251 81.4352 249.581 67.8442C252.513 64.3272 257.304 59.4842 263.496 56.3692C269.625 53.2922 275.724 52.7292 281.137 54.7482C288.547 57.5112 292.783 64.2542 295.384 71.2032Z" fill="#916010"/>
<path d="M344.868 154.058L344.421 159.255C336.392 158.566 328.46 155.101 321.482 149.237C319.004 147.151 316.668 144.792 314.511 142.21V133.488C323.505 147.374 335.692 153.272 344.868 154.058Z" fill="#916010"/>
<path d="M300.902 260.706L269.042 248.387C267.391 247.749 266.57 245.893 267.208 244.242L285.832 196.075L323.671 210.705L305.047 258.872C304.409 260.523 302.553 261.345 300.902 260.706Z" fill="#559E8D"/>
<path d="M323.012 213.093L284.715 198.285C284.087 198.042 283.775 197.336 284.017 196.708L286.732 189.687L327.304 205.374L324.589 212.395C324.346 213.023 323.64 213.336 323.012 213.093Z" fill="#E8E8E8"/>
<path d="M327.449 206.276L286.018 190.256C285.65 190.114 285.467 189.7 285.609 189.332L286.878 186.051C287.02 185.683 287.434 185.5 287.802 185.642L329.234 201.662C329.602 201.804 329.785 202.218 329.643 202.586L328.374 205.867C328.231 206.236 327.817 206.419 327.449 206.276Z" fill="#F2F2F2"/>
<path opacity="0.1" d="M286.447 190.423C300.801 197.798 314.326 204.244 326.035 208.654L327.018 206.11L286.447 190.423Z" fill="black"/>
<path opacity="0.1" d="M284.944 198.374C297.36 206.12 310.276 211.938 321.381 216.63L322.783 213.004L284.944 198.374Z" fill="black"/>
<path opacity="0.1" d="M286.97 189.904C286.816 189.844 286.739 189.67 286.798 189.516L287.88 186.717C287.939 186.563 288.114 186.486 288.268 186.545C288.422 186.604 288.499 186.779 288.44 186.933L287.358 189.732C287.298 189.886 287.124 189.963 286.97 189.904Z" fill="black"/>
<path opacity="0.1" d="M289.193 190.763C289.039 190.703 288.962 190.529 289.021 190.375L290.103 187.576C290.162 187.422 290.337 187.345 290.491 187.404C290.645 187.464 290.722 187.638 290.663 187.792L289.581 190.591C289.521 190.746 289.347 190.823 289.193 190.763Z" fill="black"/>
<path opacity="0.1" d="M291.416 191.623C291.262 191.563 291.185 191.389 291.244 191.235L292.326 188.436C292.385 188.282 292.56 188.205 292.714 188.264C292.868 188.324 292.945 188.498 292.886 188.652L291.804 191.451C291.744 191.605 291.569 191.682 291.416 191.623Z" fill="black"/>
<path opacity="0.1" d="M293.638 192.482C293.484 192.422 293.407 192.248 293.466 192.094L294.548 189.295C294.608 189.141 294.782 189.064 294.936 189.123C295.09 189.183 295.167 189.357 295.108 189.511L294.026 192.31C293.967 192.465 293.792 192.542 293.638 192.482Z" fill="black"/>
<path opacity="0.1" d="M295.861 193.342C295.707 193.282 295.63 193.108 295.689 192.954L296.771 190.155C296.831 190.001 297.005 189.924 297.159 189.983C297.313 190.043 297.39 190.217 297.331 190.371L296.249 193.17C296.19 193.324 296.015 193.401 295.861 193.342Z" fill="black"/>
<path opacity="0.1" d="M298.084 194.201C297.93 194.141 297.853 193.967 297.912 193.813L298.994 191.014C299.054 190.86 299.228 190.783 299.382 190.842C299.536 190.902 299.613 191.076 299.554 191.23L298.472 194.029C298.413 194.184 298.238 194.261 298.084 194.201Z" fill="black"/>
<path opacity="0.1" d="M300.307 195.061C300.153 195.001 300.076 194.827 300.135 194.673L301.217 191.874C301.277 191.72 301.451 191.643 301.605 191.702C301.759 191.762 301.836 191.936 301.777 192.09L300.695 194.889C300.636 195.043 300.461 195.12 300.307 195.061Z" fill="black"/>
<path opacity="0.1" d="M302.53 195.92C302.376 195.86 302.299 195.686 302.358 195.532L303.44 192.733C303.5 192.579 303.674 192.502 303.828 192.561C303.982 192.621 304.059 192.795 304 192.949L302.918 195.748C302.859 195.902 302.684 195.98 302.53 195.92Z" fill="black"/>
<path opacity="0.1" d="M304.753 196.78C304.599 196.721 304.522 196.546 304.581 196.392L305.663 193.593C305.723 193.439 305.897 193.362 306.051 193.421C306.205 193.481 306.282 193.655 306.223 193.809L305.141 196.608C305.081 196.762 304.907 196.839 304.753 196.78Z" fill="black"/>
<path opacity="0.1" d="M306.976 197.639C306.822 197.579 306.745 197.405 306.804 197.251L307.886 194.452C307.946 194.298 308.12 194.221 308.274 194.28C308.428 194.34 308.505 194.514 308.446 194.668L307.364 197.467C307.304 197.621 307.13 197.699 306.976 197.639Z" fill="black"/>
<path opacity="0.1" d="M309.199 198.499C309.045 198.439 308.968 198.265 309.027 198.111L310.109 195.312C310.169 195.158 310.343 195.081 310.497 195.14C310.651 195.2 310.728 195.374 310.669 195.528L309.587 198.327C309.527 198.481 309.352 198.558 309.199 198.499Z" fill="black"/>
<path opacity="0.1" d="M311.421 199.358C311.267 199.299 311.19 199.124 311.249 198.97L312.331 196.171C312.39 196.017 312.565 195.94 312.719 195.999C312.873 196.059 312.95 196.233 312.891 196.387L311.809 199.186C311.75 199.34 311.575 199.418 311.421 199.358Z" fill="black"/>
<path opacity="0.1" d="M313.644 200.218C313.49 200.159 313.413 199.984 313.472 199.83L314.554 197.031C314.613 196.877 314.788 196.8 314.942 196.859C315.096 196.919 315.173 197.093 315.114 197.247L314.032 200.046C313.973 200.2 313.798 200.277 313.644 200.218Z" fill="black"/>
<path opacity="0.1" d="M315.867 201.077C315.713 201.017 315.636 200.843 315.695 200.689L316.777 197.89C316.836 197.736 317.011 197.659 317.165 197.718C317.319 197.778 317.396 197.952 317.337 198.106L316.255 200.905C316.196 201.059 316.021 201.137 315.867 201.077Z" fill="black"/>
<path opacity="0.1" d="M318.09 201.937C317.936 201.877 317.859 201.703 317.918 201.549L319 198.75C319.06 198.596 319.234 198.519 319.388 198.578C319.542 198.638 319.619 198.812 319.56 198.966L318.478 201.765C318.419 201.919 318.244 201.996 318.09 201.937Z" fill="black"/>
<path opacity="0.1" d="M320.313 202.796C320.159 202.737 320.082 202.562 320.141 202.408L321.223 199.609C321.283 199.455 321.457 199.378 321.611 199.437C321.765 199.497 321.842 199.671 321.783 199.825L320.701 202.624C320.642 202.778 320.467 202.856 320.313 202.796Z" fill="black"/>
<path opacity="0.1" d="M322.536 203.655C322.382 203.596 322.305 203.421 322.364 203.267L323.446 200.468C323.506 200.314 323.68 200.237 323.834 200.296C323.988 200.356 324.065 200.53 324.006 200.684L322.924 203.483C322.864 203.638 322.69 203.715 322.536 203.655Z" fill="black"/>
<path opacity="0.1" d="M324.759 204.515C324.605 204.455 324.528 204.281 324.587 204.127L325.669 201.328C325.729 201.174 325.903 201.097 326.057 201.156C326.211 201.216 326.288 201.39 326.229 201.544L325.147 204.343C325.087 204.497 324.913 204.574 324.759 204.515Z" fill="black"/>
<path opacity="0.1" d="M326.982 205.375C326.828 205.315 326.751 205.141 326.81 204.987L327.892 202.188C327.951 202.034 328.126 201.957 328.28 202.016C328.434 202.076 328.511 202.25 328.452 202.404L327.37 205.203C327.31 205.357 327.136 205.434 326.982 205.375Z" fill="black"/>
<path d="M309.997 222.871L279.963 211.26L271.223 233.867L301.256 245.479L309.997 222.871Z" fill="#F2F2F2"/>
<path opacity="0.2" d="M283.765 204.053C283.134 205.835 282.502 207.617 281.871 209.399C281.716 209.835 281.597 210.406 281.962 210.69C282.233 210.901 282.648 210.811 282.904 210.582C283.16 210.353 283.295 210.022 283.422 209.703C284.243 207.635 285.064 205.568 285.886 203.501C286.132 202.881 286.696 201.487 285.483 201.671C284.502 201.819 284.039 203.279 283.765 204.053Z" fill="white"/>
<path d="M323.183 260.923H75.303V263.649H323.183V260.923Z" fill="#D9EDFF"/>
<path opacity="0.1" d="M113.938 237.569C114.012 237.636 114.087 237.703 114.158 237.767H106.219L113.938 237.569Z" fill="black"/>
<path opacity="0.1" d="M99.885 148.854L98.633 147.055L98.631 147.057C98.549 146.941 98.464 146.828 98.369 146.72C96.857 144.995 94.076 144.75 91.125 145.803C90.446 146.046 89.757 146.357 89.076 146.734C88.093 147.277 87.116 147.959 86.189 148.769C81.822 152.594 80.194 157.877 82.554 160.571L82.555 160.572L83.382 161.756C83.522 162.007 83.684 162.244 83.876 162.463C86.235 165.156 91.687 164.238 96.054 160.413C100.292 156.699 101.95 151.612 99.885 148.854Z" fill="black"/>
<path d="M99.0279 147.664C101.387 150.357 99.7589 155.641 95.3919 159.466C91.0249 163.291 85.5729 164.209 83.2139 161.516C80.8549 158.823 82.4829 153.539 86.8499 149.714C91.2169 145.889 96.6689 144.972 99.0279 147.664Z" fill="#E8E8E8"/>
<path d="M99.2241 147.907L97.9721 146.108L81.8611 159.578L83.1381 161.407L99.2241 147.907Z" fill="#E8E8E8"/>
<path d="M94.0711 157.573C92.8951 158.603 91.6391 159.423 90.3871 160.018C89.6991 160.346 89.0121 160.603 88.3401 160.79C85.6931 161.535 83.2671 161.192 81.8931 159.624C79.5331 156.93 81.1611 151.647 85.5281 147.822C86.4541 147.012 87.4311 146.33 88.4151 145.787C89.0971 145.41 89.7851 145.098 90.4641 144.856C93.4151 143.802 96.1961 144.047 97.7081 145.773C100.065 148.466 98.4391 153.748 94.0711 157.573Z" fill="#FFFDF9"/>
<path d="M90.4641 144.856L90.3871 160.018C89.6991 160.346 89.0121 160.603 88.3401 160.79L88.4151 145.787C89.0971 145.411 89.7851 145.099 90.4641 144.856Z" fill="#E8E8E8"/>
<path opacity="0.1" d="M311.308 147.988C311.184 147.788 311.048 147.6 310.905 147.42C310.857 147.359 310.805 147.304 310.755 147.246C310.656 147.13 310.557 147.016 310.451 146.909C310.388 146.845 310.322 146.785 310.257 146.724C310.157 146.631 310.055 146.54 309.95 146.454C309.879 146.396 309.806 146.34 309.733 146.285C309.625 146.205 309.515 146.129 309.403 146.056C309.328 146.008 309.254 145.959 309.178 145.914C309.054 145.841 308.927 145.775 308.798 145.71C308.73 145.676 308.664 145.639 308.595 145.608C308.407 145.522 308.215 145.445 308.019 145.378C308.008 145.374 307.998 145.369 307.988 145.366C307.774 145.294 307.557 145.235 307.337 145.186C307.298 145.177 307.258 145.172 307.219 145.164C307.038 145.127 306.857 145.097 306.673 145.077C306.655 145.075 306.638 145.07 306.621 145.069C306.554 145.062 306.486 145.061 306.418 145.055C306.326 145.048 306.234 145.039 306.142 145.037C305.963 145.032 305.784 145.033 305.606 145.042C305.563 145.044 305.52 145.051 305.477 145.054C305.33 145.065 305.184 145.08 305.038 145.101C304.973 145.111 304.909 145.124 304.845 145.136C304.72 145.158 304.596 145.183 304.473 145.213C304.405 145.23 304.337 145.248 304.269 145.267C304.149 145.301 304.029 145.339 303.91 145.38C303.844 145.403 303.778 145.426 303.712 145.451C303.587 145.499 303.463 145.554 303.339 145.611C303.283 145.637 303.227 145.66 303.171 145.688C302.994 145.776 302.82 145.871 302.649 145.977L281.553 159.12C280.087 160.033 279.126 161.465 278.761 163.035C278.397 164.604 278.628 166.314 279.541 167.779C280.74 169.704 282.833 170.757 284.959 170.737C286.071 170.723 287.194 170.417 288.2 169.79L298.154 163.589L309.296 156.647C310.764 155.732 311.723 154.301 312.087 152.732C312.452 151.164 312.221 149.454 311.308 147.988Z" fill="black"/>
<path d="M310.485 147.245C311.398 148.711 311.63 150.42 311.265 151.989C310.9 153.558 309.941 154.989 308.473 155.904L287.377 169.047C286.371 169.674 285.248 169.98 284.136 169.994C282.01 170.014 279.918 168.961 278.718 167.036C277.805 165.57 277.573 163.861 277.938 162.292C278.303 160.723 279.264 159.291 280.73 158.377L301.826 145.234C303.056 144.468 304.452 144.181 305.798 144.326C307.663 144.52 309.422 145.539 310.485 147.245Z" fill="#0049A7"/>
<path d="M310.485 147.245C311.398 148.711 311.63 150.42 311.265 151.989C310.9 153.558 309.941 154.989 308.473 155.904L297.331 162.846C294.622 159.697 292.459 156.102 290.783 152.114L301.826 145.234C304.761 143.405 308.657 144.312 310.485 147.245Z" fill="#FFA400"/>
<path opacity="0.2" d="M279.62 160.469C279.002 161.234 278.565 162.187 278.598 163.17C278.617 163.736 278.812 164.325 279.251 164.684C279.69 165.043 280.4 165.091 280.802 164.692C281.181 164.316 281.181 163.709 281.102 163.181C281.023 162.653 280.893 162.096 281.091 161.601C281.277 161.136 281.717 160.825 282.158 160.589C282.599 160.352 283.074 160.156 283.434 159.807C283.793 159.458 284.011 158.899 283.792 158.449C283.617 158.09 283.2 157.891 282.801 157.901C282.082 157.918 281.889 158.353 281.447 158.782C280.846 159.365 280.156 159.805 279.62 160.469Z" fill="white"/>
<path opacity="0.1" d="M310.485 147.245C311.398 148.711 311.63 150.42 311.265 151.989C310.9 153.558 309.941 154.989 308.473 155.904L287.377 169.047C286.371 169.674 285.248 169.98 284.136 169.994C284.225 169.206 284.924 168.638 285.579 168.187C291.871 163.853 299.342 161.342 305.288 156.545C306.855 155.278 308.37 153.751 308.837 151.794C309.217 150.195 308.837 148.478 308.041 147.039C307.57 146.191 306.963 145.429 306.288 144.737C306.221 144.667 306.005 144.5 305.796 144.325C307.663 144.52 309.422 145.539 310.485 147.245Z" fill="black"/>
<path opacity="0.1" d="M143.924 89.2623L127.1 39.7613L129.181 39.0253L126.453 30.9983L127.719 30.5503L126.866 28.0413L94.1841 39.6023L95.0371 42.1113L96.3031 41.6633L99.0311 49.6903L101.113 48.9543L117.937 98.4553C118.35 99.6713 119.659 100.319 120.851 99.8973L142.505 92.2373C143.703 91.8143 144.337 90.4793 143.924 89.2623Z" fill="black"/>
<path d="M124.625 36.6813L142.322 87.7213C142.746 88.9443 142.095 90.2873 140.866 90.7133L118.644 98.4183C117.421 98.8423 116.078 98.1913 115.653 96.9673L97.9561 45.9273L124.625 36.6813Z" fill="#FFA400"/>
<path d="M121.33 41.4003L104.494 47.2383C103.959 47.4243 103.369 47.1383 103.184 46.6023C102.999 46.0673 103.284 45.4773 103.82 45.2923L120.656 39.4543C121.191 39.2683 121.781 39.5543 121.966 40.0903C122.151 40.6243 121.865 41.2143 121.33 41.4003Z" fill="#FFB53E"/>
<path d="M122.005 43.3463L105.169 49.1843C104.634 49.3703 104.044 49.0833 103.859 48.5483C103.673 48.0133 103.959 47.4233 104.495 47.2383L121.331 41.4003C121.866 41.2143 122.456 41.5003 122.641 42.0363C122.826 42.5703 122.54 43.1603 122.005 43.3463Z" fill="#FFB53E"/>
<path d="M122.68 45.2923L105.844 51.1303C105.309 51.3163 104.719 51.0303 104.533 50.4943C104.348 49.9593 104.634 49.3693 105.169 49.1843L122.005 43.3462C122.54 43.1602 123.13 43.4473 123.315 43.9823C123.501 44.5163 123.215 45.1063 122.68 45.2923Z" fill="#FFB53E"/>
<path opacity="0.1" d="M119.682 40.9723L105.522 45.8823C105.385 45.9303 105.234 45.8563 105.186 45.7193C105.138 45.5823 105.212 45.4313 105.349 45.3833L119.509 40.4733C119.646 40.4253 119.797 40.4993 119.845 40.6363C119.893 40.7733 119.819 40.9243 119.682 40.9723Z" fill="black"/>
<path opacity="0.1" d="M120.416 43.0863L106.256 47.9963C106.119 48.0443 105.968 47.9703 105.92 47.8333C105.872 47.6963 105.946 47.5453 106.083 47.4973L120.243 42.5873C120.38 42.5393 120.531 42.6133 120.579 42.7503C120.626 42.8873 120.553 43.0383 120.416 43.0863Z" fill="black"/>
<path opacity="0.1" d="M121.149 45.2003L106.989 50.1103C106.852 50.1583 106.701 50.0843 106.653 49.9473C106.605 49.8103 106.679 49.6593 106.816 49.6113L120.976 44.7013C121.113 44.6533 121.264 44.7273 121.312 44.8643C121.359 45.0023 121.286 45.1533 121.149 45.2003Z" fill="black"/>
<path d="M138.914 83.7272C139.972 84.4712 139.852 86.4662 138.645 88.1822C137.438 89.8982 135.602 90.6862 134.544 89.9422C133.486 89.1982 133.606 87.2032 134.812 85.4872C136.02 83.7712 137.856 82.9832 138.914 83.7272Z" fill="#ED9200"/>
<path d="M139.004 83.7951L138.41 83.2701L133.903 89.3771L134.508 89.9101L139.004 83.7951Z" fill="#ED9200"/>
<path d="M138.02 87.6302C137.695 88.0922 137.324 88.4872 136.935 88.8032C136.721 88.9772 136.502 89.1262 136.282 89.2492C135.416 89.7372 134.535 89.8242 133.919 89.3902C132.86 88.6462 132.981 86.6512 134.187 84.9352C134.443 84.5712 134.728 84.2482 135.027 83.9742C135.234 83.7832 135.449 83.6152 135.667 83.4722C136.613 82.8502 137.611 82.6982 138.289 83.1752C139.347 83.9202 139.227 85.9132 138.02 87.6302Z" fill="#FFB54A"/>
<path d="M135.667 83.4722L136.935 88.8032C136.721 88.9772 136.502 89.1262 136.282 89.2492L135.027 83.9742C135.234 83.7842 135.449 83.6162 135.667 83.4722Z" fill="#ED9200"/>
<path d="M134.683 87.4853C135.286 88.6303 134.269 90.3503 132.412 91.3273C130.555 92.3043 128.562 92.1683 127.959 91.0233C127.356 89.8783 128.373 88.1583 130.23 87.1813C132.087 86.2043 134.081 86.3403 134.683 87.4853Z" fill="#ED9200"/>
<path d="M134.732 87.5872L134.443 86.8492L127.647 90.2282L127.942 90.9782L134.732 87.5872Z" fill="#ED9200"/>
<path d="M132.107 90.5503C131.607 90.8133 131.097 90.9963 130.607 91.0993C130.338 91.1563 130.075 91.1893 129.822 91.1983C128.829 91.2373 128.005 90.9133 127.654 90.2463C127.051 89.1013 128.068 87.3813 129.925 86.4043C130.319 86.1973 130.719 86.0403 131.111 85.9323C131.382 85.8573 131.65 85.8053 131.91 85.7773C133.036 85.6553 133.992 85.9753 134.379 86.7093C134.98 87.8543 133.964 89.5743 132.107 90.5503Z" fill="#FFB54A"/>
<path d="M131.909 85.7773L130.606 91.0993C130.337 91.1564 130.074 91.1893 129.821 91.1983L131.11 85.9314C131.382 85.8574 131.65 85.8063 131.909 85.7773Z" fill="#ED9200"/>
<path d="M122.343 94.4753C122.1 95.5903 120.436 96.1753 118.628 95.7803C116.819 95.3853 115.55 94.1623 115.794 93.0463C116.037 91.9313 117.701 91.3463 119.509 91.7413C121.317 92.1363 122.586 93.3603 122.343 94.4753Z" fill="#ED9200"/>
<path d="M122.318 94.5723L122.542 93.9103L116.034 92.3323L115.807 93.0063L122.318 94.5723Z" fill="#ED9200"/>
<path d="M118.863 95.0832C118.376 94.9772 117.928 94.8102 117.538 94.6022C117.323 94.4882 117.128 94.3602 116.952 94.2242C116.259 93.6872 115.887 93.0002 116.029 92.3502C116.272 91.2342 117.935 90.6502 119.744 91.0452C120.127 91.1292 120.487 91.2502 120.813 91.3992C121.039 91.5022 121.249 91.6202 121.44 91.7482C122.27 92.3052 122.734 93.0642 122.578 93.7792C122.334 94.8932 120.671 95.4772 118.863 95.0832Z" fill="#FFB54A"/>
<path d="M121.439 91.7472L117.537 94.6022C117.322 94.4882 117.127 94.3602 116.951 94.2242L120.812 91.3992C121.038 91.5022 121.248 91.6192 121.439 91.7472Z" fill="#ED9200"/>
<path d="M123.897 89.1202C124.85 89.7482 124.797 91.5102 123.779 93.0562C122.761 94.6022 121.162 95.3462 120.209 94.7182C119.256 94.0902 119.309 92.3282 120.327 90.7822C121.346 89.2362 122.944 88.4922 123.897 89.1202Z" fill="#ED9200"/>
<path d="M123.978 89.1782L123.441 88.7312L119.629 94.2362L120.176 94.6902L123.978 89.1782Z" fill="#ED9200"/>
<path d="M123.213 92.5852C122.939 93.0012 122.622 93.3602 122.288 93.6492C122.104 93.8082 121.915 93.9452 121.724 94.0602C120.973 94.5132 120.199 94.6132 119.643 94.2482C118.689 93.6202 118.742 91.8582 119.761 90.3122C119.977 89.9842 120.22 89.6922 120.476 89.4422C120.654 89.2682 120.839 89.1142 121.027 88.9822C121.845 88.4082 122.72 88.2482 123.331 88.6502C124.284 89.2782 124.231 91.0402 123.213 92.5852Z" fill="#FFB54A"/>
<path d="M121.027 88.9822L122.288 93.6492C122.104 93.8082 121.915 93.9452 121.724 94.0602L120.476 89.4422C120.653 89.2682 120.839 89.1142 121.027 88.9822Z" fill="#ED9200"/>
<path d="M128.583 89.8882C129.267 90.8022 128.621 92.4422 127.139 93.5512C125.657 94.6602 123.902 94.8192 123.217 93.9062C122.533 92.9922 123.179 91.3522 124.661 90.2422C126.143 89.1332 127.899 88.9742 128.583 89.8882Z" fill="#ED9200"/>
<path d="M128.64 89.9692L128.286 89.3672L122.835 93.2572L123.196 93.8692L128.64 89.9692Z" fill="#ED9200"/>
<path d="M126.766 92.9172C126.367 93.2162 125.948 93.4462 125.535 93.6052C125.308 93.6922 125.084 93.7572 124.865 93.8012C124.005 93.9742 123.242 93.8052 122.844 93.2732C122.159 92.3592 122.806 90.7192 124.288 89.6102C124.602 89.3752 124.929 89.1822 125.255 89.0332C125.481 88.9302 125.707 88.8472 125.929 88.7872C126.893 88.5242 127.771 88.6702 128.21 89.2552C128.893 90.1682 128.248 91.8072 126.766 92.9172Z" fill="#FFB54A"/>
<path d="M125.929 88.7863L125.535 93.6043C125.308 93.6913 125.084 93.7563 124.865 93.8003L125.255 89.0323C125.481 88.9293 125.707 88.8473 125.929 88.7863Z" fill="#ED9200"/>
<path d="M129.435 83.9562C130.493 84.7002 130.373 86.6952 129.166 88.4112C127.959 90.1272 126.123 90.9152 125.065 90.1712C124.007 89.4272 124.127 87.4322 125.334 85.7162C126.541 84.0002 128.377 83.2122 129.435 83.9562Z" fill="#ED9200"/>
<path d="M129.525 84.0252L128.931 83.5002L124.425 89.6072L125.029 90.1402L129.525 84.0252Z" fill="#ED9200"/>
<path d="M128.541 87.8592C128.216 88.3212 127.845 88.7162 127.456 89.0322C127.243 89.2062 127.023 89.3552 126.803 89.4782C125.937 89.9662 125.056 90.0532 124.44 89.6192C123.381 88.8752 123.501 86.8802 124.708 85.1642C124.964 84.8002 125.249 84.4772 125.548 84.2032C125.755 84.0122 125.97 83.8442 126.188 83.7012C127.134 83.0792 128.131 82.9272 128.81 83.4042C129.868 84.1492 129.748 86.1432 128.541 87.8592Z" fill="#FFB54A"/>
<path d="M126.188 83.7021L127.456 89.0332C127.243 89.2072 127.023 89.3562 126.803 89.4792L125.548 84.2041C125.755 84.0131 125.97 83.8451 126.188 83.7021Z" fill="#ED9200"/>
<path d="M135.76 83.8453C135.901 85.1313 134.324 86.3593 132.238 86.5863C130.152 86.8143 128.348 85.9563 128.207 84.6703C128.066 83.3843 129.643 82.1573 131.729 81.9293C133.815 81.7013 135.619 82.5593 135.76 83.8453Z" fill="#ED9200"/>
<path d="M135.768 83.9583L135.769 83.1653L128.208 83.8163L128.207 84.6223L135.768 83.9583Z" fill="#ED9200"/>
<path d="M132.239 85.7522C131.677 85.8132 131.136 85.7962 130.642 85.7132C130.37 85.6682 130.114 85.6013 129.876 85.5183C128.938 85.1903 128.29 84.5863 128.208 83.8373C128.067 82.5513 129.644 81.3232 131.73 81.0952C132.172 81.0472 132.603 81.0472 133.006 81.0902C133.286 81.1202 133.554 81.1702 133.806 81.2392C134.898 81.5382 135.671 82.1872 135.761 83.0112C135.901 84.2972 134.325 85.5242 132.239 85.7522Z" fill="#FFB54A"/>
<path d="M133.806 81.2393L130.642 85.7133C130.37 85.6683 130.114 85.6013 129.876 85.5183L133.006 81.0913C133.286 81.1203 133.554 81.1713 133.806 81.2393Z" fill="#ED9200"/>
<path d="M123.263 82.6813C124.555 82.6183 125.686 84.2653 125.788 86.3613C125.89 88.4573 124.926 90.2073 123.634 90.2703C122.342 90.3333 121.211 88.6863 121.109 86.5903C121.007 84.4943 121.971 82.7443 123.263 82.6813Z" fill="#ED9200"/>
<path d="M123.376 82.6802L122.585 82.6312L122.781 90.2182L123.586 90.2672L123.376 82.6802Z" fill="#ED9200"/>
<path d="M124.956 86.3103C124.983 86.8743 124.934 87.4143 124.821 87.9023C124.759 88.1703 124.678 88.4233 124.58 88.6553C124.197 89.5723 123.555 90.1823 122.802 90.2193C121.509 90.2823 120.379 88.6353 120.277 86.5393C120.256 86.0953 120.282 85.6653 120.349 85.2653C120.395 84.9873 120.462 84.7233 120.545 84.4763C120.91 83.4043 121.603 82.6723 122.431 82.6313C123.723 82.5683 124.853 84.2143 124.956 86.3103Z" fill="#FFB54A"/>
<path d="M120.545 84.4753L124.821 87.9023C124.759 88.1703 124.678 88.4233 124.58 88.6553L120.349 85.2653C120.395 84.9873 120.461 84.7223 120.545 84.4753Z" fill="#ED9200"/>
<path d="M121.108 91.4413C120.4 92.5243 118.402 92.4703 116.647 91.3223C114.891 90.1733 114.042 88.3653 114.751 87.2823C115.459 86.1993 117.457 86.2533 119.212 87.4013C120.967 88.5493 121.816 90.3583 121.108 91.4413Z" fill="#ED9200"/>
<path d="M121.042 91.5332L121.547 90.9222L115.293 86.6222L114.78 87.2442L121.042 91.5332Z" fill="#ED9200"/>
<path d="M117.177 90.6782C116.704 90.3692 116.297 90.0112 115.968 89.6332C115.787 89.4252 115.631 89.2112 115.5 88.9952C114.983 88.1462 114.867 87.2682 115.28 86.6382C115.988 85.5552 117.986 85.6092 119.741 86.7572C120.113 87.0012 120.445 87.2752 120.73 87.5642C120.928 87.7652 121.103 87.9742 121.253 88.1872C121.906 89.1122 122.091 90.1042 121.637 90.7982C120.929 91.8802 118.933 91.8262 117.177 90.6782Z" fill="#FFB54A"/>
<path d="M121.253 88.1872L115.968 89.6332C115.787 89.4252 115.631 89.2112 115.5 88.9952L120.73 87.5642C120.927 87.7652 121.103 87.9742 121.253 88.1872Z" fill="#ED9200"/>
<path d="M137.605 83.9052C136.897 84.9882 134.899 84.9342 133.144 83.7852C131.388 82.6362 130.539 80.8282 131.248 79.7452C131.956 78.6622 133.954 78.7162 135.709 79.8652C137.464 81.0132 138.313 82.8222 137.605 83.9052Z" fill="#ED9200"/>
<path d="M137.54 83.9972L138.044 83.3862L131.79 79.0862L131.278 79.7082L137.54 83.9972Z" fill="#ED9200"/>
<path d="M133.674 83.1422C133.201 82.8332 132.794 82.4752 132.465 82.0972C132.284 81.8892 132.128 81.6752 131.997 81.4592C131.48 80.6102 131.364 79.7322 131.777 79.1022C132.485 78.0192 134.483 78.0722 136.238 79.2212C136.61 79.4652 136.942 79.7392 137.227 80.0282C137.424 80.2292 137.6 80.4382 137.75 80.6512C138.403 81.5762 138.588 82.5682 138.134 83.2622C137.427 84.3442 135.43 84.2902 133.674 83.1422Z" fill="#FFB54A"/>
<path d="M137.751 80.6512L132.466 82.0972C132.285 81.8892 132.129 81.6752 131.998 81.4592L137.228 80.0282C137.425 80.2292 137.6 80.4382 137.751 80.6512Z" fill="#ED9200"/>
<path d="M128.51 83.3034C127.802 84.3864 125.804 84.3324 124.049 83.1844C122.293 82.0354 121.444 80.2274 122.153 79.1444C122.861 78.0614 124.859 78.1154 126.614 79.2644C128.369 80.4124 129.218 82.2204 128.51 83.3034Z" fill="#ED9200"/>
<path d="M128.445 83.3953L128.949 82.7843L122.695 78.4843L122.183 79.1063L128.445 83.3953Z" fill="#ED9200"/>
<path d="M124.579 82.5403C124.106 82.2313 123.699 81.8733 123.37 81.4953C123.189 81.2873 123.033 81.0733 122.902 80.8573C122.385 80.0083 122.269 79.1303 122.682 78.5003C123.39 77.4173 125.388 77.4713 127.143 78.6193C127.515 78.8633 127.847 79.1373 128.132 79.4263C128.33 79.6273 128.505 79.8363 128.655 80.0493C129.308 80.9743 129.493 81.9663 129.039 82.6603C128.332 83.7423 126.335 83.6893 124.579 82.5403Z" fill="#FFB54A"/>
<path d="M128.656 80.0493L123.371 81.4953C123.19 81.2873 123.034 81.0733 122.903 80.8573L128.133 79.4263C128.33 79.6273 128.505 79.8363 128.656 80.0493Z" fill="#ED9200"/>
<path d="M120.69 81.7173C121.738 82.4763 121.589 84.4693 120.358 86.1683C119.127 87.8673 117.28 88.6293 116.232 87.8703C115.184 87.1113 115.333 85.1183 116.564 83.4193C117.795 81.7203 119.642 80.9583 120.69 81.7173Z" fill="#ED9200"/>
<path d="M120.779 81.7873L120.192 81.2543L115.6 87.2963L116.197 87.8373L120.779 81.7873Z" fill="#ED9200"/>
<path d="M119.741 85.6073C119.409 86.0653 119.033 86.4553 118.64 86.7653C118.424 86.9363 118.203 87.0823 117.981 87.2023C117.108 87.6783 116.226 87.7523 115.616 87.3103C114.568 86.5513 114.716 84.5583 115.947 82.8593C116.208 82.4993 116.497 82.1803 116.8 81.9103C117.01 81.7223 117.227 81.5573 117.447 81.4173C118.402 80.8083 119.401 80.6713 120.073 81.1573C121.12 81.9163 120.972 83.9083 119.741 85.6073Z" fill="#FFB54A"/>
<path d="M117.447 81.4172L118.64 86.7652C118.424 86.9362 118.203 87.0822 117.981 87.2022L116.8 81.9102C117.009 81.7222 117.227 81.5572 117.447 81.4172Z" fill="#ED9200"/>
<path d="M124.057 79.3181C124.555 80.5121 123.39 82.1351 121.453 82.9431C119.517 83.7511 117.543 83.4381 117.045 82.2441C116.547 81.0501 117.712 79.4271 119.649 78.6191C121.586 77.8111 123.559 78.1241 124.057 79.3181Z" fill="#ED9200"/>
<path d="M124.097 79.4242L123.874 78.6642L116.805 81.4242L117.032 82.1982L124.097 79.4242Z" fill="#ED9200"/>
<path d="M121.219 82.1433C120.697 82.3603 120.173 82.4973 119.676 82.5573C119.403 82.5903 119.138 82.5992 118.886 82.5862C117.893 82.5372 117.102 82.1403 116.811 81.4453C116.312 80.2513 117.478 78.6283 119.414 77.8203C119.825 77.6493 120.238 77.5282 120.637 77.4552C120.914 77.4042 121.185 77.3772 121.446 77.3722C122.578 77.3512 123.503 77.7542 123.822 78.5192C124.32 79.7122 123.155 81.3353 121.219 82.1433Z" fill="#FFB54A"/>
<path d="M121.447 77.3712L119.676 82.5572C119.403 82.5902 119.138 82.5992 118.886 82.5862L120.638 77.4552C120.914 77.4042 121.186 77.3762 121.447 77.3712Z" fill="#ED9200"/>
<path d="M133.817 79.4082C133.863 80.7012 132.2 81.8092 130.104 81.8842C128.007 81.9582 126.271 80.9702 126.225 79.6772C126.179 78.3842 127.842 77.2762 129.938 77.2012C132.034 77.1272 133.771 78.1152 133.817 79.4082Z" fill="#ED9200"/>
<path d="M133.817 79.5212L133.876 78.7312L126.288 78.8252L126.228 79.6292L133.817 79.5212Z" fill="#ED9200"/>
<path d="M130.166 81.0522C129.601 81.0722 129.062 81.0152 128.576 80.8962C128.308 80.8312 128.057 80.7462 127.826 80.6452C126.914 80.2492 126.313 79.5992 126.286 78.8462C126.24 77.5532 127.902 76.4442 129.999 76.3702C130.444 76.3552 130.873 76.3872 131.272 76.4592C131.549 76.5092 131.813 76.5792 132.059 76.6662C133.126 77.0452 133.849 77.7482 133.879 78.5772C133.924 79.8692 132.262 80.9772 130.166 81.0522Z" fill="#FFB54A"/>
<path d="M132.059 76.6662L128.575 80.8952C128.307 80.8302 128.056 80.7452 127.825 80.6442L131.272 76.4592C131.55 76.5092 131.814 76.5792 132.059 76.6662Z" fill="#ED9200"/>
<path d="M136.267 80.7533C135.386 81.7003 133.426 81.3113 131.89 79.8833C130.353 78.4553 129.822 76.5283 130.702 75.5813C131.583 74.6333 133.543 75.0233 135.079 76.4523C136.616 77.8793 137.148 79.8053 136.267 80.7533Z" fill="#ED9200"/>
<path d="M136.187 80.8323L136.787 80.3153L131.349 75.0223L130.739 75.5483L136.187 80.8323Z" fill="#ED9200"/>
<path d="M132.521 79.3373C132.107 78.9523 131.766 78.5313 131.506 78.1033C131.363 77.8683 131.245 77.6303 131.153 77.3963C130.787 76.4723 130.821 75.5873 131.333 75.0353C132.214 74.0873 134.174 74.4773 135.71 75.9053C136.036 76.2083 136.317 76.5343 136.548 76.8673C136.709 77.0983 136.846 77.3343 136.959 77.5693C137.447 78.5913 137.462 79.6003 136.897 80.2073C136.017 81.1553 134.058 80.7663 132.521 79.3373Z" fill="#FFB54A"/>
<path d="M136.96 77.5703L131.507 78.1033C131.364 77.8683 131.246 77.6303 131.154 77.3963L136.55 76.8683C136.71 77.0993 136.847 77.3353 136.96 77.5703Z" fill="#ED9200"/>
<path d="M117.538 84.3973C116.518 85.1933 114.645 84.4983 113.354 82.8453C112.063 81.1923 111.842 79.2063 112.862 78.4093C113.882 77.6133 115.755 78.3083 117.046 79.9613C118.338 81.6153 118.558 83.6013 117.538 84.3973Z" fill="#ED9200"/>
<path d="M117.447 84.4633L118.121 84.0483L113.589 77.9603L112.903 78.3843L117.447 84.4633Z" fill="#ED9200"/>
<path d="M114.064 82.4073C113.716 81.9623 113.446 81.4923 113.257 81.0283C113.153 80.7733 113.074 80.5203 113.02 80.2733C112.805 79.3033 112.978 78.4343 113.572 77.9703C114.592 77.1733 116.465 77.8683 117.756 79.5223C118.03 79.8733 118.256 80.2393 118.432 80.6053C118.554 80.8593 118.653 81.1133 118.726 81.3633C119.046 82.4493 118.901 83.4483 118.248 83.9583C117.228 84.7553 115.355 84.0613 114.064 82.4073Z" fill="#FFB54A"/>
<path d="M118.726 81.3643L113.257 81.0283C113.153 80.7733 113.074 80.5203 113.02 80.2733L118.432 80.6053C118.553 80.8603 118.652 81.1143 118.726 81.3643Z" fill="#ED9200"/>
<path d="M117.157 78.2922C116.479 79.3942 114.481 79.3952 112.694 78.2952C110.908 77.1952 110.009 75.4102 110.687 74.3092C111.365 73.2072 113.364 73.2062 115.15 74.3062C116.936 75.4062 117.835 77.1902 117.157 78.2922Z" fill="#ED9200"/>
<path d="M117.094 78.3863L117.581 77.7613L111.212 73.6353L110.717 74.2713L117.094 78.3863Z" fill="#ED9200"/>
<path d="M113.206 77.6372C112.725 77.3412 112.308 76.9953 111.969 76.6263C111.782 76.4233 111.62 76.2143 111.484 76.0013C110.944 75.1663 110.804 74.2922 111.199 73.6502C111.877 72.5482 113.875 72.5473 115.662 73.6473C116.041 73.8813 116.38 74.1453 116.673 74.4273C116.876 74.6223 117.057 74.8263 117.213 75.0353C117.892 75.9423 118.104 76.9283 117.669 77.6343C116.99 78.7363 114.993 78.7372 113.206 77.6372Z" fill="#FFB54A"/>
<path d="M117.213 75.0362L111.97 76.6272C111.783 76.4242 111.621 76.2152 111.485 76.0022L116.674 74.4282C116.876 74.6222 117.057 74.8272 117.213 75.0362Z" fill="#ED9200"/>
<path d="M115.283 74.1342C114.376 75.0572 112.428 74.6122 110.932 73.1422C109.436 71.6712 108.958 69.7312 109.865 68.8082C110.772 67.8852 112.72 68.3302 114.216 69.8002C115.712 71.2712 116.19 73.2112 115.283 74.1342Z" fill="#ED9200"/>
<path d="M115.201 74.2112L115.815 73.7112L110.526 68.2682L109.902 68.7772L115.201 74.2112Z" fill="#ED9200"/>
<path d="M111.578 72.6152C111.175 72.2192 110.846 71.7882 110.598 71.3532C110.461 71.1142 110.35 70.8732 110.264 70.6362C109.924 69.7022 109.982 68.8192 110.51 68.2812C111.417 67.3582 113.365 67.8022 114.861 69.2732C115.178 69.5852 115.45 69.9192 115.672 70.2582C115.826 70.4932 115.957 70.7332 116.063 70.9712C116.522 72.0062 116.509 73.0152 115.928 73.6062C115.022 74.5292 113.074 74.0852 111.578 72.6152Z" fill="#FFB54A"/>
<path d="M116.064 70.9722L110.598 71.3531C110.461 71.1141 110.35 70.8732 110.264 70.6362L115.673 70.2592C115.827 70.4942 115.958 70.7342 116.064 70.9722Z" fill="#ED9200"/>
<path d="M109.42 70.1912C108.191 69.7882 107.723 67.8462 108.376 65.8522C109.029 63.8582 110.555 62.5682 111.785 62.9712C113.014 63.3742 113.482 65.3162 112.829 67.3102C112.175 69.3042 110.649 70.5932 109.42 70.1912Z" fill="#ED9200"/>
<path d="M109.314 70.1522L110.035 70.4802L112.562 63.3242L111.828 62.9902L109.314 70.1522Z" fill="#ED9200"/>
<path d="M109.135 66.1971C109.311 65.6601 109.55 65.1741 109.83 64.7581C109.984 64.5291 110.15 64.3231 110.324 64.1411C111.01 63.4221 111.827 63.0811 112.543 63.3161C113.773 63.7191 114.24 65.6611 113.587 67.6551C113.448 68.0781 113.27 68.4701 113.064 68.8191C112.922 69.0621 112.765 69.2851 112.598 69.4861C111.875 70.3571 110.965 70.7931 110.177 70.5361C108.949 70.1321 108.482 68.1911 109.135 66.1971Z" fill="#FFB54A"/>
<path d="M112.599 69.4862L109.83 64.7582C109.984 64.5292 110.15 64.3232 110.324 64.1412L113.065 68.8192C112.923 69.0622 112.766 69.2852 112.599 69.4862Z" fill="#ED9200"/>
<path d="M114.126 72.7223C112.839 72.8543 111.623 71.2683 111.409 69.1813C111.196 67.0943 112.066 65.2953 113.353 65.1643C114.64 65.0323 115.856 66.6183 116.07 68.7053C116.283 70.7923 115.413 72.5903 114.126 72.7223Z" fill="#ED9200"/>
<path d="M114.013 72.7293L114.805 72.7363L114.207 65.1713L113.401 65.1643L114.013 72.7293Z" fill="#ED9200"/>
<path d="M112.243 69.1883C112.186 68.6263 112.207 68.0843 112.293 67.5913C112.34 67.3203 112.408 67.0643 112.494 66.8263C112.828 65.8903 113.437 65.2473 114.186 65.1703C115.474 65.0383 116.69 66.6243 116.903 68.7113C116.948 69.1543 116.945 69.5843 116.899 69.9873C116.867 70.2673 116.815 70.5353 116.745 70.7863C116.438 71.8763 115.784 72.6443 114.959 72.7293C113.672 72.8603 112.456 71.2753 112.243 69.1883Z" fill="#FFB54A"/>
<path d="M116.745 70.7863L112.293 67.5913C112.34 67.3203 112.408 67.0643 112.494 66.8263L116.899 69.9873C116.868 70.2673 116.815 70.5353 116.745 70.7863Z" fill="#ED9200"/>
<path d="M117.237 77.7722C115.95 77.9042 114.734 76.3182 114.52 74.2312C114.307 72.1442 115.177 70.3452 116.464 70.2142C117.751 70.0822 118.967 71.6682 119.181 73.7552C119.394 75.8422 118.524 77.6412 117.237 77.7722Z" fill="#ED9200"/>
<path d="M117.124 77.7792L117.916 77.7862L117.318 70.2212L116.512 70.2142L117.124 77.7792Z" fill="#ED9200"/>
<path d="M115.354 74.2382C115.297 73.6762 115.318 73.1342 115.404 72.6412C115.451 72.3702 115.519 72.1142 115.605 71.8762C115.939 70.9402 116.548 70.2972 117.297 70.2202C118.585 70.0882 119.801 71.6732 120.014 73.7612C120.059 74.2042 120.056 74.6342 120.01 75.0372C119.979 75.3172 119.926 75.5852 119.856 75.8362C119.549 76.9262 118.895 77.6942 118.07 77.7792C116.783 77.9102 115.567 76.3262 115.354 74.2382Z" fill="#FFB54A"/>
<path d="M119.856 75.8362L115.404 72.6412C115.451 72.3702 115.519 72.1142 115.605 71.8762L120.01 75.0372C119.979 75.3172 119.927 75.5852 119.856 75.8362Z" fill="#ED9200"/>
<path d="M122.947 79.9283C122.009 80.8193 120.077 80.3083 118.632 78.7863C117.187 77.2653 116.777 75.3093 117.715 74.4183C118.653 73.5273 120.585 74.0383 122.03 75.5593C123.475 77.0803 123.886 79.0383 122.947 79.9283Z" fill="#ED9200"/>
<path d="M122.863 80.0032L123.494 79.5242L118.396 73.9022L117.754 74.3902L122.863 80.0032Z" fill="#ED9200"/>
<path d="M119.297 78.2832C118.908 77.8732 118.594 77.4322 118.361 76.9882C118.233 76.7442 118.13 76.5002 118.052 76.2602C117.744 75.3152 117.833 74.4342 118.379 73.9152C119.317 73.0242 121.249 73.5352 122.693 75.0562C122.999 75.3792 123.26 75.7212 123.47 76.0692C123.616 76.3102 123.738 76.5542 123.836 76.7952C124.259 77.8452 124.211 78.8532 123.61 79.4242C122.673 80.3142 120.742 79.8042 119.297 78.2832Z" fill="#FFB54A"/>
<path d="M123.837 76.7952L118.361 76.9882C118.233 76.7442 118.13 76.5002 118.052 76.2602L123.471 76.0692C123.617 76.3092 123.739 76.5532 123.837 76.7952Z" fill="#ED9200"/>
<path d="M127.293 79.1232C126.355 80.0142 124.423 79.5032 122.978 77.9812C121.533 76.4602 121.123 74.5042 122.061 73.6132C122.999 72.7222 124.931 73.2332 126.375 74.7552C127.821 76.2772 128.232 78.2322 127.293 79.1232Z" fill="#ED9200"/>
<path d="M127.209 79.1982L127.84 78.7192L122.742 73.0972L122.1 73.5852L127.209 79.1982Z" fill="#ED9200"/>
<path d="M123.643 77.4772C123.254 77.0672 122.939 76.6262 122.707 76.1822C122.579 75.9382 122.476 75.6942 122.398 75.4542C122.09 74.5092 122.179 73.6282 122.725 73.1092C123.663 72.2182 125.595 72.7292 127.04 74.2502C127.346 74.5732 127.607 74.9152 127.817 75.2632C127.963 75.5042 128.085 75.7482 128.183 75.9892C128.606 77.0392 128.558 78.0472 127.957 78.6182C127.019 79.5092 125.088 78.9992 123.643 77.4772Z" fill="#FFB54A"/>
<path d="M128.183 75.9902L122.707 76.1832C122.579 75.9392 122.476 75.6952 122.398 75.4552L127.817 75.2642C127.963 75.5042 128.085 75.7482 128.183 75.9902Z" fill="#ED9200"/>
<path d="M122.964 74.8262C122.026 75.7172 120.094 75.2062 118.65 73.6852C117.206 72.1642 116.795 70.2082 117.733 69.3172C118.671 68.4262 120.603 68.9372 122.047 70.4592C123.492 71.9802 123.902 73.9352 122.964 74.8262Z" fill="#ED9200"/>
<path d="M122.879 74.9012L123.511 74.4222L118.413 68.8002L117.771 69.2882L122.879 74.9012Z" fill="#ED9200"/>
<path d="M119.314 73.1802C118.925 72.7702 118.611 72.3292 118.378 71.8852C118.249 71.6412 118.147 71.3972 118.069 71.1572C117.761 70.2122 117.85 69.3312 118.396 68.8122C119.334 67.9212 121.266 68.4322 122.711 69.9532C123.017 70.2762 123.277 70.6182 123.488 70.9662C123.634 71.2072 123.756 71.4512 123.854 71.6922C124.277 72.7422 124.229 73.7502 123.628 74.3212C122.69 75.2122 120.759 74.7022 119.314 73.1802Z" fill="#FFB54A"/>
<path d="M123.854 71.6932L118.378 71.8862C118.249 71.6422 118.147 71.3982 118.069 71.1582L123.488 70.9672C123.634 71.2072 123.756 71.4512 123.854 71.6932Z" fill="#ED9200"/>
<path d="M120.914 70.7423C119.976 71.6333 118.044 71.1223 116.6 69.6003C115.156 68.0783 114.745 66.1233 115.683 65.2323C116.621 64.3413 118.553 64.8523 119.997 66.3733C121.441 67.8963 121.852 69.8513 120.914 70.7423Z" fill="#ED9200"/>
<path d="M120.829 70.8162L121.46 70.3382L116.362 64.7162L115.72 65.2042L120.829 70.8162Z" fill="#ED9200"/>
<path d="M117.264 69.0962C116.875 68.6862 116.561 68.2452 116.328 67.8012C116.2 67.5582 116.097 67.3132 116.019 67.0732C115.711 66.1282 115.8 65.2472 116.346 64.7282C117.284 63.8372 119.216 64.3482 120.661 65.8692C120.967 66.1922 121.227 66.5342 121.438 66.8822C121.584 67.1232 121.706 67.3672 121.804 67.6082C122.227 68.6582 122.179 69.6662 121.578 70.2372C120.64 71.1282 118.708 70.6172 117.264 69.0962Z" fill="#FFB54A"/>
<path d="M121.804 67.6092L116.328 67.8022C116.2 67.5592 116.097 67.3142 116.019 67.0742L121.438 66.8832C121.583 67.1232 121.706 67.3672 121.804 67.6092Z" fill="#ED9200"/>
<path d="M131.953 75.9373C131.353 77.0833 129.36 77.2243 127.501 76.2523C125.642 75.2793 124.621 73.5623 125.221 72.4153C125.821 71.2693 127.814 71.1283 129.673 72.1003C131.532 73.0733 132.552 74.7903 131.953 75.9373Z" fill="#ED9200"/>
<path d="M131.897 76.0353L132.339 75.3783L125.697 71.7063L125.248 72.3753L131.897 76.0353Z" fill="#ED9200"/>
<path d="M127.966 75.5603C127.465 75.2983 127.025 74.9823 126.661 74.6383C126.461 74.4493 126.285 74.2513 126.134 74.0493C125.537 73.2543 125.336 72.3923 125.685 71.7243C126.285 70.5773 128.278 70.4363 130.137 71.4093C130.531 71.6153 130.888 71.8563 131.2 72.1163C131.416 72.2973 131.611 72.4883 131.781 72.6853C132.521 73.5423 132.802 74.5113 132.417 75.2463C131.818 76.3913 129.826 76.5323 127.966 75.5603Z" fill="#FFB54A"/>
<path d="M131.781 72.6842L126.661 74.6372C126.461 74.4482 126.285 74.2502 126.134 74.0482L131.2 72.1152C131.416 72.2962 131.611 72.4872 131.781 72.6842Z" fill="#ED9200"/>
<path d="M128.265 71.8013C128.068 73.0803 126.228 73.8583 124.154 73.5393C122.08 73.2203 120.559 71.9253 120.756 70.6463C120.953 69.3673 122.793 68.5893 124.867 68.9083C126.94 69.2273 128.462 70.5223 128.265 71.8013Z" fill="#ED9200"/>
<path d="M128.243 71.9113L128.45 71.1473L120.977 69.8203L120.768 70.5993L128.243 71.9113Z" fill="#ED9200"/>
<path d="M124.371 72.7333C123.813 72.6473 123.294 72.4903 122.838 72.2823C122.587 72.1683 122.357 72.0383 122.148 71.8953C121.326 71.3363 120.857 70.5853 120.972 69.8403C121.169 68.5613 123.009 67.7833 125.083 68.1023C125.523 68.1703 125.938 68.2823 126.317 68.4283C126.58 68.5293 126.826 68.6473 127.051 68.7783C128.029 69.3503 128.607 70.1763 128.481 70.9953C128.284 72.2743 126.444 73.0523 124.371 72.7333Z" fill="#FFB54A"/>
<path d="M127.051 68.7782L122.838 72.2822C122.587 72.1682 122.357 72.0382 122.148 71.8952L126.317 68.4282C126.58 68.5292 126.826 68.6472 127.051 68.7782Z" fill="#ED9200"/>
<path opacity="0.1" d="M124.625 36.6813L142.322 87.7213C142.746 88.9443 142.095 90.2873 140.866 90.7133L118.644 98.4183C117.421 98.8423 116.078 98.1913 115.653 96.9673L115.589 96.7823C115.664 96.7163 115.739 96.6493 115.814 96.5833C117.214 95.4063 119.021 94.8553 120.773 94.3453C123.614 93.5213 126.487 92.7213 129.082 91.3033C131.677 89.8853 134 87.7673 135.06 85.0093C136.373 81.5713 135.568 77.7213 134.634 74.1643C132.191 64.8593 128.962 55.7803 125.739 46.7173C125.303 45.4923 124.83 44.2113 123.849 43.3593C121.75 41.5243 118.528 42.4633 115.891 43.3603C112.284 44.5823 108.587 45.5473 104.839 46.2303C103.725 46.4383 100.791 47.2773 98.456 47.3673L97.957 45.9283L124.625 36.6813Z" fill="black"/>
<path d="M124.164 28.4647L93.2246 39.1926L96.2474 47.9103L127.187 37.1824L124.164 28.4647Z" fill="#E8E8E8"/>
<path d="M124.812 26.1344L91.2734 37.7635L92.1485 40.2871L125.687 28.658L124.812 26.1344Z" fill="#F2F2F2"/>
<path opacity="0.1" d="M93.4519 39.8402C93.4519 39.8402 109.341 36.3872 125.058 31.0332L124.392 29.1122L93.4519 39.8402Z" fill="black"/>
<path opacity="0.2" d="M102.339 53.8832C102.174 54.5122 102.395 55.1712 102.612 55.7842C103.468 58.1972 104.325 60.6092 105.181 63.0222C105.35 63.4972 105.595 64.0412 106.088 64.1412C106.566 64.2382 107.027 63.8212 107.157 63.3512C107.287 62.8812 107.175 62.3822 107.059 61.9082C106.437 59.3662 105.718 56.8482 104.902 54.3622C104.528 53.2182 102.836 51.9822 102.339 53.8832Z" fill="white"/>
<path opacity="0.1" d="M338.533 67.2243C336.025 68.1413 336.953 71.0513 338.399 73.7723C339.368 75.5953 339.632 79.3163 339.7 81.5743C339.729 82.5253 340.261 83.4013 341.115 83.8193C341.166 83.8443 341.217 83.8703 341.265 83.8973C342.695 84.6913 342.985 86.6263 341.94 87.8833C339.972 90.2483 340.986 92.4593 340.986 92.4593L344.173 101.179L348.102 111.929L350.686 119C351.26 120.57 352.998 121.378 354.568 120.804L360.826 118.517C362.396 117.943 363.204 116.205 362.63 114.635L352.93 88.0943C352.93 88.0943 352.28 85.7513 349.25 85.2123C347.64 84.9263 346.614 83.2593 347.195 81.7303C347.215 81.6783 347.236 81.6263 347.259 81.5733C347.642 80.7033 347.483 79.6903 346.892 78.9453C345.488 77.1753 343.29 74.1613 342.855 72.1433C342.209 69.1303 341.041 66.3073 338.533 67.2243Z" fill="black"/>
<path opacity="0.5" d="M348.188 84.9193C346.578 84.6333 345.552 82.9663 346.133 81.4373C346.153 81.3853 346.174 81.3333 346.197 81.2803C346.58 80.4103 346.421 79.3973 345.83 78.6523C344.426 76.8823 342.228 73.8683 341.793 71.8503C341.144 68.8383 339.977 66.0143 337.468 66.9313C334.96 67.8483 335.888 70.7583 337.334 73.4793C338.303 75.3023 338.567 79.0233 338.635 81.2813C338.664 82.2323 339.196 83.1083 340.05 83.5263C340.102 83.5513 340.152 83.5773 340.2 83.6043C341.63 84.3983 341.92 86.3333 340.875 87.5903C338.907 89.9563 339.921 92.1663 339.921 92.1663L349.622 118.707C350.196 120.277 351.934 121.085 353.504 120.511L359.763 118.224C361.333 117.65 362.141 115.912 361.567 114.342L351.866 87.8013C351.866 87.8013 351.217 85.4583 348.188 84.9193Z" fill="#D9EDFF"/>
<path d="M358.853 116.256L352.932 118.42C351.846 118.817 350.643 118.258 350.247 117.172L341.536 93.3382L351.39 89.7362L360.101 113.57C360.498 114.656 359.939 115.859 358.853 116.256Z" fill="#559E8D"/>
<path d="M349.068 98.6898L343.095 100.873L347.298 112.37L353.27 110.186L349.068 98.6898Z" fill="#F2F2F2"/>
<path opacity="0.5" d="M340.312 89.8082C340.086 90.4782 340.109 91.2302 340.376 91.8852C340.489 92.1632 340.711 92.4612 341.01 92.4342C341.28 92.4102 341.456 92.1122 341.452 91.8402C341.448 91.5692 341.317 91.3182 341.203 91.0712C341.089 90.8252 340.988 90.5522 341.048 90.2872C341.114 89.9952 341.362 89.7792 341.621 89.6292C341.88 89.4782 342.165 89.3692 342.396 89.1772C343.044 88.6382 342.526 87.6722 341.743 88.0192C341.113 88.3002 340.523 89.1832 340.312 89.8082Z" fill="white"/>
<path opacity="0.1" d="M114.543 236.591L99.0521 197.064C99.0521 197.064 96.8401 187.296 85.6211 185.216L84.321 182.086C84.849 181.741 85.3801 181.39 85.9141 181.026C86.5411 180.599 86.8091 179.807 86.5601 179.09L83.325 169.765C82.571 168.024 74.1191 170.008 64.4461 174.197C54.7731 178.385 47.5431 183.191 48.2961 184.932C48.3011 184.942 48.3091 184.951 48.3141 184.961C48.3131 184.961 48.3121 184.962 48.3111 184.962L52.8131 193.463C53.1461 194.092 53.8391 194.441 54.5441 194.334C54.9441 194.273 55.4451 194.189 56.0291 194.078C56.0291 194.078 56.0291 194.079 56.0281 194.079L57.6651 198.254C57.6651 198.254 53.0561 205.38 56.6361 213.921C59.8201 221.522 71.6201 247.364 74.1761 252.955C74.5001 253.666 75.162 254.158 75.933 254.272C78.988 254.73 87.3321 255.19 98.5631 249.516C108.561 244.464 112.616 240.723 114.147 238.934C114.702 238.285 114.855 237.387 114.543 236.591Z" fill="black"/>
<path d="M95.9871 195.99L111.478 235.517C111.79 236.313 111.638 237.21 111.082 237.859C109.551 239.648 105.496 243.389 95.4981 248.441C84.2661 254.115 75.9221 253.655 72.8681 253.197C72.0961 253.082 71.4341 252.591 71.1111 251.88C68.5551 246.29 56.7551 220.447 53.5711 212.846C49.9911 204.305 54.6001 197.179 54.6001 197.179L52.4791 191.766L79.9221 178.007L82.5551 184.141C93.7751 186.222 95.9871 195.99 95.9871 195.99Z" fill="#FFA400"/>
<path opacity="0.1" d="M52.9619 193.005C52.9619 193.005 62.7389 192.876 82.5549 184.143L80.5159 179.235C80.5159 179.235 55.0909 189.882 52.9619 193.005Z" fill="black"/>
<path d="M45.2451 183.888L49.7471 192.389C50.0801 193.018 50.7731 193.367 51.4771 193.26C55.3081 192.678 67.9581 190.094 82.8481 179.952C83.4751 179.525 83.7431 178.733 83.4941 178.016L80.2591 168.691C80.2591 168.691 65.5181 176.624 45.2451 183.888Z" fill="#E8E8E8"/>
<path d="M80.259 168.691C81.013 170.432 73.782 175.238 64.109 179.426C54.436 183.614 45.984 185.598 45.23 183.858C44.476 182.117 51.707 177.311 61.38 173.123C71.053 168.935 79.506 166.951 80.259 168.691Z" fill="#F2F2F2"/>
<path opacity="0.1" d="M53.1459 191.892L53.1319 191.899C52.9589 191.985 52.7469 191.913 52.6619 191.74L50.0349 186.422C49.9499 186.249 50.0209 186.037 50.1939 185.952L50.2079 185.945C50.3809 185.859 50.5929 185.931 50.6779 186.104L53.3049 191.422C53.3909 191.594 53.3189 191.806 53.1459 191.892Z" fill="black"/>
<path opacity="0.1" d="M58.9391 189.949L58.9031 189.963C58.7291 190.031 58.5311 189.945 58.4631 189.771L56.4471 184.626C56.3791 184.452 56.4651 184.254 56.6391 184.186L56.6751 184.172C56.8491 184.104 57.0471 184.19 57.1151 184.364L59.1311 189.509C59.2001 189.683 59.1131 189.881 58.9391 189.949Z" fill="black"/>
<path opacity="0.1" d="M64.7301 187.949L64.6941 187.963C64.5201 188.031 64.3221 187.945 64.2541 187.771L62.2381 182.626C62.1701 182.452 62.2561 182.254 62.4301 182.186L62.4661 182.172C62.6401 182.104 62.8381 182.19 62.9061 182.364L64.9221 187.509C64.9901 187.683 64.9041 187.881 64.7301 187.949Z" fill="black"/>
<path opacity="0.1" d="M70.4291 185.716L70.3931 185.73C70.2191 185.798 70.0211 185.712 69.9531 185.538L67.9371 180.393C67.8691 180.219 67.9551 180.021 68.1291 179.953L68.1651 179.939C68.3391 179.871 68.5371 179.957 68.6051 180.131L70.6221 185.276C70.6901 185.449 70.6031 185.647 70.4291 185.716Z" fill="black"/>
<path opacity="0.1" d="M76.037 183.248L76.001 183.262C75.827 183.33 75.629 183.244 75.561 183.07L73.544 177.925C73.476 177.751 73.562 177.553 73.736 177.485L73.772 177.471C73.946 177.403 74.144 177.489 74.212 177.663L76.229 182.808C76.297 182.982 76.211 183.18 76.037 183.248Z" fill="black"/>
<path opacity="0.1" d="M81.18 179.749H81.179C80.989 179.802 80.791 179.69 80.738 179.5L79.081 173.538C79.028 173.348 79.14 173.15 79.33 173.097H79.331C79.521 173.044 79.719 173.156 79.772 173.346L81.429 179.308C81.482 179.498 81.37 179.696 81.18 179.749Z" fill="black"/>
<path d="M96.014 196.06L109.715 231.019L82.107 243.878C81.561 244.092 80.948 243.839 80.713 243.301L66.29 210.587C66.047 210.039 66.293 209.397 66.84 209.151L96.014 196.06Z" fill="#F2F2F2"/>
<path opacity="0.2" d="M54.141 203.545C53.861 204.713 53.942 205.937 54.104 207.127C54.276 208.392 54.537 209.644 54.885 210.872C55.016 211.334 55.164 211.802 55.443 212.193C55.722 212.584 56.157 212.892 56.638 212.904C57.382 212.922 57.989 212.208 58.081 211.469C58.173 210.731 57.869 210 57.497 209.356C57.124 208.712 56.672 208.106 56.417 207.407C55.836 205.813 56.484 203.86 57.902 202.929C58.267 202.689 58.695 202.492 58.906 202.109C59.234 201.513 58.834 200.713 58.22 200.42C56.245 199.479 54.532 201.912 54.141 203.545Z" fill="white"/>
<path opacity="0.1" d="M309.779 48.6023L309.532 48.5433L308.956 48.4053L309.333 46.8303C309.836 44.7303 308.541 42.6193 306.44 42.1163C304.34 41.6133 302.229 42.9083 301.726 45.0093L301.349 46.5843L273.931 40.0203L254.617 120.698L317.058 135.646L336.372 54.9683L309.779 48.6023ZM303.759 45.5163C303.993 44.5403 304.973 43.9393 305.949 44.1723C306.925 44.4063 307.526 45.3863 307.293 46.3623C307.131 47.0403 306.605 47.5293 305.974 47.6913L304.334 47.2983C303.844 46.8683 303.597 46.1943 303.759 45.5163Z" fill="black"/>
<path d="M271.503 36.666L252.19 117.342L314.63 132.289L333.942 51.6129L271.503 36.666Z" fill="#FFF2DF"/>
<path opacity="0.1" d="M313.516 51.5682L306.262 49.8312L307.361 45.2382L304.394 44.5282C304.112 44.6012 303.809 44.6102 303.509 44.5382C303.206 44.4652 302.94 44.3202 302.722 44.1272L299.755 43.4172L298.655 48.0102L291.4 46.2732C289.787 45.8872 288.166 46.8812 287.78 48.4952L286.88 52.2542L314.838 58.9472L315.738 55.1882C316.124 53.5752 315.13 51.9552 313.516 51.5682Z" fill="black"/>
<path d="M325.658 57.2899L276.321 45.4795L260.45 111.778L309.787 123.588L325.658 57.2899Z" fill="white"/>
<path d="M312.695 51.3702L305.44 49.6332L306.916 43.4662C307.419 41.3662 306.124 39.2552 304.023 38.7522C301.923 38.2492 299.812 39.5442 299.309 41.6452L297.833 47.8122L290.578 46.0752C288.965 45.6892 287.344 46.6842 286.958 48.2972L286.058 52.0572L314.016 58.7502L314.916 54.9902C315.303 53.3772 314.308 51.7572 312.695 51.3702ZM303.531 40.8092C304.507 41.0432 305.108 42.0232 304.875 42.9992C304.641 43.9752 303.661 44.5762 302.685 44.3432C301.709 44.1092 301.108 43.1292 301.341 42.1532C301.575 41.1762 302.556 40.5752 303.531 40.8092Z" fill="#FFA400"/>
<path opacity="0.1" d="M260.456 111.789L308.539 125.581L309.794 123.6L260.456 111.789Z" fill="black"/>
<path d="M320.115 70.7498L276.209 60.2394L275.933 61.3928L319.839 71.9032L320.115 70.7498Z" fill="#DECBCD"/>
<path d="M319.192 74.6107L275.285 64.1002L275.009 65.2536L318.915 75.7641L319.192 74.6107Z" fill="#DECBCD"/>
<path d="M318.267 78.4719L274.361 67.9614L274.085 69.1148L317.991 79.6253L318.267 78.4719Z" fill="#DECBCD"/>
<path d="M317.342 82.3326L273.436 71.8221L273.16 72.9755L317.066 83.486L317.342 82.3326Z" fill="#DECBCD"/>
<path d="M316.419 86.1933L272.512 75.6829L272.236 76.8362L316.143 87.3467L316.419 86.1933Z" fill="#DECBCD"/>
<path d="M315.495 90.0534L271.589 79.543L271.313 80.6963L315.219 91.2068L315.495 90.0534Z" fill="#DECBCD"/>
<path d="M314.571 93.9146L270.664 83.4042L270.388 84.5576L314.295 95.068L314.571 93.9146Z" fill="#DECBCD"/>
<path d="M313.646 97.7753L269.74 87.2649L269.463 88.4183L313.37 98.9287L313.646 97.7753Z" fill="#DECBCD"/>
<path d="M312.815 101.248L268.909 90.7377L268.633 91.8911L312.539 102.402L312.815 101.248Z" fill="#DECBCD"/>
<path d="M311.89 105.11L267.984 94.5999L267.708 95.7532L311.614 106.264L311.89 105.11Z" fill="#DECBCD"/>
<path d="M310.967 108.969L267.061 98.459L266.785 99.6124L310.691 110.123L310.967 108.969Z" fill="#DECBCD"/>
<path opacity="0.1" d="M248.753 107.737C246.179 102.303 238.994 96.8742 229.141 93.0002C229.524 92.9802 229.908 92.9612 230.291 92.9332C232.958 92.7432 235.715 92.3172 237.929 90.8192C240.336 89.1902 241.804 86.4872 242.765 83.7442C246.888 71.9792 243.105 58.9702 238.177 47.5182C231.339 31.6302 220.059 14.9752 204.387 7.01822C198.323 3.93922 191.602 2.16321 184.226 2.23721C176.787 2.31221 169.161 4.65521 163.279 9.28721C156.972 14.2532 155.921 22.6892 154.663 30.1522C152.755 41.4692 148.53 52.2442 144.369 62.9402C142.244 68.4022 140.091 74.1642 140.892 79.9692C141.72 85.9682 145.714 91.0372 150.884 94.3282C138.426 98.8372 126.987 106.636 124.402 120.133C118.205 152.499 101.962 208.407 118.032 217.942C134.102 227.477 175.41 219.215 175.41 219.215C175.41 219.215 242.072 229.703 260.193 218.146C278.314 206.592 257.635 126.487 248.753 107.737Z" fill="black"/>
<path d="M204.386 4.78323C198.322 1.70523 191.601 -0.0717768 184.225 0.00222321C176.786 0.0772232 169.16 2.42023 163.278 7.05223C156.971 12.0182 155.92 20.4542 154.662 27.9172C152.754 39.2342 148.529 50.0092 144.368 60.7052C142.243 66.1672 140.09 71.9292 140.891 77.7342C142.033 86.0082 149.196 92.5152 157.162 95.0242C165.129 97.5332 173.757 96.7052 181.953 95.0962C190.149 93.4872 198.241 91.1172 206.577 90.5902C214.47 90.0912 222.401 91.2592 230.29 90.6972C232.957 90.5072 235.714 90.0812 237.928 88.5822C240.335 86.9532 241.803 84.2502 242.764 81.5072C246.887 69.7422 243.104 56.7322 238.176 45.2812C231.338 29.3962 220.058 12.7402 204.386 4.78323Z" fill="#33354B"/>
<path d="M187.705 85.9192C187.705 85.9192 130.599 85.5342 124.402 117.9C118.205 150.266 101.962 206.174 118.032 215.709C134.102 225.244 175.41 216.982 175.41 216.982C175.41 216.982 242.072 227.47 260.193 215.913C278.314 204.356 257.635 124.251 248.753 105.501C243.231 93.8452 216.492 82.2042 187.705 85.9192Z" fill="white"/>
<path d="M203.606 61.0569L175.675 61.7582L177.056 116.78L204.988 116.078L203.606 61.0569Z" fill="#FBC5A3"/>
<path d="M191.901 170.378L173.851 110.132C173.851 110.132 186.106 117.938 207.538 109.736L191.901 170.378Z" fill="#559E8D"/>
<path opacity="0.05" d="M204.221 85.3893L191.901 170.378L217.771 115.735L210.289 107.075L220.442 107.496L227.606 90.1843C227.606 90.1843 220.053 86.0553 204.221 85.3893Z" fill="black"/>
<path opacity="0.05" d="M191.901 170.378L219.747 115.685L213.279 109.478L222.965 109.235L228.898 89.7013L207.813 102.741L191.901 170.378Z" fill="black"/>
<path d="M204.221 85.3893L191.718 170.765L217.771 115.734L210.289 107.074L220.442 107.495L227.606 90.1833C227.606 90.1833 220.053 86.0553 204.221 85.3893Z" fill="white"/>
<path opacity="0.05" d="M176.29 86.0922L191.718 170.766L164.283 117.081L171.32 108.055L161.201 108.986L153.175 92.0562C153.175 92.0562 160.511 87.5522 176.29 86.0922Z" fill="black"/>
<path opacity="0.05" d="M191.901 170.378L162.307 117.13L168.454 110.606L158.768 110.85L151.861 91.6392L173.575 103.602L191.901 170.378Z" fill="black"/>
<path d="M176.29 86.0922L191.718 170.766L164.283 117.081L171.32 108.055L161.201 108.986L153.175 92.0562C153.175 92.0562 160.511 87.5522 176.29 86.0922Z" fill="white"/>
<path d="M210.92 180.5C210.92 180.5 223.72 172.915 230.358 175.453L230.374 195.206L217.362 196.753L210.92 180.5Z" fill="#FBC5A3"/>
<path d="M217.311 196.593L230.247 195.153L230.487 152.861" stroke="#15385B" stroke-width="0.3411" stroke-miterlimit="10"/>
<path d="M167.961 187.991C167.961 187.991 172.953 176.515 162.655 172.692C155.128 169.898 137.186 166.448 136.018 169.409C134.85 172.37 151.632 175.884 151.632 175.884C151.632 175.884 135.408 173.305 134.735 176.28C134.062 179.256 150.303 180.492 150.303 180.492C150.303 180.492 136.319 179.194 136.34 182.502C136.361 185.81 154.426 185.163 154.426 185.163C154.426 185.163 138.024 185.574 137.942 187.676C137.859 189.778 152.174 191.884 167.961 187.991Z" fill="#FBC5A3"/>
<path d="M159.957 189.483L210.92 180.5L217.311 196.593L175.41 216.982" stroke="#15385B" stroke-width="0.3411" stroke-miterlimit="10"/>
<path opacity="0.5" d="M175.965 73.1683C175.965 73.1683 187.011 82.8613 204.222 85.3893L203.799 68.5823L175.965 73.1683Z" fill="#EDA37A"/>
<path d="M190.054 77.849C204.825 77.4782 216.416 61.9123 215.943 43.0817C215.47 24.2512 203.113 9.28662 188.342 9.65748C173.571 10.0283 161.98 25.5942 162.453 44.4248C162.926 63.2553 175.283 78.2199 190.054 77.849Z" fill="#FBC5A3"/>
<path d="M176.349 28.4362C180.656 30.1392 185.622 30.1062 189.906 28.3472C190.409 28.1402 190.964 27.9082 191.478 28.0862C191.796 28.1972 192.041 28.4492 192.279 28.6882C195.308 31.7192 199.263 33.7032 203.377 34.9032C207.49 36.1032 211.782 36.5592 216.055 36.8692C217.273 36.9572 218.529 37.0292 219.685 36.6362C222.389 35.7172 223.696 32.4292 223.254 29.6082C222.812 26.7872 221.048 24.3662 219.218 22.1732C212.866 14.5642 204.814 8.0792 195.351 5.1292C192.208 4.1492 188.887 3.5672 185.619 3.9612C183.055 4.2702 180.603 5.1672 178.179 6.0582C176.359 6.7262 174.497 7.4192 173.023 8.6772C171.294 10.1522 170.299 12.2232 169.233 14.1812C168.324 15.8492 166.493 17.7572 166.925 19.7672C167.749 23.6102 172.994 27.1092 176.349 28.4362Z" fill="#33354B"/>
<path d="M220.094 45.7992C220.094 49.3662 217.202 52.2582 213.635 52.2582C210.068 52.2582 207.176 49.3662 207.176 45.7992C207.176 42.2322 210.068 39.3402 213.635 39.3402C217.202 39.3402 220.094 42.2322 220.094 45.7992Z" fill="#FBC5A3"/>
<path d="M171.151 45.7992C171.151 49.3662 168.259 52.2582 164.692 52.2582C161.125 52.2582 158.233 49.3662 158.233 45.7992C158.233 42.2322 161.125 39.3402 164.692 39.3402C168.259 39.3402 171.151 42.2322 171.151 45.7992Z" fill="#FBC5A3"/>
</svg>
