<svg width="197" height="57" viewBox="0 0 197 57" fill="none" xmlns="http://www.w3.org/2000/svg">
<path d="M196.459 28.3998C196.233 31.8974 196.867 36.4626 196.134 40.9986C194.991 48.0651 190.516 52.3038 183.497 53.5006C177.825 54.4676 172.193 54.6886 166.614 53.3745C157.741 51.2849 153.263 45.249 154.63 35.2072C155.756 26.941 161.596 23.9 168.468 22.9565C173.673 22.2427 178.911 22.5125 184.136 22.5145C185.675 22.5145 186.355 22.1077 186.168 20.5081C186.07 19.6975 186.153 18.8664 186.153 18.0441C186.153 11.8948 183.154 10.0321 177.951 9.58913C173.442 9.20584 168.857 9.2078 164.351 10.254C163.223 10.5161 161.645 11.0705 160.808 9.86291C159.999 8.70032 160.578 7.2708 161.084 6.00065C162.659 2.04355 164.813 0.509398 169.04 0.537754C174.027 0.571977 179.007 0.15935 183.971 1.36398C191.793 3.26187 196.291 8.53508 196.447 16.592C196.515 20.1776 196.459 23.7661 196.459 28.3998ZM178.891 30.5509V30.5656C177.472 30.5656 176.05 30.5069 174.635 30.5813C173.147 30.6513 171.664 30.8015 170.192 31.031C166.998 31.5502 165.082 33.9165 164.867 37.4844C164.649 41.1022 166.252 43.5946 169.365 44.5333C172.653 45.5238 176.003 45.5717 179.325 44.9371C184.098 44.0258 185.811 42.1015 186.118 37.5304C186.243 35.6726 186.147 33.7982 186.185 31.9326C186.205 30.8902 185.801 30.4845 184.711 30.5314C182.776 30.6116 180.832 30.5519 178.891 30.5519V30.5509Z" fill="#F2F2F2"/>
<path d="M110.364 35.4615C110.364 40.8393 110.323 46.2171 110.388 51.595C110.409 53.4283 109.703 54.0766 107.869 54.1108C103.144 54.1998 99.7004 51.0855 99.6779 46.3442C99.6359 37.5295 99.4677 28.7089 99.7317 19.9019C100.104 7.47621 106.402 2.19127 116.888 0.737301C123.061 -0.116308 129.404 0.00200477 135.27 2.98035C141.069 5.91957 144.005 10.8418 144.437 17.0458C145.231 28.4439 144.699 39.8791 144.808 51.2977C144.83 53.6356 144.117 54.2252 141.827 54.1098C137.025 53.8683 134.172 50.9662 134.144 46.1066C134.098 37.8932 134.159 29.673 134.12 21.4566C134.095 19.8896 133.951 18.3268 133.688 16.7818C133.242 13.9873 131.326 12.1755 128.868 11.404C125.152 10.2306 121.32 10.1172 117.391 10.9376C111.817 12.1021 110.434 15.6769 110.402 19.7699C110.362 24.9991 110.393 30.2323 110.393 35.4576L110.364 35.4615Z" fill="#F2F2F2"/>
<path d="M44.0643 20.0134C44.0643 14.8575 44.1484 9.69969 44.0252 4.54674C43.9724 2.32423 45.1164 1.80894 46.9175 1.90672C51.7086 2.16877 54.7662 5.30746 54.7691 10.0057C54.775 18.1507 54.8092 26.2957 54.7613 34.4406C54.7329 39.312 57.1217 43.4167 63.3873 43.6749C66.8096 43.8157 70.1888 44.0992 73.5299 42.879C76.2267 41.8963 77.5252 39.9378 78.1363 37.3417C78.4961 35.8086 78.5411 34.2402 78.5391 32.665C78.5241 23.3995 78.5241 14.134 78.5391 4.86844C78.5391 2.10423 78.9068 1.74538 81.6593 1.91258C86.0906 2.18148 89.0386 5.27031 89.11 9.41906C89.2684 18.7432 89.6967 28.0948 88.8616 37.4073C88.0921 45.9834 82.8336 51.5852 74.2398 53.355C68.5501 54.5283 62.787 54.5283 57.1823 52.8847C48.9405 50.4715 44.2559 44.0846 44.0956 35.26C44.0037 30.1804 44.079 25.0979 44.079 20.0163L44.0643 20.0134Z" fill="#F2F2F2"/>
<path d="M6.9806 0.464611C13.9024 -0.453531 17.6297 3.55638 20.6256 9.03492C23.865 14.9574 27.3724 20.7341 30.7946 26.5539C31.4224 27.6207 31.4791 28.4186 30.7633 29.5851C28.1419 33.8873 25.8891 38.4155 23.1513 42.6346C21.0774 45.831 19.8982 49.5711 17.1408 52.3402C14.8039 54.6868 12.1463 56.2513 8.70737 56.1682C6.76744 56.1222 4.82458 56.2024 2.88465 56.1428C1.01023 56.0861 -0.0125369 54.634 0.787293 52.9532C2.22562 49.9309 3.86243 47.0024 5.38876 44.0202C7.97403 38.9709 10.5489 33.9157 13.1133 28.8547C13.5044 28.0871 13.1905 27.433 12.8268 26.7534C11.4299 24.1388 10.0479 21.5161 8.68097 18.8852C6.09375 13.9131 3.47816 8.95865 0.975028 3.94749C-0.122049 1.7504 0.710048 0.548701 3.17212 0.4607C3.84288 0.437233 4.51657 0.4607 5.18831 0.4607L6.9806 0.464611ZM6.72051 2.34881C6.04975 2.34881 5.37703 2.31361 4.71018 2.35859C4.13817 2.3977 3.31781 2.32925 3.05772 2.66072C2.54927 3.30704 3.35105 3.83407 3.64928 4.40216C7.54674 11.8588 11.4361 19.3186 15.3172 26.7818C15.6722 27.4662 15.944 28.1507 15.5509 28.9055C13.9346 32.0159 12.4855 35.2298 10.6541 38.2082C7.7863 42.8742 5.9989 48.0526 3.35594 52.8124C3.02056 53.4177 2.9394 53.8684 3.84483 54.108C8.8912 55.4436 14.4939 53.1987 17.1476 48.648C20.8046 42.3814 24.3578 36.0551 28.0734 29.8237C28.8342 28.5476 28.8899 27.6207 28.1468 26.3701C24.6267 20.431 21.1067 14.488 17.7177 8.4678C15.2703 4.11078 11.7023 2.02809 6.72051 2.34881Z" fill="#F2F2F2"/>
</svg>
